<svg width="31" height="31" viewBox="0 0 31 31" fill="none" xmlns="http://www.w3.org/2000/svg">
<path d="M7.75 28.4167H27.125V25.8333H7.7655C7.16875 25.8178 6.45833 25.5815 6.45833 24.5417C6.45833 23.5019 7.16875 23.2655 7.7655 23.25H27.125V5.16667C27.125 3.74196 25.9664 2.58333 24.5417 2.58333H7.75C6.19225 2.58333 3.875 3.61538 3.875 6.45833V24.5417C3.875 27.3846 6.19225 28.4167 7.75 28.4167ZM6.45833 10.3333V6.45833C6.45833 5.41854 7.16875 5.18217 7.75 5.16667H24.5417V20.6667H6.45833V10.3333Z" fill="#44113E"/>
<path d="M10.333 7.75H21.958V10.3333H10.333V7.75Z" fill="#44113E"/>
</svg>
