<svg width="34" height="34" viewBox="0 0 34 34" fill="none" xmlns="http://www.w3.org/2000/svg">
<path d="M16.7829 29.3689C19.5756 29.3685 22.2889 28.4393 24.4956 26.7276C26.7022 25.0159 28.277 22.619 28.9719 19.9141C29.6667 17.2092 29.4423 14.35 28.3339 11.7867C27.2255 9.22331 25.296 7.1014 22.8493 5.75498C20.4026 4.40856 17.5775 3.9141 14.819 4.34944C12.0604 4.78479 9.52491 6.12521 7.61175 8.15968C5.69858 10.1942 4.51636 12.8071 4.25121 15.5872C3.98606 18.3673 4.65304 21.1567 6.14715 23.5161L4.19621 29.3689L10.049 27.418C12.0623 28.6958 14.3984 29.3726 16.7829 29.3689Z" stroke="white" stroke-width="2.79704" stroke-linecap="round" stroke-linejoin="round"/>
</svg>
