<svg width="45" height="45" viewBox="0 0 45 45" fill="none" xmlns="http://www.w3.org/2000/svg">
<path d="M22.5002 39.375C26.4043 39.375 30.1876 38.0212 33.2055 35.5445C36.2234 33.0677 38.2892 29.6211 39.0508 25.792C39.8124 21.9629 39.2228 17.9882 37.3824 14.5451C35.542 11.102 32.5646 8.4035 28.9577 6.90949C25.3508 5.41547 21.3374 5.21834 17.6014 6.35167C13.8654 7.485 10.6379 9.87868 8.46891 13.1249C6.29992 16.371 5.3236 20.2688 5.70629 24.1542C6.08899 28.0395 7.80703 31.6719 10.5677 34.4325" stroke="white" stroke-width="3" stroke-linecap="round"/>
<path d="M30 18.75L23.2538 26.8463C22.0256 28.32 21.4106 29.0587 20.5837 29.0962C19.7569 29.1338 19.0781 28.4531 17.7206 27.0956L15 24.375" stroke="white" stroke-width="3" stroke-linecap="round"/>
</svg>
