<svg width="72" height="72" viewBox="0 0 72 72" fill="none" xmlns="http://www.w3.org/2000/svg">
<path d="M36.0003 63C42.2469 63 48.3002 60.834 53.1288 56.8711C57.9575 52.9083 61.2627 47.3938 62.4813 41.2672C63.6999 35.1407 62.7565 28.7811 59.8118 23.2721C56.8672 17.7631 52.1034 13.4456 46.3323 11.0552C40.5612 8.66476 34.1398 8.34934 28.1622 10.1627C22.1846 11.976 17.0206 15.8059 13.5503 20.9998C10.0799 26.1936 8.51776 32.4301 9.13007 38.6466C9.74238 44.8631 12.4912 50.675 16.9083 55.092" stroke="#4CB34E" stroke-width="5.23636" stroke-linecap="round"/>
<path d="M48 30L37.206 42.954C35.241 45.312 34.257 46.494 32.934 46.554C31.611 46.614 30.525 45.525 28.353 43.353L24 39" stroke="#4CB34E" stroke-width="5.23636" stroke-linecap="round"/>
</svg>
