<svg width="26" height="26" viewBox="0 0 26 26" fill="none" xmlns="http://www.w3.org/2000/svg">
<g clip-path="url(#clip0_2392_157)">
<path d="M25.9489 3.245H0V22.7148H25.9598L25.9489 3.245ZM8.65325 6.48996C10.4488 6.48996 11.8982 7.93938 11.8982 9.73493C11.8982 11.5305 10.4488 12.9799 8.65325 12.9799C6.8577 12.9799 5.40828 11.5305 5.40828 9.73493C5.40828 7.93938 6.8577 6.48996 8.65325 6.48996ZM15.1432 19.4698H2.16331V18.3882C2.16331 16.2249 6.48994 15.035 8.65325 15.035C10.8166 15.035 15.1432 16.2249 15.1432 18.3882V19.4698ZM19.3076 15.1432H21.0815L22.7148 17.3065L20.5623 19.459C19.1286 18.3858 18.0903 16.8683 17.6094 15.1432C17.4147 14.451 17.3065 13.7262 17.3065 12.9799C17.3065 12.2336 17.4147 11.5088 17.6094 10.8166C18.0881 9.09043 19.1268 7.57229 20.5623 6.50078L22.7148 8.65328L21.0815 10.8166H19.3076C19.0696 11.498 18.929 12.2227 18.929 12.9799C18.929 13.7371 19.0696 14.4618 19.3076 15.1432Z" fill="white"/>
</g>
<defs>
<clipPath id="clip0_2392_157">
<rect width="25.9598" height="25.9598" fill="white"/>
</clipPath>
</defs>
</svg>
