<svg width="24" height="24" viewBox="0 0 24 24" fill="none" xmlns="http://www.w3.org/2000/svg">
<path fill-rule="evenodd" clip-rule="evenodd" d="M5.25 2.25V21.75H13.875C14.1734 21.75 14.4595 21.8685 14.6705 22.0795C14.8815 22.2905 15 22.5766 15 22.875C15 23.1734 14.8815 23.4595 14.6705 23.6705C14.4595 23.8815 14.1734 24 13.875 24H4.5C4.10218 24 3.72064 23.842 3.43934 23.5607C3.15804 23.2794 3 22.8978 3 22.5V1.5C3 1.10218 3.15804 0.720645 3.43934 0.439341C3.72064 0.158036 4.10218 7.34838e-07 4.5 7.34838e-07H14.466C14.6675 -0.000198727 14.867 0.0402099 15.0526 0.118814C15.2381 0.197418 15.4059 0.312606 15.546 0.457501L20.5785 5.6715C20.8489 5.9512 21 6.32499 21 6.714V9.375C21 9.67337 20.8815 9.95952 20.6705 10.1705C20.4595 10.3815 20.1734 10.5 19.875 10.5C19.5766 10.5 19.2905 10.3815 19.0795 10.1705C18.8685 9.95952 18.75 9.67337 18.75 9.375V9H14.625C13.9288 9 13.2611 8.72344 12.7688 8.23116C12.2766 7.73887 12 7.07119 12 6.375V2.25H5.25ZM14.25 2.355L18.492 6.75H14.625C14.5255 6.75 14.4302 6.71049 14.3598 6.64017C14.2895 6.56984 14.25 6.47446 14.25 6.375V2.355ZM19.5 22.5C19.2016 22.5 18.9155 22.3815 18.7045 22.1705C18.4935 21.9595 18.375 21.6734 18.375 21.375V19.125H16.125C15.8266 19.125 15.5405 19.0065 15.3295 18.7955C15.1185 18.5845 15 18.2984 15 18C15 17.7016 15.1185 17.4155 15.3295 17.2045C15.5405 16.9935 15.8266 16.875 16.125 16.875H18.375V14.625C18.375 14.3266 18.4935 14.0405 18.7045 13.8295C18.9155 13.6185 19.2016 13.5 19.5 13.5C19.7984 13.5 20.0845 13.6185 20.2955 13.8295C20.5065 14.0405 20.625 14.3266 20.625 14.625V16.875H22.875C23.1734 16.875 23.4595 16.9935 23.6705 17.2045C23.8815 17.4155 24 17.7016 24 18C24 18.2984 23.8815 18.5845 23.6705 18.7955C23.4595 19.0065 23.1734 19.125 22.875 19.125H20.625V21.375C20.625 21.6734 20.5065 21.9595 20.2955 22.1705C20.0845 22.3815 19.7984 22.5 19.5 22.5Z" fill="black"/>
</svg>
