<svg width="19" height="17" viewBox="0 0 19 17" fill="none" xmlns="http://www.w3.org/2000/svg">
<path d="M17.2188 15.7858H1.78125C0.795625 15.7858 0 14.9722 0 13.9644V3.03578C0 2.02793 0.795625 1.21436 1.78125 1.21436H17.2188C18.2044 1.21436 19 2.02793 19 3.03578V13.9644C19 14.9722 18.2044 15.7858 17.2188 15.7858ZM1.78125 2.42864C1.44875 2.42864 1.1875 2.69578 1.1875 3.03578V13.9644C1.1875 14.3044 1.44875 14.5715 1.78125 14.5715H17.2188C17.5513 14.5715 17.8125 14.3044 17.8125 13.9644V3.03578C17.8125 2.69578 17.5513 2.42864 17.2188 2.42864H1.78125Z" fill="black"/>
<path d="M9.50006 10.88C8.66881 10.88 7.90881 10.54 7.33881 9.92075L1.10444 3.14504C0.878812 2.90218 0.890686 2.51361 1.12819 2.2829C1.36569 2.05218 1.74569 2.06433 1.97131 2.30718L8.20569 9.0829C8.88256 9.82361 10.1176 9.82361 10.7944 9.0829L17.0288 2.31933C17.2544 2.07647 17.6344 2.06433 17.8719 2.29504C18.1094 2.52575 18.1213 2.91432 17.8957 3.15718L11.6613 9.9329C11.0913 10.5522 10.3313 10.8922 9.50006 10.8922V10.88Z" fill="black"/>
</svg>
