<svg width="25" height="25" viewBox="0 0 25 25" fill="none" xmlns="http://www.w3.org/2000/svg">
<path d="M23.4375 13.2812V19.5312C23.4375 19.9457 23.2729 20.3431 22.9799 20.6361C22.6868 20.9291 22.2894 21.0938 21.875 21.0938H3.125C2.7106 21.0938 2.31317 20.9291 2.02015 20.6361C1.72712 20.3431 1.5625 19.9457 1.5625 19.5312V13.2812C1.5625 12.8668 1.72712 12.4694 2.02015 12.1764C2.31317 11.8834 2.7106 11.7188 3.125 11.7188H7.03125C7.23845 11.7188 7.43716 11.8011 7.58368 11.9476C7.73019 12.0941 7.8125 12.2928 7.8125 12.5C7.8125 12.7072 7.73019 12.9059 7.58368 13.0524C7.43716 13.1989 7.23845 13.2812 7.03125 13.2812H3.125V19.5312H21.875V13.2812H17.9688C17.7615 13.2812 17.5628 13.1989 17.4163 13.0524C17.2698 12.9059 17.1875 12.7072 17.1875 12.5C17.1875 12.2928 17.2698 12.0941 17.4163 11.9476C17.5628 11.8011 17.7615 11.7188 17.9688 11.7188H21.875C22.2894 11.7188 22.6868 11.8834 22.9799 12.1764C23.2729 12.4694 23.4375 12.8668 23.4375 13.2812ZM11.9473 13.0527C12.0198 13.1254 12.106 13.183 12.2008 13.2223C12.2957 13.2616 12.3973 13.2819 12.5 13.2819C12.6027 13.2819 12.7043 13.2616 12.7992 13.2223C12.894 13.183 12.9802 13.1254 13.0527 13.0527L17.7402 8.36523C17.8868 8.21864 17.9692 8.01982 17.9692 7.8125C17.9692 7.60518 17.8868 7.40636 17.7402 7.25977C17.5936 7.11317 17.3948 7.03082 17.1875 7.03082C16.9802 7.03082 16.7814 7.11317 16.6348 7.25977L13.2812 10.6143V2.34375C13.2812 2.13655 13.1989 1.93784 13.0524 1.79132C12.9059 1.64481 12.7072 1.5625 12.5 1.5625C12.2928 1.5625 12.0941 1.64481 11.9476 1.79132C11.8011 1.93784 11.7188 2.13655 11.7188 2.34375V10.6143L8.36523 7.25977C8.21864 7.11317 8.01982 7.03082 7.8125 7.03082C7.60518 7.03082 7.40636 7.11317 7.25977 7.25977C7.11317 7.40636 7.03082 7.60518 7.03082 7.8125C7.03082 8.01982 7.11317 8.21864 7.25977 8.36523L11.9473 13.0527ZM19.5312 16.4062C19.5312 16.1745 19.4625 15.9479 19.3338 15.7552C19.205 15.5625 19.022 15.4123 18.8078 15.3236C18.5937 15.2349 18.3581 15.2117 18.1308 15.2569C17.9034 15.3021 17.6946 15.4137 17.5307 15.5776C17.3668 15.7415 17.2552 15.9503 17.21 16.1776C17.1648 16.405 17.188 16.6406 17.2767 16.8547C17.3654 17.0688 17.5156 17.2519 17.7083 17.3806C17.901 17.5094 18.1276 17.5781 18.3594 17.5781C18.6702 17.5781 18.9682 17.4547 19.188 17.2349C19.4078 17.0151 19.5312 16.7171 19.5312 16.4062Z" fill="black"/>
</svg>
