<svg width="103" height="103" viewBox="0 0 103 103" fill="none" xmlns="http://www.w3.org/2000/svg">
<g filter="url(#filter0_d_2603_2509)">
<circle cx="51.5" cy="49.5" r="47.5" fill="white" fill-opacity="0.69" shape-rendering="crispEdges"/>
</g>
<path d="M51.4996 52.1125C50.7042 52.1032 49.9251 52.3378 49.2671 52.7847C48.6091 53.2316 48.1037 53.8694 47.8192 54.6122C47.5346 55.3549 47.4844 56.1671 47.6753 56.9393C47.8662 57.7114 48.2891 58.4066 48.8871 58.9311V62.5625C48.8871 63.2554 49.1624 63.9199 49.6523 64.4098C50.1422 64.8998 50.8067 65.175 51.4996 65.175C52.1925 65.175 52.857 64.8998 53.3469 64.4098C53.8369 63.9199 54.1121 63.2554 54.1121 62.5625V58.9311C54.7101 58.4066 55.133 57.7114 55.3239 56.9393C55.5149 56.1671 55.4647 55.3549 55.1801 54.6122C54.8955 53.8694 54.3902 53.2316 53.7321 52.7847C53.0741 52.3378 52.295 52.1032 51.4996 52.1125ZM64.5621 41.6625V36.4375C64.5621 32.9731 63.1859 29.6506 60.7362 27.2009C58.2865 24.7512 54.964 23.375 51.4996 23.375C48.0352 23.375 44.7127 24.7512 42.263 27.2009C39.8133 29.6506 38.4371 32.9731 38.4371 36.4375V41.6625C36.3585 41.6625 34.365 42.4882 32.8952 43.958C31.4253 45.4279 30.5996 47.4214 30.5996 49.5V67.7875C30.5996 69.8661 31.4253 71.8596 32.8952 73.3294C34.365 74.7993 36.3585 75.625 38.4371 75.625H64.5621C66.6407 75.625 68.6342 74.7993 70.1041 73.3294C71.5739 71.8596 72.3996 69.8661 72.3996 67.7875V49.5C72.3996 47.4214 71.5739 45.4279 70.1041 43.958C68.6342 42.4882 66.6407 41.6625 64.5621 41.6625ZM43.6621 36.4375C43.6621 34.3589 44.4878 32.3654 45.9577 30.8956C47.4275 29.4257 49.421 28.6 51.4996 28.6C53.5782 28.6 55.5717 29.4257 57.0416 30.8956C58.5114 32.3654 59.3371 34.3589 59.3371 36.4375V41.6625H43.6621V36.4375ZM67.1746 67.7875C67.1746 68.4804 66.8994 69.1449 66.4094 69.6348C65.9195 70.1248 65.255 70.4 64.5621 70.4H38.4371C37.7442 70.4 37.0797 70.1248 36.5898 69.6348C36.0999 69.1449 35.8246 68.4804 35.8246 67.7875V49.5C35.8246 48.8071 36.0999 48.1426 36.5898 47.6527C37.0797 47.1627 37.7442 46.8875 38.4371 46.8875H64.5621C65.255 46.8875 65.9195 47.1627 66.4094 47.6527C66.8994 48.1426 67.1746 48.8071 67.1746 49.5V67.7875Z" fill="#F24822"/>
<defs>
<filter id="filter0_d_2603_2509" x="0" y="0" width="103" height="103" filterUnits="userSpaceOnUse" color-interpolation-filters="sRGB">
<feFlood flood-opacity="0" result="BackgroundImageFix"/>
<feColorMatrix in="SourceAlpha" type="matrix" values="0 0 0 0 0 0 0 0 0 0 0 0 0 0 0 0 0 0 127 0" result="hardAlpha"/>
<feOffset dy="2"/>
<feGaussianBlur stdDeviation="2"/>
<feComposite in2="hardAlpha" operator="out"/>
<feColorMatrix type="matrix" values="0 0 0 0 0 0 0 0 0 0 0 0 0 0 0 0 0 0 0.25 0"/>
<feBlend mode="normal" in2="BackgroundImageFix" result="effect1_dropShadow_2603_2509"/>
<feBlend mode="normal" in="SourceGraphic" in2="effect1_dropShadow_2603_2509" result="shape"/>
</filter>
</defs>
</svg>
