<svg width="27" height="27" viewBox="0 0 27 27" fill="none" xmlns="http://www.w3.org/2000/svg">
<path d="M13.5 18C17.8492 18 21.375 14.4742 21.375 10.125C21.375 5.77576 17.8492 2.25 13.5 2.25C9.15076 2.25 5.625 5.77576 5.625 10.125C5.625 14.4742 9.15076 18 13.5 18Z" stroke="black" stroke-width="1.5"/>
<path d="M8.26971 16.875L7.55309 19.4884C6.84659 22.0669 6.49334 23.3561 6.96471 24.0615C7.13009 24.309 7.35171 24.507 7.60934 24.6386C8.34284 25.0121 9.47684 24.4215 11.7437 23.2403C12.4975 22.8465 12.8755 22.6508 13.276 22.608C13.4248 22.5931 13.5748 22.5931 13.7237 22.608C14.1242 22.6508 14.5011 22.8476 15.256 23.2403C17.5228 24.4215 18.6568 25.0121 19.3903 24.6386C19.648 24.507 19.8696 24.309 20.035 24.0615C20.5075 23.3561 20.1531 22.0669 19.4466 19.4884L18.73 16.875" stroke="black" stroke-width="1.5" stroke-linecap="round"/>
</svg>
