<svg width="55" height="55" viewBox="0 0 55 55" fill="none" xmlns="http://www.w3.org/2000/svg">
<path d="M27.5002 48.125C32.2719 48.125 36.896 46.4704 40.5845 43.4432C44.2731 40.4161 46.7979 36.2036 47.7288 31.5236C48.6596 26.8436 47.939 21.9856 45.6896 17.7773C43.4402 13.5691 39.8012 10.271 35.3927 8.44493C30.9843 6.61891 26.079 6.37797 21.5128 7.76315C16.9465 9.14834 13.0019 12.0739 10.3509 16.0415C7.69991 20.009 6.50662 24.773 6.97436 29.5217C7.4421 34.2705 9.54192 38.7101 12.916 42.0842" stroke="#4CB34E" stroke-width="4" stroke-linecap="round"/>
<path d="M36.6673 22.9165L28.4219 32.8119C26.9209 34.6132 26.1692 35.5161 25.1586 35.5619C24.1479 35.6078 23.3184 34.7759 21.6592 33.1167L18.334 29.7915" stroke="#4CB34E" stroke-width="4" stroke-linecap="round"/>
</svg>
