<svg width="15" height="15" viewBox="0 0 15 15" fill="none" xmlns="http://www.w3.org/2000/svg">
<path d="M13.2936 9.77473C12.3553 9.77473 11.3387 9.61834 10.4785 9.30554H10.2439C10.0093 9.30554 9.85293 9.38374 9.69653 9.54014L7.97618 11.2605C5.78664 10.0875 3.90989 8.28897 2.81512 6.09943L4.53548 4.37908C4.77007 4.14449 4.84827 3.83169 4.69187 3.5971C4.45728 2.73692 4.30088 1.72035 4.30088 0.781979C4.30088 0.390989 3.90989 0 3.5189 0H0.781979C0.390989 0 0 0.390989 0 0.781979C0 8.13258 5.94304 14.0756 13.2936 14.0756C13.6846 14.0756 14.0756 13.6846 14.0756 13.2936V10.5567C14.0756 10.1657 13.6846 9.77473 13.2936 9.77473ZM1.56396 1.56396H2.73692C2.81512 2.26774 2.97152 2.97152 3.12791 3.5971L2.18954 4.53548C1.87675 3.5971 1.64215 2.58053 1.56396 1.56396ZM12.5117 12.5117C11.4951 12.4335 10.4785 12.1989 9.54014 11.8861L10.4785 10.9477C11.1041 11.1041 11.8079 11.2605 12.5117 11.2605V12.5117Z" fill="black" fill-opacity="0.6"/>
</svg>
