<svg width="23" height="23" viewBox="0 0 23 23" fill="none" xmlns="http://www.w3.org/2000/svg">
<path d="M13.4205 9.81752C13.3294 9.81691 13.2417 9.85236 13.1767 9.91613C13.1116 9.9799 13.0744 10.0668 13.0732 10.1579V12.7017C13.0744 12.793 13.1118 12.8801 13.1771 12.9439C13.2424 13.0077 13.3303 13.043 13.4216 13.0421H21.0841C21.1754 13.043 21.2633 13.0077 21.3287 12.9439C21.394 12.8801 21.4313 12.793 21.4325 12.7017V10.1579C21.4313 10.0666 21.394 9.97953 21.3287 9.91572C21.2633 9.85192 21.1754 9.8166 21.0841 9.81752H13.4205ZM18.1194 1.72613C19.1797 1.77673 19.9422 1.98603 20.4251 2.42993C20.9024 2.86923 21.1473 3.50518 21.1957 4.34698V6.75853C21.1932 6.9639 21.1094 7.15991 20.9625 7.30351C20.8157 7.44712 20.6179 7.52657 20.4125 7.52443C20.3107 7.52564 20.2097 7.50679 20.1152 7.46896C20.0207 7.43113 19.9345 7.37505 19.8617 7.30393C19.7889 7.2328 19.7308 7.14803 19.6907 7.05445C19.6506 6.96087 19.6294 6.86031 19.6282 6.75853L19.6294 4.39068C19.604 3.95368 19.4994 3.68228 19.3499 3.54428C19.205 3.41088 18.7634 3.29128 18.0814 3.25678H3.04405C2.4265 3.27978 2.02515 3.39708 1.8308 3.56383C1.6813 3.69148 1.5686 4.04338 1.56745 4.65173L1.564 18.1872C1.6215 18.7783 1.75145 19.1728 1.9182 19.3694C2.0447 19.5189 2.43685 19.6684 3.01415 19.742H18.0975C18.8036 19.7558 19.2199 19.65 19.3602 19.5086C19.5155 19.351 19.6282 18.937 19.6282 18.2597V15.9079C19.6282 15.4859 19.979 15.142 20.4125 15.142C20.8449 15.142 21.1957 15.4859 21.1957 15.9079V18.2597C21.1957 19.2947 20.984 20.0686 20.4884 20.5712C19.9778 21.0887 19.1659 21.2957 18.0814 21.2727L2.921 21.2692C1.88945 21.1496 1.15 20.8667 0.70955 20.3458C0.3105 19.8743 0.08855 19.2015 0 18.2608V4.65058C0.0023 3.64318 0.2438 2.88533 0.7981 2.41153C1.3064 1.97453 2.0401 1.76178 3.01415 1.72498L18.1194 1.72613ZM21.0841 8.28573C22.1421 8.28573 23 9.12408 23 10.1579V12.7017C23 13.7356 22.1421 14.5739 21.0841 14.5739H13.4216C12.3636 14.5739 11.5057 13.7344 11.5057 12.7017V10.1579C11.5057 9.12408 12.3636 8.28573 13.4216 8.28573H21.0841ZM15.3375 10.5167C14.8085 10.5167 14.3796 10.9307 14.3796 11.4402C14.3796 11.9496 14.8085 12.3636 15.3375 12.3636C15.8665 12.3636 16.2955 11.9496 16.2955 11.4402C16.2955 10.9307 15.8665 10.5156 15.3375 10.5156" fill="black"/>
</svg>
