<svg width="26" height="26" viewBox="0 0 26 26" fill="none" xmlns="http://www.w3.org/2000/svg">
<path d="M4.33242 11.2667V10.4H3.46576V11.2667H4.33242ZM11.2658 11.2667V10.4H10.3991V11.2667H11.2658ZM11.2658 18.2H10.3991V19.0667H11.2658V18.2ZM23.3991 6.06667H24.2658V5.70787L24.0127 5.45307L23.3991 6.06667ZM18.1991 0.866667L18.8127 0.253067L18.5579 0H18.1991V0.866667ZM4.33242 12.1333H6.06576V10.4H4.33242V12.1333ZM5.19909 19.0667V14.7333H3.46576V19.0667H5.19909ZM5.19909 14.7333V11.2667H3.46576V14.7333H5.19909ZM6.06576 13.8667H4.33242V15.6H6.06576V13.8667ZM6.93242 13C6.93242 13.2299 6.84111 13.4503 6.67858 13.6128C6.51605 13.7754 6.29561 13.8667 6.06576 13.8667V15.6C6.75532 15.6 7.41664 15.3261 7.90423 14.8385C8.39183 14.3509 8.66576 13.6896 8.66576 13H6.93242ZM6.06576 12.1333C6.29561 12.1333 6.51605 12.2246 6.67858 12.3872C6.84111 12.5497 6.93242 12.7701 6.93242 13H8.66576C8.66576 12.3104 8.39183 11.6491 7.90423 11.1615C7.41664 10.6739 6.75532 10.4 6.06576 10.4V12.1333ZM10.3991 11.2667V18.2H12.1324V11.2667H10.3991ZM11.2658 19.0667H12.9991V17.3333H11.2658V19.0667ZM15.5991 16.4667V13H13.8658V16.4667H15.5991ZM12.9991 10.4H11.2658V12.1333H12.9991V10.4ZM15.5991 13C15.5991 12.3104 15.3252 11.6491 14.8376 11.1615C14.35 10.6739 13.6887 10.4 12.9991 10.4V12.1333C13.2289 12.1333 13.4494 12.2246 13.6119 12.3872C13.7744 12.5497 13.8658 12.7701 13.8658 13H15.5991ZM12.9991 19.0667C13.6887 19.0667 14.35 18.7927 14.8376 18.3051C15.3252 17.8176 15.5991 17.1562 15.5991 16.4667H13.8658C13.8658 16.6965 13.7744 16.917 13.6119 17.0795C13.4494 17.242 13.2289 17.3333 12.9991 17.3333V19.0667ZM17.3324 10.4V19.0667H19.0658V10.4H17.3324ZM18.1991 12.1333H22.5324V10.4H18.1991V12.1333ZM18.1991 15.6H20.7991V13.8667H18.1991V15.6ZM3.46576 8.66667V2.6H1.73242V8.66667H3.46576ZM22.5324 6.06667V8.66667H24.2658V6.06667H22.5324ZM4.33242 1.73333H18.1991V0H4.33242V1.73333ZM17.5855 1.48027L22.7855 6.68027L24.0127 5.45307L18.8127 0.253067L17.5855 1.48027ZM3.46576 2.6C3.46576 2.37015 3.55706 2.14971 3.7196 1.98717C3.88213 1.82464 4.10257 1.73333 4.33242 1.73333V0C3.64286 0 2.98154 0.273928 2.49394 0.761522C2.00635 1.24912 1.73242 1.91044 1.73242 2.6H3.46576ZM1.73242 20.8V23.4H3.46576V20.8H1.73242ZM4.33242 26H21.6658V24.2667H4.33242V26ZM24.2658 23.4V20.8H22.5324V23.4H24.2658ZM21.6658 26C22.3553 26 23.0166 25.7261 23.5042 25.2385C23.9918 24.7509 24.2658 24.0896 24.2658 23.4H22.5324C22.5324 23.6299 22.4411 23.8503 22.2786 24.0128C22.1161 24.1754 21.8956 24.2667 21.6658 24.2667V26ZM1.73242 23.4C1.73242 24.0896 2.00635 24.7509 2.49394 25.2385C2.98154 25.7261 3.64286 26 4.33242 26V24.2667C4.10257 24.2667 3.88213 24.1754 3.7196 24.0128C3.55706 23.8503 3.46576 23.6299 3.46576 23.4H1.73242Z" fill="#6A1452"/>
</svg>
