<svg width="16" height="16" viewBox="0 0 16 16" fill="none" xmlns="http://www.w3.org/2000/svg">
<path d="M4.66732 9.00016C4.9451 9.00016 5.18132 8.90305 5.37599 8.70883C5.57065 8.51461 5.66776 8.27838 5.66732 8.00016C5.66687 7.72194 5.56976 7.48594 5.37599 7.29216C5.18221 7.09838 4.94599 7.00105 4.66732 7.00016C4.38865 6.99927 4.15265 7.09661 3.95932 7.29216C3.76599 7.48772 3.66865 7.72372 3.66732 8.00016C3.66599 8.27661 3.76332 8.51283 3.95932 8.70883C4.15532 8.90483 4.39132 9.00194 4.66732 9.00016ZM8.00065 9.00016C8.27843 9.00016 8.51465 8.90305 8.70932 8.70883C8.90399 8.51461 9.0011 8.27838 9.00065 8.00016C9.00021 7.72194 8.9031 7.48594 8.70932 7.29216C8.51554 7.09838 8.27932 7.00105 8.00065 7.00016C7.72199 6.99927 7.48598 7.09661 7.29265 7.29216C7.09932 7.48772 7.00199 7.72372 7.00065 8.00016C6.99932 8.27661 7.09665 8.51283 7.29265 8.70883C7.48865 8.90483 7.72465 9.00194 8.00065 9.00016ZM11.334 9.00016C11.6118 9.00016 11.848 8.90305 12.0427 8.70883C12.2373 8.51461 12.3344 8.27838 12.334 8.00016C12.3335 7.72194 12.2364 7.48594 12.0427 7.29216C11.8489 7.09838 11.6127 7.00105 11.334 7.00016C11.0553 6.99927 10.8193 7.09661 10.626 7.29216C10.4327 7.48772 10.3353 7.72372 10.334 8.00016C10.3327 8.27661 10.43 8.51283 10.626 8.70883C10.822 8.90483 11.058 9.00194 11.334 9.00016ZM8.00065 14.6668C7.07843 14.6668 6.21176 14.4917 5.40065 14.1415C4.58954 13.7913 3.88399 13.3164 3.28399 12.7168C2.68399 12.1173 2.2091 11.4117 1.85932 10.6002C1.50954 9.78861 1.33443 8.92194 1.33399 8.00016C1.33354 7.07838 1.50865 6.21172 1.85932 5.40016C2.20999 4.58861 2.68487 3.88305 3.28399 3.2835C3.8831 2.68394 4.58865 2.20905 5.40065 1.85883C6.21265 1.50861 7.07932 1.3335 8.00065 1.3335C8.92199 1.3335 9.78865 1.50861 10.6007 1.85883C11.4127 2.20905 12.1182 2.68394 12.7173 3.2835C13.3164 3.88305 13.7915 4.58861 14.1427 5.40016C14.4938 6.21172 14.6687 7.07838 14.6673 8.00016C14.666 8.92194 14.4909 9.78861 14.142 10.6002C13.7931 11.4117 13.3182 12.1173 12.7173 12.7168C12.1164 13.3164 11.4109 13.7915 10.6007 14.1422C9.79043 14.4928 8.92376 14.6677 8.00065 14.6668ZM8.00065 13.3335C9.48954 13.3335 10.7507 12.8168 11.784 11.7835C12.8173 10.7502 13.334 9.48905 13.334 8.00016C13.334 6.51127 12.8173 5.25016 11.784 4.21683C10.7507 3.1835 9.48954 2.66683 8.00065 2.66683C6.51176 2.66683 5.25065 3.1835 4.21732 4.21683C3.18399 5.25016 2.66732 6.51127 2.66732 8.00016C2.66732 9.48905 3.18399 10.7502 4.21732 11.7835C5.25065 12.8168 6.51176 13.3335 8.00065 13.3335Z" fill="white"/>
</svg>
