<svg width="31" height="31" viewBox="0 0 31 31" fill="none" xmlns="http://www.w3.org/2000/svg">
<path d="M24.3399 10.1719C24.1625 12.6343 22.3358 14.5312 20.3438 14.5312C18.3518 14.5312 16.5221 12.6349 16.3477 10.1719C16.1661 7.61014 17.9443 5.8125 20.3438 5.8125C22.7433 5.8125 24.5216 7.65676 24.3399 10.1719Z" stroke="black" stroke-width="2" stroke-linecap="round" stroke-linejoin="round"/>
<path d="M20.3435 18.4062C16.3977 18.4062 12.6032 20.3662 11.6526 24.183C11.5267 24.688 11.8433 25.1875 12.3622 25.1875H28.3254C28.8443 25.1875 29.1591 24.688 29.035 24.183C28.0844 20.305 24.29 18.4062 20.3435 18.4062Z" stroke="black" stroke-width="2" stroke-miterlimit="10"/>
<path d="M12.1096 11.2581C11.968 13.2246 10.4918 14.7734 8.90066 14.7734C7.30949 14.7734 5.83094 13.2253 5.69168 11.2581C5.54697 9.21221 6.98375 7.75 8.90066 7.75C10.8176 7.75 12.2544 9.24975 12.1096 11.2581Z" stroke="black" stroke-width="2" stroke-linecap="round" stroke-linejoin="round"/>
<path d="M12.4723 18.5273C11.3794 18.0266 10.1757 17.8341 8.90001 17.8341C5.75157 17.8341 2.71817 19.3992 1.95831 22.4478C1.8584 22.851 2.11149 23.25 2.52563 23.25H9.32383" stroke="black" stroke-width="2" stroke-miterlimit="10" stroke-linecap="round"/>
</svg>
