<svg width="25" height="25" viewBox="0 0 25 25" fill="none" xmlns="http://www.w3.org/2000/svg">
<path d="M20.7274 16.6666H8.22741C7.25866 16.6666 6.77428 16.6666 6.37637 16.7729C5.84648 16.915 5.36334 17.194 4.97551 17.5821C4.58768 17.9701 4.30883 18.4533 4.16699 18.9833" stroke="black" stroke-width="1.5"/>
<path d="M8.33366 7.29165H16.667M8.33366 10.9375H13.542M10.417 22.9166C7.47116 22.9166 5.9972 22.9166 5.08262 22.001C4.16699 21.0864 4.16699 19.6125 4.16699 16.6666V8.33331C4.16699 5.38748 4.16699 3.91352 5.08262 2.99894C5.9972 2.08331 7.47116 2.08331 10.417 2.08331H14.5837C17.5295 2.08331 19.0035 2.08331 19.918 2.99894C20.8337 3.91352 20.8337 5.38748 20.8337 8.33331M14.5837 22.9166C17.5295 22.9166 19.0035 22.9166 19.918 22.001C20.8337 21.0864 20.8337 19.6125 20.8337 16.6666V12.5" stroke="black" stroke-width="1.5" stroke-linecap="round"/>
</svg>
