<svg width="38" height="38" viewBox="0 0 38 38" fill="none" xmlns="http://www.w3.org/2000/svg">
<path d="M13.8894 21.6106L29.5 6M13.8894 21.6106L18.8564 31.5446C18.9187 31.6805 19.0186 31.7956 19.1444 31.8764C19.2702 31.9571 19.4165 32 19.566 32C19.7154 32 19.8617 31.9571 19.9875 31.8764C20.1133 31.7956 20.2133 31.6805 20.2755 31.5446L29.5 6M13.8894 21.6106L3.95536 16.6436C3.81949 16.5813 3.70435 16.4814 3.62363 16.3556C3.54291 16.2298 3.5 16.0835 3.5 15.934C3.5 15.7846 3.54291 15.6383 3.62363 15.5125C3.70435 15.3867 3.81949 15.2867 3.95536 15.2245L29.5 6" stroke="white" stroke-width="2" stroke-linecap="round" stroke-linejoin="round"/>
</svg>
