<svg width="26" height="26" viewBox="0 0 26 26" fill="none" xmlns="http://www.w3.org/2000/svg">
<path d="M3.25 4.46875C3.25 2.899 4.524 1.625 6.09375 1.625H10.1562C10.4795 1.625 10.7895 1.7534 11.018 1.98196C11.2466 2.21052 11.375 2.52052 11.375 2.84375C11.375 3.16698 11.2466 3.47698 11.018 3.70554C10.7895 3.9341 10.4795 4.0625 10.1562 4.0625H6.09375C5.98601 4.0625 5.88267 4.1053 5.80649 4.18149C5.7303 4.25767 5.6875 4.36101 5.6875 4.46875V21.5312C5.6875 21.7555 5.8695 21.9375 6.09375 21.9375H10.1562C10.4795 21.9375 10.7895 22.0659 11.018 22.2945C11.2466 22.523 11.375 22.833 11.375 23.1562C11.375 23.4795 11.2466 23.7895 11.018 24.018C10.7895 24.2466 10.4795 24.375 10.1562 24.375H6.09375C5.33954 24.375 4.61622 24.0754 4.08292 23.5421C3.54961 23.0088 3.25 22.2855 3.25 21.5312V4.46875ZM20.215 11.7812L17.0138 8.58C16.8533 8.43103 16.736 8.24155 16.6743 8.03152C16.6125 7.8215 16.6085 7.59869 16.6627 7.38659C16.717 7.17449 16.8274 6.98094 16.9824 6.82634C17.1374 6.67174 17.3313 6.56181 17.5435 6.50813C17.7554 6.454 17.9779 6.45787 18.1878 6.51935C18.3976 6.58082 18.5871 6.69762 18.7362 6.8575L24.0175 12.1388C24.2457 12.3673 24.3739 12.677 24.3739 13C24.3739 13.323 24.2457 13.6327 24.0175 13.8612L18.7362 19.1425C18.5873 19.3029 18.3978 19.4202 18.1878 19.482C17.9777 19.5438 17.7549 19.5477 17.5428 19.4935C17.3307 19.4393 17.1372 19.3288 16.9826 19.1738C16.828 19.0188 16.7181 18.825 16.6644 18.6128C16.6102 18.4009 16.6141 18.1784 16.6756 17.9685C16.7371 17.7586 16.8539 17.5692 17.0138 17.42L20.215 14.2188H10.9688C10.6455 14.2188 10.3355 14.0903 10.107 13.8618C9.8784 13.6332 9.75 13.3232 9.75 13C9.75 12.6768 9.8784 12.3668 10.107 12.1382C10.3355 11.9097 10.6455 11.7812 10.9688 11.7812H20.215Z" fill="white"/>
</svg>
