<svg width="25" height="25" viewBox="0 0 25 25" fill="none" xmlns="http://www.w3.org/2000/svg">
<path d="M5.625 7.1875C5.625 6.44158 5.92132 5.72621 6.44876 5.19876C6.97621 4.67132 7.69158 4.375 8.4375 4.375C9.18342 4.375 9.89879 4.67132 10.4262 5.19876C10.9537 5.72621 11.25 6.44158 11.25 7.1875C11.25 7.93342 10.9537 8.64879 10.4262 9.17624C9.89879 9.70368 9.18342 10 8.4375 10C7.69158 10 6.97621 9.70368 6.44876 9.17624C5.92132 8.64879 5.625 7.93342 5.625 7.1875ZM8.4375 3.125C7.36006 3.125 6.32675 3.55301 5.56488 4.31488C4.80301 5.07675 4.375 6.11006 4.375 7.1875C4.375 8.26494 4.80301 9.29825 5.56488 10.0601C6.32675 10.822 7.36006 11.25 8.4375 11.25C9.51494 11.25 10.5483 10.822 11.3101 10.0601C12.072 9.29825 12.5 8.26494 12.5 7.1875C12.5 6.11006 12.072 5.07675 11.3101 4.31488C10.5483 3.55301 9.51494 3.125 8.4375 3.125ZM12.5 12.5C13.1511 12.4997 13.7766 12.7535 14.2435 13.2073C14.7104 13.6611 14.9818 14.2792 15 14.93L13.23 16.6988C13.5054 16.2417 13.6802 15.7312 13.7425 15.2013C13.7467 15.1538 13.7487 15.1192 13.7487 15.0975L13.75 15.0763V15C13.75 14.6685 13.6183 14.3505 13.3839 14.1161C13.1495 13.8817 12.8315 13.75 12.5 13.75H4.375C4.04348 13.75 3.72554 13.8817 3.49112 14.1161C3.2567 14.3505 3.125 14.6685 3.125 15V15.0975L3.13375 15.2013C3.20158 15.8004 3.41532 16.3739 3.75625 16.8713C4.365 17.7512 5.64125 18.75 8.4375 18.75C10.3875 18.75 11.5988 18.2638 12.3588 17.6713C12.0975 18.0588 11.905 18.4875 11.7912 18.9437L11.6587 19.475C10.8062 19.8 9.7475 20 8.4375 20C5.29625 20 3.60375 18.85 2.7275 17.5825C2.26612 16.9103 1.97839 16.1343 1.89 15.3237C1.88287 15.251 1.87787 15.178 1.875 15.105V15C1.875 14.337 2.13839 13.7011 2.60723 13.2322C3.07607 12.7634 3.71196 12.5 4.375 12.5H12.5ZM21.25 8.125C21.25 8.9538 20.9208 9.74866 20.3347 10.3347C19.7487 10.9208 18.9538 11.25 18.125 11.25C17.2962 11.25 16.5013 10.9208 15.9153 10.3347C15.3292 9.74866 15 8.9538 15 8.125C15 7.2962 15.3292 6.50134 15.9153 5.91529C16.5013 5.32924 17.2962 5 18.125 5C18.9538 5 19.7487 5.32924 20.3347 5.91529C20.9208 6.50134 21.25 7.2962 21.25 8.125ZM16.25 8.125C16.25 8.62228 16.4475 9.09919 16.7992 9.45083C17.1508 9.80246 17.6277 10 18.125 10C18.6223 10 19.0992 9.80246 19.4508 9.45083C19.8025 9.09919 20 8.62228 20 8.125C20 7.62772 19.8025 7.15081 19.4508 6.79917C19.0992 6.44754 18.6223 6.25 18.125 6.25C17.6277 6.25 17.1508 6.44754 16.7992 6.79917C16.4475 7.15081 16.25 7.62772 16.25 8.125ZM19.7625 11.935L13.725 17.9725C13.3733 18.3243 13.1236 18.765 13.0025 19.2475L12.5338 21.12C12.4875 21.3062 12.4903 21.5013 12.5417 21.6861C12.5931 21.871 12.6914 22.0394 12.8272 22.175C12.9629 22.3107 13.1315 22.4089 13.3164 22.4601C13.5013 22.5114 13.6963 22.5139 13.8825 22.4675L15.755 22C16.2375 21.8789 16.6782 21.6292 17.03 21.2775L23.0675 15.24C23.5002 14.8004 23.7416 14.2076 23.7391 13.5908C23.7366 12.974 23.4904 12.3832 23.0541 11.9471C22.6179 11.5111 22.027 11.2651 21.4102 11.2628C20.7934 11.2605 20.2007 11.5022 19.7612 11.935" fill="black"/>
</svg>
