<svg width="26" height="26" viewBox="0 0 26 26" fill="none" xmlns="http://www.w3.org/2000/svg">
<path d="M16.2246 5.84079C16.2246 6.70141 15.8827 7.52678 15.2741 8.13533C14.6656 8.74388 13.8402 9.08576 12.9796 9.08576C12.119 9.08576 11.2936 8.74388 10.6851 8.13533C10.0765 7.52678 9.73464 6.70141 9.73464 5.84079C9.73464 4.98018 10.0765 4.1548 10.6851 3.54625C11.2936 2.9377 12.119 2.59583 12.9796 2.59583C13.8402 2.59583 14.6656 2.9377 15.2741 3.54625C15.8827 4.1548 16.2246 4.98018 16.2246 5.84079ZM22.7145 6.48979C22.7145 7.17828 22.441 7.83858 21.9542 8.32542C21.4673 8.81226 20.807 9.08576 20.1185 9.08576C19.43 9.08576 18.7697 8.81226 18.2829 8.32542C17.7961 7.83858 17.5226 7.17828 17.5226 6.48979C17.5226 5.80129 17.7961 5.141 18.2829 4.65416C18.7697 4.16732 19.43 3.89381 20.1185 3.89381C20.807 3.89381 21.4673 4.16732 21.9542 4.65416C22.441 5.141 22.7145 5.80129 22.7145 6.48979ZM5.84067 9.08576C6.52917 9.08576 7.18946 8.81226 7.6763 8.32542C8.16314 7.83858 8.43665 7.17828 8.43665 6.48979C8.43665 5.80129 8.16314 5.141 7.6763 4.65416C7.18946 4.16732 6.52917 3.89381 5.84067 3.89381C5.15218 3.89381 4.49188 4.16732 4.00504 4.65416C3.5182 5.141 3.2447 5.80129 3.2447 6.48979C3.2447 7.17828 3.5182 7.83858 4.00504 8.32542C4.49188 8.81226 5.15218 9.08576 5.84067 9.08576ZM7.78765 12.0062C7.78765 11.1106 8.51453 10.3838 9.41014 10.3838H16.5491C17.4447 10.3838 18.1716 11.1106 18.1716 12.0062V18.1717C18.1716 19.5487 17.6245 20.8693 16.6509 21.8429C15.6772 22.8166 14.3566 23.3636 12.9796 23.3636C11.6026 23.3636 10.282 22.8166 9.30834 21.8429C8.33466 20.8693 7.78765 19.5487 7.78765 18.1717V12.0062ZM6.48967 12.0062C6.48967 11.4053 6.67138 10.8484 6.9816 10.3838H4.21819C3.32258 10.3838 2.5957 11.1106 2.5957 12.0062V16.8737C2.59564 17.4294 2.71452 17.9787 2.94434 18.4846C3.17417 18.9905 3.50962 19.4414 3.92816 19.807C4.3467 20.1725 4.83862 20.4442 5.37089 20.6039C5.90315 20.7636 6.46342 20.8074 7.01405 20.7326C6.66737 19.9234 6.48895 19.0521 6.48967 18.1717V12.0062ZM19.4695 18.1717C19.4695 19.0803 19.2826 19.9473 18.9452 20.7326C19.1165 20.756 19.2913 20.7677 19.4695 20.7677C20.5023 20.7677 21.4927 20.3574 22.223 19.6271C22.9533 18.8969 23.3635 17.9064 23.3635 16.8737V12.0062C23.3635 11.1106 22.6366 10.3838 21.741 10.3838H18.9776C19.2891 10.8484 19.4695 11.4053 19.4695 12.0062V18.1717Z" fill="white"/>
</svg>
