<svg width="26" height="26" viewBox="0 0 26 26" fill="none" xmlns="http://www.w3.org/2000/svg">
<path d="M16.2246 5.84067C16.2246 6.70129 15.8827 7.52666 15.2741 8.13521C14.6656 8.74376 13.8402 9.08564 12.9796 9.08564C12.119 9.08564 11.2936 8.74376 10.6851 8.13521C10.0765 7.52666 9.73464 6.70129 9.73464 5.84067C9.73464 4.98005 10.0765 4.15468 10.6851 3.54613C11.2936 2.93758 12.119 2.5957 12.9796 2.5957C13.8402 2.5957 14.6656 2.93758 15.2741 3.54613C15.8827 4.15468 16.2246 4.98005 16.2246 5.84067ZM22.7145 6.48967C22.7145 7.17816 22.441 7.83846 21.9542 8.3253C21.4673 8.81214 20.807 9.08564 20.1185 9.08564C19.43 9.08564 18.7697 8.81214 18.2829 8.3253C17.7961 7.83846 17.5226 7.17816 17.5226 6.48967C17.5226 5.80117 17.7961 5.14087 18.2829 4.65403C18.7697 4.16719 19.43 3.89369 20.1185 3.89369C20.807 3.89369 21.4673 4.16719 21.9542 4.65403C22.441 5.14087 22.7145 5.80117 22.7145 6.48967ZM5.84067 9.08564C6.52917 9.08564 7.18946 8.81214 7.6763 8.3253C8.16314 7.83846 8.43665 7.17816 8.43665 6.48967C8.43665 5.80117 8.16314 5.14087 7.6763 4.65403C7.18946 4.16719 6.52917 3.89369 5.84067 3.89369C5.15218 3.89369 4.49188 4.16719 4.00504 4.65403C3.5182 5.14087 3.2447 5.80117 3.2447 6.48967C3.2447 7.17816 3.5182 7.83846 4.00504 8.3253C4.49188 8.81214 5.15218 9.08564 5.84067 9.08564ZM7.78765 12.0061C7.78765 11.1105 8.51453 10.3836 9.41014 10.3836H16.5491C17.4447 10.3836 18.1716 11.1105 18.1716 12.0061V18.1716C18.1716 19.5485 17.6245 20.8691 16.6509 21.8428C15.6772 22.8165 14.3566 23.3635 12.9796 23.3635C11.6026 23.3635 10.282 22.8165 9.30834 21.8428C8.33466 20.8691 7.78765 19.5485 7.78765 18.1716V12.0061ZM6.48967 12.0061C6.48967 11.4051 6.67138 10.8483 6.9816 10.3836H4.21819C3.32258 10.3836 2.5957 11.1105 2.5957 12.0061V16.8736C2.59564 17.4293 2.71452 17.9785 2.94434 18.4845C3.17417 18.9904 3.50962 19.4413 3.92816 19.8068C4.3467 20.1724 4.83862 20.4441 5.37089 20.6038C5.90315 20.7634 6.46342 20.8073 7.01405 20.7325C6.66737 19.9232 6.48895 19.0519 6.48967 18.1716V12.0061ZM19.4695 18.1716C19.4695 19.0801 19.2826 19.9472 18.9452 20.7325C19.1165 20.7558 19.2913 20.7675 19.4695 20.7675C20.5023 20.7675 21.4927 20.3573 22.223 19.627C22.9533 18.8968 23.3635 17.9063 23.3635 16.8736V12.0061C23.3635 11.1105 22.6366 10.3836 21.741 10.3836H18.9776C19.2891 10.8483 19.4695 11.4051 19.4695 12.0061V18.1716Z" fill="white"/>
</svg>
