<svg width="50" height="50" viewBox="0 0 50 50" fill="none" xmlns="http://www.w3.org/2000/svg">
<circle cx="25" cy="25" r="25" fill="#FF49C1" fill-opacity="0.2"/>
<g clip-path="url(#clip0_2603_1471)">
<path d="M16.6328 23.5835C19.5453 23.5835 21.9062 21.2225 21.9062 18.3101C21.9062 15.3976 19.5453 13.0366 16.6328 13.0366C13.7204 13.0366 11.3594 15.3976 11.3594 18.3101C11.3594 21.2225 13.7204 23.5835 16.6328 23.5835Z" fill="#FF49C1"/>
<path d="M22.6387 26.5132C20.5762 25.4658 18.2998 25.0483 16.6328 25.0483C13.3677 25.0483 6.67188 27.0508 6.67188 31.0542V34.1304H17.6582V32.9534C17.6582 31.5618 18.2441 30.1665 19.2695 29.0034C20.0876 28.0747 21.2332 27.2126 22.6387 26.5132Z" fill="#FF49C1"/>
<path d="M30.4023 25.9272C26.5886 25.9272 18.9766 28.2827 18.9766 32.9585V36.4741H41.8281V32.9585C41.8281 28.2827 34.2161 25.9272 30.4023 25.9272Z" fill="#FF49C1"/>
<path d="M30.4023 23.5835C33.962 23.5835 36.8477 20.6978 36.8477 17.1382C36.8477 13.5785 33.962 10.6929 30.4023 10.6929C26.8427 10.6929 23.957 13.5785 23.957 17.1382C23.957 20.6978 26.8427 23.5835 30.4023 23.5835Z" fill="#FF49C1"/>
</g>
<defs>
<clipPath id="clip0_2603_1471">
<rect width="46" height="39" fill="white" transform="translate(2 3.3335)"/>
</clipPath>
</defs>
</svg>
