<svg width="23" height="23" viewBox="0 0 23 23" fill="none" xmlns="http://www.w3.org/2000/svg">
<g clip-path="url(#clip0_2442_1395)">
<path d="M5.25233 1.90894C5.16746 1.79977 5.06035 1.70992 4.93809 1.64533C4.81583 1.58075 4.68123 1.54292 4.54323 1.53435C4.40523 1.52579 4.26699 1.54668 4.13768 1.59565C4.00838 1.64462 3.89097 1.72054 3.79326 1.81837L2.30689 3.30619C1.61258 4.00194 1.3567 4.98662 1.66001 5.85056C2.92031 9.42578 4.96792 12.6721 7.65151 15.3496C10.329 18.0331 13.5753 20.0808 17.1505 21.3411C18.0145 21.6444 18.9991 21.3885 19.6949 20.6942L21.1813 19.2078C21.2791 19.1101 21.355 18.9927 21.404 18.8634C21.453 18.7341 21.4738 18.5958 21.4653 18.4578C21.4567 18.3198 21.4189 18.1852 21.3543 18.063C21.2897 17.9407 21.1999 17.8336 21.0907 17.7487L17.7744 15.1699C17.6577 15.0796 17.522 15.0169 17.3776 14.9866C17.2332 14.9562 17.0838 14.9589 16.9406 14.9945L13.7925 15.7808C13.3723 15.8851 12.9322 15.8792 12.5149 15.7636C12.0976 15.648 11.7173 15.4267 11.4106 15.121L7.88008 11.5891C7.57415 11.2825 7.35254 10.9022 7.23669 10.4849C7.12085 10.0676 7.11469 9.62749 7.21883 9.20712L8.00658 6.059C8.04217 5.9158 8.04488 5.7664 8.0145 5.62201C7.98413 5.47762 7.92146 5.34197 7.8312 5.22525L5.25233 1.90894ZM2.70795 0.734498C2.95951 0.482863 3.26172 0.287623 3.59451 0.161743C3.92731 0.0358619 4.28308 -0.0177789 4.6382 0.00438202C4.99332 0.0265429 5.33966 0.123998 5.65422 0.290277C5.96879 0.456556 6.24438 0.687854 6.4627 0.968811L9.04158 4.28369C9.51451 4.89175 9.68126 5.68381 9.49439 6.43131L8.70808 9.57944C8.66771 9.74251 8.67004 9.91323 8.71486 10.0751C8.75968 10.237 8.84547 10.3847 8.96395 10.5037L12.4959 14.0357C12.6151 14.1544 12.763 14.2403 12.9252 14.2852C13.0874 14.33 13.2584 14.3322 13.4216 14.2916L16.5683 13.5052C16.9372 13.4135 17.3222 13.4067 17.6941 13.4851C18.0661 13.5635 18.4155 13.7252 18.716 13.9581L22.0308 16.5369C23.2225 17.4641 23.3318 19.2251 22.2651 20.2902L20.7788 21.7766C19.715 22.8404 18.1251 23.3076 16.6431 22.7857C12.849 21.4526 9.4046 19.2808 6.5662 16.432C3.71761 13.594 1.54581 10.1501 0.21245 6.35656C-0.307925 4.87594 0.159263 3.28462 1.22301 2.22087L2.70795 0.734498Z" fill="black"/>
<path fill-rule="evenodd" clip-rule="evenodd" d="M17.9688 1.4375C18.1594 1.4375 18.3422 1.51323 18.477 1.64802C18.6118 1.78281 18.6875 1.96563 18.6875 2.15625V4.3125H20.8438C21.0344 4.3125 21.2172 4.38823 21.352 4.52302C21.4868 4.65781 21.5625 4.84063 21.5625 5.03125C21.5625 5.22187 21.4868 5.40469 21.352 5.53948C21.2172 5.67427 21.0344 5.75 20.8438 5.75H18.6875V7.90625C18.6875 8.09687 18.6118 8.27969 18.477 8.41448C18.3422 8.54927 18.1594 8.625 17.9688 8.625C17.7781 8.625 17.5953 8.54927 17.4605 8.41448C17.3257 8.27969 17.25 8.09687 17.25 7.90625V5.75H15.0938C14.9031 5.75 14.7203 5.67427 14.5855 5.53948C14.4507 5.40469 14.375 5.22187 14.375 5.03125C14.375 4.84063 14.4507 4.65781 14.5855 4.52302C14.7203 4.38823 14.9031 4.3125 15.0938 4.3125H17.25V2.15625C17.25 1.96563 17.3257 1.78281 17.4605 1.64802C17.5953 1.51323 17.7781 1.4375 17.9688 1.4375Z" fill="black"/>
</g>
<defs>
<clipPath id="clip0_2442_1395">
<rect width="23" height="23" fill="white"/>
</clipPath>
</defs>
</svg>
