<svg width="25" height="25" viewBox="0 0 25 25" fill="none" xmlns="http://www.w3.org/2000/svg">
<path d="M19.7913 4.16665H17.708V3.12498C17.708 2.84871 17.5983 2.58376 17.4029 2.38841C17.2076 2.19306 16.9426 2.08331 16.6663 2.08331C16.3901 2.08331 16.1251 2.19306 15.9298 2.38841C15.7344 2.58376 15.6247 2.84871 15.6247 3.12498V4.16665H9.37467V3.12498C9.37467 2.84871 9.26493 2.58376 9.06958 2.38841C8.87423 2.19306 8.60928 2.08331 8.33301 2.08331C8.05674 2.08331 7.79179 2.19306 7.59644 2.38841C7.40109 2.58376 7.29134 2.84871 7.29134 3.12498V4.16665H5.20801C4.37921 4.16665 3.58435 4.49589 2.9983 5.08194C2.41225 5.66799 2.08301 6.46285 2.08301 7.29165V19.7916C2.08301 20.6204 2.41225 21.4153 2.9983 22.0014C3.58435 22.5874 4.37921 22.9166 5.20801 22.9166H19.7913C20.6201 22.9166 21.415 22.5874 22.0011 22.0014C22.5871 21.4153 22.9163 20.6204 22.9163 19.7916V7.29165C22.9163 6.46285 22.5871 5.66799 22.0011 5.08194C21.415 4.49589 20.6201 4.16665 19.7913 4.16665ZM20.833 19.7916C20.833 20.0679 20.7233 20.3329 20.5279 20.5282C20.3326 20.7236 20.0676 20.8333 19.7913 20.8333H5.20801C4.93174 20.8333 4.66679 20.7236 4.47144 20.5282C4.27609 20.3329 4.16634 20.0679 4.16634 19.7916V12.5H20.833V19.7916ZM20.833 10.4166H4.16634V7.29165C4.16634 7.01538 4.27609 6.75043 4.47144 6.55508C4.66679 6.35973 4.93174 6.24998 5.20801 6.24998H7.29134V7.29165C7.29134 7.56791 7.40109 7.83287 7.59644 8.02822C7.79179 8.22357 8.05674 8.33331 8.33301 8.33331C8.60928 8.33331 8.87423 8.22357 9.06958 8.02822C9.26493 7.83287 9.37467 7.56791 9.37467 7.29165V6.24998H15.6247V7.29165C15.6247 7.56791 15.7344 7.83287 15.9298 8.02822C16.1251 8.22357 16.3901 8.33331 16.6663 8.33331C16.9426 8.33331 17.2076 8.22357 17.4029 8.02822C17.5983 7.83287 17.708 7.56791 17.708 7.29165V6.24998H19.7913C20.0676 6.24998 20.3326 6.35973 20.5279 6.55508C20.7233 6.75043 20.833 7.01538 20.833 7.29165V10.4166Z" fill="black"/>
</svg>
