<svg width="81" height="81" viewBox="0 0 81 81" fill="none" xmlns="http://www.w3.org/2000/svg">
<path d="M10.0068 36.6906C10.0068 24.1125 10.0068 17.8217 13.9161 13.9158C17.8253 10.0099 24.1127 10.0066 36.6909 10.0066H43.3619C55.9401 10.0066 62.2309 10.0066 66.1367 13.9158C70.0426 17.825 70.046 24.1125 70.046 36.6906V43.3617C70.046 55.9399 70.046 62.2306 66.1367 66.1365C62.2275 70.0424 55.9401 70.0457 43.3619 70.0457H36.6909C24.1127 70.0457 17.8219 70.0457 13.9161 66.1365C10.0102 62.2273 10.0068 55.9399 10.0068 43.3617V36.6906Z" stroke="#44113E" stroke-width="1.33333"/>
<path fill-rule="evenodd" clip-rule="evenodd" d="M63.3758 45.3125L63.3091 45.2458C62.0083 43.9449 60.8875 42.8242 59.8869 41.9803C58.8295 41.0897 57.6788 40.3059 56.2578 39.8789C54.374 39.311 52.3646 39.311 50.4807 39.8789C49.0598 40.3092 47.9124 41.0897 46.8517 41.9803C45.8511 42.8242 44.7303 43.9483 43.4328 45.2491L43.3361 45.3425C42.3121 46.3632 41.7117 46.9636 41.2414 47.3471L41.1747 47.4038L41.1346 47.3271C40.8445 46.7934 40.5042 46.0163 39.9339 44.6854L39.7571 44.2718L39.6837 44.0984C38.4963 41.3299 37.4989 39.0017 36.515 37.2472C35.4976 35.4427 34.2302 33.7449 32.2555 32.7576C30.6081 31.9324 28.7647 31.578 26.9287 31.7336C24.7273 31.9171 22.9228 33.0211 21.3084 34.3186C19.9542 35.4094 18.4399 36.887 16.6787 38.6448V43.3612C16.6787 45.0823 16.682 46.6511 16.6887 48.0676L20.4045 44.3519C22.706 42.0504 24.2403 40.526 25.4911 39.5154C26.7253 38.5214 27.2589 38.398 27.4924 38.3813C28.104 38.3293 28.718 38.447 29.2669 38.7215C29.4704 38.8249 29.9207 39.1351 30.7012 40.5227C31.4884 41.9236 32.3456 43.9116 33.6264 46.9002L33.8032 47.3138L33.8599 47.4405C34.3569 48.6013 34.8172 49.6753 35.2775 50.5225C35.7611 51.4065 36.4616 52.4671 37.6424 53.1976C39.0336 54.0597 40.6932 54.3802 42.3054 54.0982C43.673 53.8547 44.717 53.1309 45.4942 52.4905C46.2346 51.8768 47.0618 51.0496 47.9558 50.1556L48.0558 50.0556C49.4734 48.638 50.394 47.7207 51.1512 47.0836C51.8783 46.4699 52.2185 46.3231 52.4053 46.2664C53.034 46.0767 53.7046 46.0767 54.3332 46.2664C54.52 46.3231 54.8603 46.4699 55.5874 47.0836C56.3446 47.7207 57.2652 48.638 58.6861 50.0589L63.189 54.5618C63.3425 52.167 63.3691 49.1917 63.3758 45.3125Z" fill="#44113E"/>
<path d="M55.0365 30.0193C57.7997 30.0193 60.0397 27.7793 60.0397 25.0161C60.0397 22.2529 57.7997 20.0128 55.0365 20.0128C52.2732 20.0128 50.0332 22.2529 50.0332 25.0161C50.0332 27.7793 52.2732 30.0193 55.0365 30.0193Z" fill="#44113E"/>
</svg>
