<?xml version="1.0" encoding="UTF-8"?>
<svg version="1.1" xmlns="http://www.w3.org/2000/svg" width="64" height="64">
<path d="M0 0 C1.32 0 2.64 0 4 0 C3.50117447 4.42225032 2.11474855 6.38961762 -0.99731445 9.51489258 C-2.26917351 10.8056646 -2.26917351 10.8056646 -3.56672668 12.12251282 C-4.48958969 13.0372789 -5.4124527 13.95204498 -6.36328125 14.89453125 C-7.31692605 15.85087178 -8.2699765 16.80780532 -9.22245789 17.76530457 C-11.21763233 19.76636741 -13.2198403 21.76003837 -15.22729492 23.7487793 C-17.80005794 26.29872221 -20.35440391 28.86624531 -22.90377522 31.43954945 C-24.8671068 33.41733041 -26.83986018 35.38549088 -28.81560326 37.35086632 C-30.22128592 38.75258386 -31.61891709 40.16236061 -33.01643372 41.57221985 C-33.87379623 42.41697372 -34.73115875 43.2617276 -35.61450195 44.13208008 C-36.36649368 44.88088943 -37.11848541 45.62969879 -37.89326477 46.40119934 C-40 48 -40 48 -44 48 C-43.46292236 44.13304097 -42.41445371 42.02939501 -40 39 C-40.61488281 38.46890625 -41.22976562 37.9378125 -41.86328125 37.390625 C-42.67152344 36.68421875 -43.47976562 35.9778125 -44.3125 35.25 C-45.11300781 34.55390625 -45.91351563 33.8578125 -46.73828125 33.140625 C-51.81150519 28.33902445 -51.81150519 28.33902445 -52.4140625 24.05859375 C-51.61687276 18.16991861 -47.33435227 14.74974617 -43 11 C-32.81224418 3.81239784 -24.0402794 2.9415139 -12 4 C-10.73414063 4.22558594 -9.46828125 4.45117188 -8.1640625 4.68359375 C-7.11992188 4.78800781 -6.07578125 4.89242188 -5 5 C-2.29151077 2.62494782 -2.29151077 2.62494782 0 0 Z M-44 20 C-45.02355497 21.3153376 -46.03070725 22.64417946 -47 24 C-45.92173635 25.27513763 -44.83714481 26.54492569 -43.75 27.8125 C-43.14671875 28.52019531 -42.5434375 29.22789063 -41.921875 29.95703125 C-40.07629602 31.91889671 -38.20054668 33.45669625 -36 35 C-33.9837767 34.28436734 -33.9837767 34.28436734 -32 33 C-30.89499206 29.94775246 -31.00460867 27.27051282 -31.1875 24.0625 C-31.2368434 20.34529713 -31.13345762 19.21798077 -29.125 15.9375 C-24.76848447 11.9653829 -20.61531147 13.04544183 -14.96875 13.2578125 C-13.9890625 13.17273438 -13.009375 13.08765625 -12 13 C-11.34 12.01 -10.68 11.02 -10 10 C-23.28669288 5.57110237 -34.77469191 10.48248758 -44 20 Z M-25.375 18.625 C-27.4131192 21.6037896 -27.32152515 23.46322336 -27 27 C-21.46961507 22.50830072 -21.46961507 22.50830072 -17 17 C-20.53677664 16.67847485 -22.3962104 16.5868808 -25.375 18.625 Z " fill="#9E9E9E" transform="translate(52,8)"/>
<path d="M0 0 C4.84588371 1.17475969 7.38832597 4.20739785 10.64453125 7.734375 C12.45508062 10.76065348 12.49923471 12.52318687 12 16 C6.99833969 24.10145473 -0.94478456 29.49653646 -9.81640625 32.64453125 C-13.24137346 33.20208405 -16.66546007 33.1435664 -20.125 33.125 C-20.85332031 33.12886719 -21.58164062 33.13273437 -22.33203125 33.13671875 C-27.74657931 33.12671034 -27.74657931 33.12671034 -30 32 C-29.44140625 30.03125 -29.44140625 30.03125 -28 28 C-24.83984375 27.53125 -24.83984375 27.53125 -20.9375 27.5 C-10.98332385 27.1523075 -5.0304061 24.29187506 2.46875 17.87890625 C4.39142744 15.51970255 4.91966517 14.04327224 5 11 C3.61460634 8.89026066 3.61460634 8.89026066 1.5625 7.1875 C0.90378906 6.58292969 0.24507812 5.97835938 -0.43359375 5.35546875 C-0.95050781 4.90816406 -1.46742187 4.46085937 -2 4 C-1.34 2.68 -0.68 1.36 0 0 Z " fill="#9E9E9E" transform="translate(52,19)"/>
<path d="M0 0 C0.76140684 7.61406844 0.76140684 7.61406844 -1.04296875 10.8984375 C-2.82353782 13.03929768 -4.49514224 14.74757112 -7 16 C-8.54023996 16.06950541 -10.08334988 16.08452357 -11.625 16.0625 C-12.85089844 16.04896484 -12.85089844 16.04896484 -14.1015625 16.03515625 C-14.72804688 16.02355469 -15.35453125 16.01195313 -16 16 C-12.60450997 11.22116219 -12.60450997 11.22116219 -9.4375 10.0625 C-5.98566144 8.55785242 -5.50542721 6.35299698 -4 3 C-1.4 0 -1.4 0 0 0 Z " fill="#9E9E9E" transform="translate(44,28)"/>
</svg>
