<svg width="24" height="24" viewBox="0 0 24 24" fill="none" xmlns="http://www.w3.org/2000/svg">
<g clip-path="url(#clip0_2148_52)">
<path d="M6.15271 4H10.6427L12.0897 7.618L9.76471 9.168C9.6278 9.25935 9.51555 9.38308 9.43792 9.52822C9.36029 9.67335 9.31969 9.83541 9.31971 10C9.32271 10.094 9.31971 10.001 9.31971 10.001V10.022C9.32022 10.0667 9.32222 10.1114 9.32571 10.156C9.33105 10.2387 9.34271 10.3487 9.36071 10.486C9.39971 10.756 9.47471 11.128 9.62071 11.566C9.91471 12.446 10.4907 13.585 11.6127 14.707C12.7347 15.829 13.8737 16.405 14.7527 16.699C15.1917 16.845 15.5627 16.919 15.8347 16.959C15.9881 16.9813 16.1427 16.9947 16.2977 16.999L16.3107 17H16.3187C16.3187 17 16.4307 16.994 16.3197 17C16.5054 16.9999 16.6873 16.9481 16.8452 16.8504C17.0031 16.7528 17.1307 16.6131 17.2137 16.447L17.8837 15.107L22.3197 15.847V20.167C20.2087 20.472 14.5067 20.773 10.0267 16.293C5.54671 11.813 5.84671 6.11 6.15271 4ZM11.3927 10.486L13.1997 9.282C13.5815 9.02737 13.864 8.64922 14 8.21096C14.1361 7.77271 14.1172 7.30102 13.9467 6.875L12.4997 3.257C12.3512 2.88591 12.095 2.56781 11.764 2.34376C11.433 2.11971 11.0424 1.99997 10.6427 2H6.10071C5.19171 2 4.33671 2.631 4.18771 3.617C3.84771 5.859 3.38671 12.481 8.61271 17.707C13.8387 22.933 20.4607 22.471 22.7027 22.132C23.6887 21.982 24.3197 21.128 24.3197 20.219V15.847C24.3198 15.3736 24.1519 14.9155 23.8459 14.5542C23.5399 14.1929 23.1157 13.9519 22.6487 13.874L18.2127 13.135C17.7908 13.0646 17.3574 13.1313 16.9762 13.3253C16.595 13.5193 16.2861 13.8304 16.0947 14.213L15.7487 14.906C15.6264 14.8756 15.5053 14.8406 15.3857 14.801C14.7657 14.595 13.9047 14.171 13.0267 13.293C12.1487 12.415 11.7247 11.554 11.5187 10.933C11.4702 10.786 11.4284 10.6369 11.3937 10.486H11.3927Z" fill="#44113E"/>
</g>
<defs>
<clipPath id="clip0_2148_52">
<rect width="24" height="24" fill="white"/>
</clipPath>
</defs>
</svg>
