<svg width="105" height="98" viewBox="0 0 105 98" fill="none" xmlns="http://www.w3.org/2000/svg">
<g opacity="0.9">
<path d="M43 24C50.6242 16.0708 15 -1 15 -1V-4H105L110.5 76.5C110.5 76.5 112.618 84.4737 109.461 86.5C108.543 87.0898 107.876 87.5751 107.413 87.9712C103.003 91.7449 117.068 87.4076 107.413 87.9712C107.268 87.9797 107.118 87.9893 106.961 88C94.5904 88.8511 86 72.9444 71.5 66.5C66.2875 64.1833 30.5 37 43 24Z" fill="url(#paint0_linear_2600_1115)"/>
<path d="M31.8209 26.7679C39.0641 17.7692 0.274156 3.14159 0.274156 3.14159L0 0L94.0566 -8.20801L107.161 75.5898C107.161 75.5898 110.103 83.7467 106.99 86.1565C106.083 86.8579 105.431 87.427 104.984 87.8839C100.719 92.2381 115.022 86.4133 104.984 87.8839C104.833 87.9061 104.676 87.9298 104.514 87.9553C91.6631 89.9749 81.2318 74.1009 65.4893 68.6747C59.8302 66.724 19.9454 41.5215 31.8209 26.7679Z" fill="url(#paint1_linear_2600_1115)"/>
<path d="M57.5 26C65.1242 18.0708 31 -5 31 -5V-8H121L126.5 72.5C126.5 72.5 118.156 65.9737 115 68C105.196 74.2938 116 96.5 103 89.5C92.0819 83.621 83.5 69.5 70 63.5C64.7875 61.1833 45 39 57.5 26Z" fill="url(#paint2_linear_2600_1115)"/>
</g>
<defs>
<linearGradient id="paint0_linear_2600_1115" x1="15" y1="42.765" x2="109" y2="43" gradientUnits="userSpaceOnUse">
<stop stop-color="#FFF7AD"/>
<stop offset="0.25" stop-color="#FFB3AE"/>
<stop offset="0.5" stop-color="#FF49C1"/>
<stop offset="0.75" stop-color="#6A1452"/>
<stop offset="1" stop-color="#44113E"/>
</linearGradient>
<linearGradient id="paint1_linear_2600_1115" x1="0" y1="0" x2="106.681" y2="91.9527" gradientUnits="userSpaceOnUse">
<stop stop-color="#FFF7AD" stop-opacity="0.8"/>
<stop offset="0.5" stop-color="#FF49C1" stop-opacity="0.3"/>
<stop offset="1" stop-color="#6A1452" stop-opacity="0"/>
</linearGradient>
<linearGradient id="paint2_linear_2600_1115" x1="31" y1="-8" x2="102.207" y2="-35.8625" gradientUnits="userSpaceOnUse">
<stop stop-color="#6A1452"/>
<stop offset="0.718029" stop-color="#FF1493"/>
<stop offset="1" stop-color="#FFD700"/>
</linearGradient>
</defs>
</svg>
