<svg width="328" height="310" viewBox="0 0 328 310" fill="none" xmlns="http://www.w3.org/2000/svg">
<g filter="url(#filter0_d_2603_3466)">
<rect x="4" width="319.765" height="302" rx="151" fill="#FFF7AD" fill-opacity="0.1" shape-rendering="crispEdges"/>
<rect x="4.5" y="0.5" width="318.765" height="301" rx="150.5" stroke="white" shape-rendering="crispEdges"/>
<rect width="32.9263" height="117.736" rx="16.4632" transform="matrix(0.759183 0.650878 -0.656322 0.754481 135.767 52.522)" fill="url(#paint0_linear_2603_3466)"/>
<rect width="32.954" height="111.469" rx="16.477" transform="matrix(-0.272435 0.962174 -0.964318 -0.264747 178.991 150.261)" fill="url(#paint1_linear_2603_3466)"/>
<rect width="36.0952" height="124.679" rx="18.0476" transform="matrix(-0.647607 0.761974 0.729177 0.684326 184.615 87.6528)" fill="url(#paint2_linear_2603_3466)"/>
<rect width="35.8945" height="118.835" rx="17.9473" transform="matrix(0.365935 0.93064 0.909276 -0.416194 151.491 201.863)" fill="url(#paint3_linear_2603_3466)"/>
</g>
<defs>
<filter id="filter0_d_2603_3466" x="0" y="0" width="327.765" height="310" filterUnits="userSpaceOnUse" color-interpolation-filters="sRGB">
<feFlood flood-opacity="0" result="BackgroundImageFix"/>
<feColorMatrix in="SourceAlpha" type="matrix" values="0 0 0 0 0 0 0 0 0 0 0 0 0 0 0 0 0 0 127 0" result="hardAlpha"/>
<feOffset dy="4"/>
<feGaussianBlur stdDeviation="2"/>
<feComposite in2="hardAlpha" operator="out"/>
<feColorMatrix type="matrix" values="0 0 0 0 0 0 0 0 0 0 0 0 0 0 0 0 0 0 0.25 0"/>
<feBlend mode="normal" in2="BackgroundImageFix" result="effect1_dropShadow_2603_3466"/>
<feBlend mode="normal" in="SourceGraphic" in2="effect1_dropShadow_2603_3466" result="shape"/>
</filter>
<linearGradient id="paint0_linear_2603_3466" x1="0" y1="0" x2="61.0759" y2="17.0806" gradientUnits="userSpaceOnUse">
<stop stop-color="#FF49C1"/>
<stop offset="1" stop-color="#6A1452"/>
</linearGradient>
<linearGradient id="paint1_linear_2603_3466" x1="0" y1="0" x2="60.6106" y2="17.9186" gradientUnits="userSpaceOnUse">
<stop stop-color="#FF49C1"/>
<stop offset="1" stop-color="#6A1452"/>
</linearGradient>
<linearGradient id="paint2_linear_2603_3466" x1="0" y1="0" x2="66.6079" y2="19.2833" gradientUnits="userSpaceOnUse">
<stop stop-color="#FF49C1"/>
<stop offset="1" stop-color="#6A1452"/>
</linearGradient>
<linearGradient id="paint3_linear_2603_3466" x1="0" y1="0" x2="65.7868" y2="19.8712" gradientUnits="userSpaceOnUse">
<stop stop-color="#FF49C1"/>
<stop offset="1" stop-color="#6A1452"/>
</linearGradient>
</defs>
</svg>
