<svg width="1279" height="944" viewBox="0 0 1279 944" fill="none" xmlns="http://www.w3.org/2000/svg">
<g clip-path="url(#clip0_3330_3720)">
<rect width="1279" height="944" fill="white"/>
<rect width="1280" height="801" transform="translate(-1 -2)" fill="url(#paint0_linear_3330_3720)"/>
<path d="M1281 693V843.047C1281 843.047 1196.77 883.452 1135.08 893.412C1078.47 902.553 1069.4 910.303 1011.65 907.369C973.28 905.42 934.414 900.851 897.219 893.412C844.4 882.848 819.543 867.633 766.793 856.871C707.636 844.802 666.608 844.394 605.385 843.047C564.409 842.145 404 867.268 404 867.268C404 867.268 521.615 820.837 596.737 805.878C670.599 791.171 703.829 776.898 774.789 766.974C812.466 761.705 859.417 762.542 897.219 766.974C932.894 771.156 949.172 774.25 985.169 772.213C1045.18 768.817 1070.27 771.694 1126.49 755.38C1193.1 736.049 1281 693 1281 693Z" fill="url(#paint1_linear_3330_3720)"/>
<path d="M157.552 844.735C98.077 833.055 0.5 799.5 0.5 799.5C0.5 799.5 54.3164 829.557 157.552 857.405C196.88 868.013 285.982 876.661 341.287 873.242C422.853 868.199 463.577 854.652 541.614 833.649C606.373 816.219 643.359 799.331 709.986 788.25C767.567 778.673 796.378 770.052 855.008 768.718C905.385 767.571 933.657 775.58 984.052 775.58C1027.49 775.58 1060.01 775.82 1102.65 768.718C1146.71 761.38 1162.25 756.664 1201.58 738.099C1237.11 721.329 1281 693 1281 693V548C1268.28 563.462 1261.62 569.019 1248.9 584.481C1236.18 599.943 1214.19 619.171 1183.15 638.854C1148.11 661.071 1124.16 673.801 1102.65 677.391C1063.55 683.919 1023.82 689.653 984.052 691.644C933.297 694.186 904.876 693.698 855.008 702.202C795.385 712.37 767.232 715.262 709.986 732.82C661.08 747.821 629.191 756.962 582 775.58C534.601 794.281 513.959 802.271 464.5 816.5C404.793 833.677 364.436 843.084 301.5 844.735C244.19 846.239 213.447 855.712 157.552 844.735Z" fill="url(#paint2_linear_3330_3720)"/>
<path d="M174.767 824.064C100.664 820.937 -12 796.061 -12 796.061C-12 796.061 40.4929 814.013 74.8246 824.064C113.367 835.348 134.322 844.496 174.767 850.067C222.607 856.656 250.747 853.771 299.07 850.067C358.7 845.496 391.794 838.336 448.983 824.064C513.26 808.023 545.685 791.157 607.641 770.058C653.503 754.44 677.801 742.695 725.072 730.053C772.265 717.433 799.741 712.425 848.751 705.551C924.126 694.978 970.136 710.265 1044.26 695.049C1090.03 685.654 1116.78 679.981 1157.32 660.546C1216.67 632.094 1281 559.034 1281 559.034V253C1281 253 1257.69 328.066 1226.66 370.013C1204.25 400.297 1188.3 416.041 1157.32 441.021C1125.38 466.78 1104.46 479.15 1066.12 498.527C1026.83 518.391 1002.9 527.628 959.312 540.532C907.813 555.778 873 549.25 822.516 566.535C781.667 580.522 761.149 592.782 725.072 613.54C664.125 648.609 645.951 683.636 585.778 719.552C510.798 764.307 464.756 789.992 374.651 810.062C299.16 826.877 253.016 827.366 174.767 824.064Z" fill="url(#paint3_linear_3330_3720)"/>
<path d="M1 799.5H194.5H224L418.5 799L408 802.5L371.5 811.5L361.5 813.5L354 815L340.223 817.451L340 817.5L315 821.5L276 825L231 826.5L211 826L164 824.5L137 821.5L98.5 817L60 811L37.5 806.5L16.5 803L1 799.5Z" fill="#44113E"/>
<path d="M414 796.5L0 797.5V799L1 799.5L8 801L19 801.5L85.5 812L281.5 815C317.5 811.333 391.5 803.8 399.5 803C407.5 802.2 411.167 800.667 412 800L416 798.5L414 796.5Z" fill="#44113E"/>
</g>
<defs>
<linearGradient id="paint0_linear_3330_3720" x1="640" y1="0" x2="640" y2="801" gradientUnits="userSpaceOnUse">
<stop stop-color="#6A1452"/>
<stop offset="1" stop-color="#44113E"/>
</linearGradient>
<linearGradient id="paint1_linear_3330_3720" x1="404" y1="856.5" x2="1281" y2="850" gradientUnits="userSpaceOnUse">
<stop stop-color="#D738A5"/>
<stop offset="1" stop-color="#7C1D71"/>
</linearGradient>
<linearGradient id="paint2_linear_3330_3720" x1="0.5" y1="710.5" x2="1287" y2="710.5" gradientUnits="userSpaceOnUse">
<stop stop-color="#E847AC"/>
<stop offset="1" stop-color="#D82978"/>
</linearGradient>
<linearGradient id="paint3_linear_3330_3720" x1="18" y1="810" x2="1281" y2="469" gradientUnits="userSpaceOnUse">
<stop stop-color="#501649"/>
<stop offset="1" stop-color="#97196A"/>
</linearGradient>
<clipPath id="clip0_3330_3720">
<rect width="1279" height="944" fill="white"/>
</clipPath>
</defs>
</svg>
