<?xml version="1.0" encoding="UTF-8"?>
<svg version="1.1" xmlns="http://www.w3.org/2000/svg" width="224" height="187">
<path d="M0 0 C30.69 0 61.38 0 93 0 C93 0.66 93 1.32 93 2 C93.763125 2.268125 94.52625 2.53625 95.3125 2.8125 C97.88988618 3.95134505 99.26954864 4.81416671 101 7 C101 7.66 101 8.32 101 9 C101.66 9 102.32 9 103 9 C103 9.66 103 10.32 103 11 C103.66 11 104.32 11 105 11 C105 11.99 105 12.98 105 14 C105.66 14 106.32 14 107 14 C107.495 14.99 107.495 14.99 108 16 C109.15987427 16.00808685 110.31974854 16.01617371 111.51477051 16.02450562 C122.46118685 16.10208911 133.40748077 16.18985915 144.35373688 16.28752708 C149.98091684 16.33741022 155.60807875 16.38374098 161.23535156 16.421875 C166.66895422 16.45882859 172.10240291 16.50521589 177.53587341 16.55806351 C179.60580232 16.57655396 181.67576416 16.59168153 183.7457428 16.60334396 C186.65161812 16.62029808 189.55714491 16.64935506 192.46289062 16.68115234 C193.31309784 16.68331253 194.16330505 16.68547272 195.03927612 16.68769836 C200.33164721 16.76137244 204.90957051 17.53434514 210 19 C210 19.66 210 20.32 210 21 C210.99 21 211.98 21 213 21 C218.08274252 27.69023591 217.56755177 34.44604358 217.51757812 42.56079102 C217.5230038 44.03976123 217.53012896 45.51872603 217.53881836 46.99768066 C217.5570004 50.99974319 217.55000602 55.00139168 217.53730202 59.00346112 C217.52714958 63.19803278 217.53657374 67.39256984 217.54284668 71.58714294 C217.55011577 78.62904198 217.540554 85.67077298 217.52148438 92.71264648 C217.49970852 100.84767122 217.50677501 108.98229505 217.52879 117.11731011 C217.54695503 124.1103033 217.54949721 131.10317598 217.53903532 138.09618515 C217.53280751 142.26918765 217.53194521 146.44200183 217.54518127 150.61499214 C217.55675562 154.53778181 217.54868566 158.46005554 217.52560425 162.38278961 C217.5203259 163.82028027 217.52181602 165.25781453 217.53065491 166.6952877 C217.54162651 168.66118672 217.52541228 170.6271809 217.50793457 172.59303284 C217.50642647 173.69193627 217.50491837 174.79083971 217.50336456 175.92304325 C216.87508853 179.7635563 215.42353606 181.99026579 213 185 C212.34 185 211.68 185 211 185 C211 185.66 211 186.32 211 187 C141.37 187 71.74 187 0 187 C0 186.34 0 185.68 0 185 C-0.99 184.67 -1.98 184.34 -3 184 C-6.10917661 180.03386357 -6.37803428 176.90379748 -6.38768005 171.94728088 C-6.39306559 171.2489547 -6.39845113 170.55062852 -6.40399987 169.83114094 C-6.41827718 167.49735407 -6.41117657 165.16413459 -6.40405273 162.83032227 C-6.40975644 161.15460759 -6.4167207 159.4788968 -6.42485046 157.80319214 C-6.44279704 153.25565372 -6.44161067 148.7083081 -6.43590808 144.16074491 C-6.43281838 140.36346386 -6.43890625 136.56621996 -6.44494683 132.7689442 C-6.45899538 123.81036824 -6.45742803 114.85188763 -6.44604492 105.89331055 C-6.43456319 96.65295446 -6.44863952 87.4128886 -6.4754414 78.17257077 C-6.49759662 70.23696459 -6.50423618 62.30144953 -6.49836498 54.36581463 C-6.4949938 49.62715801 -6.49742121 44.88868744 -6.51461601 40.15005684 C-6.53008025 35.69383089 -6.52613551 31.23803495 -6.50731087 26.78182602 C-6.50362353 25.1475972 -6.50673772 23.51333655 -6.51719666 21.87913704 C-6.53039921 19.64549692 -6.51886762 17.41328191 -6.50120544 15.17970276 C-6.50099616 13.93071481 -6.50078688 12.68172686 -6.50057125 11.39489079 C-5.90462769 7.35318184 -4.57515118 5.13797669 -2 2 C-1.34 2 -0.68 2 0 2 C0 1.34 0 0.68 0 0 Z " fill="#FCDBDF" transform="translate(7,0)"/>
<path d="M0 0 C30.69 0 61.38 0 93 0 C93 0.66 93 1.32 93 2 C93.763125 2.268125 94.52625 2.53625 95.3125 2.8125 C97.88988618 3.95134505 99.26954864 4.81416671 101 7 C101 7.66 101 8.32 101 9 C101.66 9 102.32 9 103 9 C103 9.66 103 10.32 103 11 C103.66 11 104.32 11 105 11 C105 11.99 105 12.98 105 14 C105.66 14 106.32 14 107 14 C107.495 14.99 107.495 14.99 108 16 C109.15987427 16.00808685 110.31974854 16.01617371 111.51477051 16.02450562 C122.46118685 16.10208911 133.40748077 16.18985915 144.35373688 16.28752708 C149.98091684 16.33741022 155.60807875 16.38374098 161.23535156 16.421875 C166.66895422 16.45882859 172.10240291 16.50521589 177.53587341 16.55806351 C179.60580232 16.57655396 181.67576416 16.59168153 183.7457428 16.60334396 C186.65161812 16.62029808 189.55714491 16.64935506 192.46289062 16.68115234 C193.31309784 16.68331253 194.16330505 16.68547272 195.03927612 16.68769836 C200.33164721 16.76137244 204.90957051 17.53434514 210 19 C210 19.66 210 20.32 210 21 C210.99 21 211.98 21 213 21 C218.08274252 27.69023591 217.56755177 34.44604358 217.51757812 42.56079102 C217.5230038 44.03976123 217.53012896 45.51872603 217.53881836 46.99768066 C217.5570004 50.99974319 217.55000602 55.00139168 217.53730202 59.00346112 C217.52714958 63.19803278 217.53657374 67.39256984 217.54284668 71.58714294 C217.55011577 78.62904198 217.540554 85.67077298 217.52148438 92.71264648 C217.49970852 100.84767122 217.50677501 108.98229505 217.52879 117.11731011 C217.54695503 124.1103033 217.54949721 131.10317598 217.53903532 138.09618515 C217.53280751 142.26918765 217.53194521 146.44200183 217.54518127 150.61499214 C217.55675562 154.53778181 217.54868566 158.46005554 217.52560425 162.38278961 C217.5203259 163.82028027 217.52181602 165.25781453 217.53065491 166.6952877 C217.54162651 168.66118672 217.52541228 170.6271809 217.50793457 172.59303284 C217.50642647 173.69193627 217.50491837 174.79083971 217.50336456 175.92304325 C216.87508853 179.7635563 215.42353606 181.99026579 213 185 C212.34 185 211.68 185 211 185 C211 185.66 211 186.32 211 187 C141.37 187 71.74 187 0 187 C0 186.34 0 185.68 0 185 C-0.99 184.67 -1.98 184.34 -3 184 C-6.10917661 180.03386357 -6.37803428 176.90379748 -6.38768005 171.94728088 C-6.39306559 171.2489547 -6.39845113 170.55062852 -6.40399987 169.83114094 C-6.41827718 167.49735407 -6.41117657 165.16413459 -6.40405273 162.83032227 C-6.40975644 161.15460759 -6.4167207 159.4788968 -6.42485046 157.80319214 C-6.44279704 153.25565372 -6.44161067 148.7083081 -6.43590808 144.16074491 C-6.43281838 140.36346386 -6.43890625 136.56621996 -6.44494683 132.7689442 C-6.45899538 123.81036824 -6.45742803 114.85188763 -6.44604492 105.89331055 C-6.43456319 96.65295446 -6.44863952 87.4128886 -6.4754414 78.17257077 C-6.49759662 70.23696459 -6.50423618 62.30144953 -6.49836498 54.36581463 C-6.4949938 49.62715801 -6.49742121 44.88868744 -6.51461601 40.15005684 C-6.53008025 35.69383089 -6.52613551 31.23803495 -6.50731087 26.78182602 C-6.50362353 25.1475972 -6.50673772 23.51333655 -6.51719666 21.87913704 C-6.53039921 19.64549692 -6.51886762 17.41328191 -6.50120544 15.17970276 C-6.50099616 13.93071481 -6.50078688 12.68172686 -6.50057125 11.39489079 C-5.90462769 7.35318184 -4.57515118 5.13797669 -2 2 C-1.34 2 -0.68 2 0 2 C0 1.34 0 0.68 0 0 Z M1.34977531 7.96397686 C-1.9097439 12.8806889 -0.92272233 19.72834343 -0.84228516 25.43530273 C-0.84522289 27.03220424 -0.85119974 28.62910262 -0.85998535 30.22598267 C-0.87480663 34.55908022 -0.84598589 38.89090137 -0.80855227 43.22382236 C-0.77592598 47.7600376 -0.78064428 52.29622383 -0.78060913 56.83253479 C-0.77504428 64.45148234 -0.74272294 72.06994064 -0.69287109 79.6887207 C-0.63543242 88.49281151 -0.61255884 97.29643538 -0.6099869 106.1007027 C-0.60706029 115.47798369 -0.58123398 124.85509313 -0.54742002 134.23230863 C-0.53906729 136.93204494 -0.53471611 139.63176405 -0.531147 142.33151054 C-0.52422984 146.57763084 -0.50176961 150.82340169 -0.46737671 155.06938553 C-0.45703503 156.62618672 -0.45171338 158.18303072 -0.45182419 159.73986626 C-0.45105422 161.86827481 -0.43179767 163.99575159 -0.40786743 166.12400818 C-0.40154108 167.31400138 -0.39521473 168.50399458 -0.38869667 169.73004818 C0.06192974 173.52099045 0.83680679 175.84762289 3 179 C7.46233136 181.24756047 11.93318453 181.28673518 16.83854675 181.26069641 C17.60926445 181.26452196 18.37998214 181.26834751 19.17405492 181.27228898 C21.74655924 181.28257596 24.31883858 181.27863513 26.89135742 181.2746582 C28.73957017 181.2790069 30.58778111 181.28419057 32.43598938 181.29014587 C37.44809271 181.30352595 42.46012059 181.30411595 47.4722383 181.30158257 C51.65507022 181.30051281 55.83788688 181.30539604 60.02071553 181.310188 C69.88385779 181.32127841 79.74696195 181.32172232 89.61010742 181.31567383 C99.7939982 181.30962494 109.97775115 181.32196933 120.16161841 181.3432439 C128.9022749 181.36083379 137.6428874 181.36686564 146.38356096 181.36360615 C151.60553476 181.36178996 156.82741009 181.36446345 162.0493679 181.37832069 C166.95530706 181.390853 171.86103021 181.38899877 176.76696587 181.37590981 C178.57016318 181.37353491 180.3733755 181.37631116 182.17655563 181.38453293 C184.6320926 181.39492472 187.08689441 181.38696164 189.54240417 181.3742218 C190.26107121 181.38159609 190.97973825 181.38897037 191.72018307 181.39656812 C196.03621355 181.34923707 196.77685752 181.22314248 200 178 C200.66 175.03 201.32 172.06 202 169 C138.31 168.67 74.62 168.34 9 168 C8 164 8 164 9 161 C72.69 161 136.38 161 202 161 C202 125.03 202 89.06 202 52 C201.34 52 200.68 52 200 52 C200 50.68 200 49.36 200 48 C200.99 47.34 201.98 46.68 203 46 C198.29835345 45.07243714 193.74987364 44.86284497 188.97509766 44.88647461 C188.19393585 44.88632858 187.41277405 44.88618256 186.60794067 44.8860321 C184.0432857 44.88672502 181.47870468 44.89448816 178.9140625 44.90234375 C177.12901855 44.90421014 175.34397409 44.905633 173.55892944 44.90663147 C168.87362235 44.91043925 164.18834654 44.92025462 159.50305176 44.93133545 C154.71688256 44.94158703 149.93070828 44.94613711 145.14453125 44.95117188 C135.76300713 44.96187851 126.38150617 44.97893396 117 45 C116.54947266 43.83174683 116.54947266 43.83174683 116.08984375 42.63989258 C114.99233251 39.98142729 113.72571682 37.97838908 112 35.6875 C111.484375 34.99011719 110.96875 34.29273437 110.4375 33.57421875 C109.963125 33.05472656 109.48875 32.53523438 109 32 C108.34 32 107.68 32 107 32 C106.9175 31.113125 106.835 30.22625 106.75 29.3125 C105.87285221 25.43843059 104.61180625 23.96475304 102 21 C101.01518397 19.64993626 100.03641015 18.29545204 99.0625 16.9375 C94.51113664 10.90298092 89.27010353 7.12842192 82 5 C76.31927441 4.40193159 70.66815916 4.41149072 64.9609375 4.43359375 C63.30904797 4.42835047 61.65716143 4.42207143 60.00527954 4.41481018 C56.55741193 4.40444588 53.10995811 4.40891226 49.66210938 4.42358398 C45.25591369 4.44080484 40.85101811 4.41721614 36.44496727 4.38209438 C33.03900608 4.36008446 29.63335465 4.3615698 26.22734451 4.3698597 C24.60312088 4.37067651 22.97887388 4.36386495 21.35471725 4.34908867 C19.0812146 4.33156521 16.81003258 4.34624319 14.53662109 4.36889648 C12.60210587 4.37033913 12.60210587 4.37033913 10.62850952 4.37181091 C6.86881136 5.02271216 4.32916952 5.57396475 1.34977531 7.96397686 Z " fill="#080505" transform="translate(7,0)"/>
<path d="M0 0 C28.71 0 57.42 0 87 0 C87 0.66 87 1.32 87 2 C87.598125 2.226875 88.19625 2.45375 88.8125 2.6875 C91.83373829 4.50024297 92.55454463 5.73210794 94 9 C94.44970866 12.83322594 94.40954256 16.64813407 94.38818359 20.50390625 C94.39606903 22.24859695 94.39606903 22.24859695 94.40411377 24.02853394 C94.41731763 27.87332589 94.40857389 31.71770383 94.3984375 35.5625 C94.40045812 38.23381058 94.40336484 40.90510858 94.40713501 43.57641602 C94.41258867 49.17501308 94.40541125 54.7734913 94.39111328 60.37207031 C94.3747874 66.83927592 94.38007619 73.30619776 94.3965925 79.77339649 C94.41021854 85.33194051 94.41212159 90.89039925 94.40427649 96.44895458 C94.39960607 99.76624676 94.40014028 103.08337676 94.40888596 106.40066528 C94.41649692 110.09933713 94.40490021 113.79746263 94.38818359 117.49609375 C94.39425629 118.59235077 94.40032898 119.68860779 94.40658569 120.81808472 C94.32894183 130.08219886 94.32894183 130.08219886 91 134 C90.468302 134.69169092 89.936604 135.38338184 89.38879395 136.0960331 C86.07604501 138.73643008 83.11154175 138.54987767 79.05355835 138.49447632 C78.24709197 138.49930515 77.44062558 138.50413398 76.60972083 138.50910914 C73.90403638 138.52039213 71.19929453 138.50305233 68.49365234 138.48583984 C66.55544275 138.48798538 64.6172344 138.49186259 62.67903137 138.49734497 C57.41264654 138.50704853 52.14660008 138.4917233 46.88025618 138.47143888 C41.37587324 138.45389242 35.87150114 138.45739246 30.36709595 138.4581604 C21.12488123 138.4562867 11.88279777 138.43891173 2.640625 138.41162109 C-8.0567294 138.380151 -18.75394011 138.36962549 -29.45133746 138.3710922 C-39.72962675 138.37231129 -50.00786906 138.36211506 -60.28614426 138.34550858 C-64.66650127 138.33843331 -69.04684168 138.33478072 -73.42720413 138.33372116 C-78.58014785 138.33171757 -83.73297012 138.31955133 -88.88587379 138.29938889 C-90.78139693 138.29352917 -92.67693405 138.2910901 -94.5724659 138.29224396 C-97.15094983 138.29321989 -99.72908949 138.28196868 -102.30752563 138.26742554 C-103.06548829 138.27052274 -103.82345094 138.27361995 -104.60438216 138.276811 C-109.77164175 138.22835825 -109.77164175 138.22835825 -112 136 C-47.98 136 16.04 136 82 136 C82.99 132.37 83.98 128.74 85 125 C83.51075988 125.00276538 83.51075988 125.00276538 81.9914341 125.00558662 C57.86476458 125.04993093 33.73810032 125.08282544 9.6113987 125.10362434 C-2.05595724 125.11394916 -13.72328631 125.12803244 -25.390625 125.15087891 C-35.55657106 125.17077597 -45.72249767 125.18370766 -55.88846266 125.18817699 C-61.27424186 125.19079063 -66.65996538 125.19695869 -72.04572678 125.21146011 C-77.10994071 125.2249859 -82.17407577 125.22923283 -87.23830605 125.22621536 C-89.10158656 125.22676778 -90.96486959 125.2307749 -92.82813454 125.23841095 C-95.36300969 125.24829403 -97.89758313 125.24599339 -100.4324646 125.24050903 C-101.55015561 125.24924756 -101.55015561 125.24924756 -102.69042623 125.25816262 C-107.77175758 125.22824242 -107.77175758 125.22824242 -110 123 C-109.64644564 120.73725212 -109.02455574 119.04911148 -108 117 C-44.31 117 19.38 117 85 117 C85 81.03 85 45.06 85 8 C84.34 8 83.68 8 83 8 C82.87625 7.195625 82.7525 6.39125 82.625 5.5625 C82.41875 4.716875 82.2125 3.87125 82 3 C78.95477221 1.4773861 75.77224414 1.82064829 72.42919922 1.79467773 C71.64862152 1.78477814 70.86804382 1.77487854 70.06381226 1.76467896 C67.47746845 1.73303022 64.89110625 1.70829324 62.3046875 1.68359375 C60.51392126 1.66302713 58.72315992 1.64203074 56.93240356 1.62062073 C52.21421257 1.56536987 47.49597755 1.5159739 42.77770996 1.46777344 C37.96504793 1.4175804 33.15245 1.36188288 28.33984375 1.30664062 C18.8932839 1.19902219 9.44666844 1.09758541 0 1 C0 0.67 0 0.34 0 0 Z " fill="#E7AAB5" transform="translate(124,44)"/>
<path d="M0 0 C0.66 0 1.32 0 2 0 C2.33 51.48 2.66 102.96 3 156 C4.32 155.67 5.64 155.34 7 155 C7.66 155.99 8.32 156.98 9 158 C11.59959144 158.30679291 13.96408492 158.41566469 16.5675354 158.39872742 C17.75228708 158.40869766 17.75228708 158.40869766 18.96097314 158.41886932 C21.62206027 158.43760312 24.28270188 158.43488713 26.94384766 158.43237305 C28.84560283 158.44138389 30.74735217 158.45170942 32.64909363 158.46325684 C37.82444513 158.49093263 42.99968677 158.50012566 48.17510271 158.50611091 C53.5790499 158.51546715 58.98291411 158.54166818 64.3868103 158.56611633 C74.62548347 158.60986095 84.86414061 158.63835895 95.10287893 158.66143972 C106.75692282 158.6884488 118.41088357 158.73236287 130.06486821 158.77772844 C154.04320046 158.87068872 178.02155879 158.94231724 202 159 C201.74337755 160.44010481 201.46909179 161.8770687 201.1875 163.3125 C200.96126953 164.51326172 200.96126953 164.51326172 200.73046875 165.73828125 C199.86199551 168.42729731 199.37998162 169.45213453 197 171 C194.43327819 171.29248678 192.10941927 171.4005621 189.54240417 171.3742218 C188.77636645 171.37819621 188.01032873 171.38217061 187.22107774 171.38626546 C184.64614019 171.39591392 182.07174859 171.38405505 179.49682617 171.37231445 C177.65392349 171.37474164 175.81102211 171.37846025 173.96812439 171.38337708 C168.95559236 171.39280167 163.94325507 171.3833464 158.93073821 171.37004495 C153.68846967 171.35874484 148.44621093 171.36283697 143.20393372 171.36479187 C134.39625867 171.36567554 125.58866049 171.35458124 116.78100586 171.33618164 C106.59896351 171.31503261 96.41703395 171.31149954 86.23497409 171.3177436 C76.4441893 171.32344037 66.65344423 171.31778662 56.86266518 171.30657005 C52.694942 171.30192621 48.52724312 171.30104932 44.35951805 171.3031559 C39.44871089 171.30504083 34.53801835 171.29691904 29.62723732 171.2810955 C27.82530822 171.27685571 26.02336748 171.27600005 24.22143555 171.27878571 C21.76034717 171.28201286 19.29960005 171.27291214 16.83854675 171.26069641 C16.12657188 171.26447573 15.41459701 171.26825506 14.68104714 171.27214891 C10.41742786 171.23475462 6.8323315 170.9302459 3 169 C0.0603415 164.72624111 -0.37257411 161.20039687 -0.36076355 156.09036255 C-0.36332682 155.41961697 -0.3658901 154.74887138 -0.36853105 154.05780017 C-0.37344911 151.82360324 -0.3570097 149.59009107 -0.34057617 147.35595703 C-0.33972947 145.74918127 -0.34020589 144.14240436 -0.34190369 142.53562927 C-0.34276337 138.18271548 -0.32514192 133.83005038 -0.30418181 129.47719431 C-0.28541062 124.92482169 -0.28366422 120.37244319 -0.28010559 115.82003784 C-0.27078643 107.20347791 -0.24617438 98.58703236 -0.21605712 89.97052276 C-0.18250911 80.15922004 -0.16602609 70.34791183 -0.15097082 60.53656602 C-0.11962472 40.35764688 -0.06686671 20.17883065 0 0 Z " fill="#F1ADBA" transform="translate(7,10)"/>
<path d="M0 0 C-0.74765625 0.59167969 -1.4953125 1.18335937 -2.265625 1.79296875 C-3.25046875 2.58316406 -4.2353125 3.37335938 -5.25 4.1875 C-6.22453125 4.96480469 -7.1990625 5.74210937 -8.203125 6.54296875 C-12.96527567 10.7264782 -17.74825607 15.72732885 -18.25 22.25 C-18.30408759 24.90930721 -18.30408759 24.90930721 -17 26 C-12.80771729 26.38826471 -12.80771729 26.38826471 -9.0625 24.75 C-7.78549041 23.03598141 -7.78549041 23.03598141 -8.1875 20.875 C-8.8435566 18.81035868 -8.8435566 18.81035868 -11 18 C-11 17.34 -11 16.68 -11 16 C-4.87720257 15.5001798 -1.89246242 16.54649711 3 20 C5.45682016 24.02178095 6.34186118 28.31161805 6 33 C4.0333124 36.89975662 0.58962207 39.60691862 -3 42 C-2.34 42.66 -1.68 43.32 -1 44 C-0.95907063 46.33297433 -0.95758277 48.66705225 -1 51 C-0.67 51.33 -0.34 51.66 0 52 C-0.35523979 58.39431616 -0.35523979 58.39431616 -3.0625 60.9375 C-3.701875 61.288125 -4.34125 61.63875 -5 62 C-4.7215625 63.7015625 -4.7215625 63.7015625 -4.4375 65.4375 C-4.293125 66.613125 -4.14875 67.78875 -4 69 C-5 70 -5 70 -8.5625 70.0625 C-9.696875 70.041875 -10.83125 70.02125 -12 70 C-12.144375 70.969375 -12.28875 71.93875 -12.4375 72.9375 C-13 76 -13 76 -14 77 C-15.4887186 77.08669432 -16.981445 77.10703494 -18.47265625 77.09765625 C-19.37177734 77.09443359 -20.27089844 77.09121094 -21.19726562 77.08789062 C-22.61555664 77.07532227 -22.61555664 77.07532227 -24.0625 77.0625 C-25.01189453 77.05798828 -25.96128906 77.05347656 -26.93945312 77.04882812 C-29.29303065 77.0370011 -31.64648477 77.02052025 -34 77 C-33.67 75.68 -33.34 74.36 -33 73 C-33 73.66 -33 74.32 -33 75 C-27.8306511 74.59443869 -27.8306511 74.59443869 -23 73 C-23 73.66 -23 74.32 -23 75 C-20.36 74.67 -17.72 74.34 -15 74 C-15 72.35 -15 70.7 -15 69 C-16.19625 69.165 -17.3925 69.33 -18.625 69.5 C-22.10548715 69.93970567 -25.48771488 70.08780713 -29 70 C-28.979375 69.21625 -28.95875 68.4325 -28.9375 67.625 C-28.81315937 65.01885039 -28.81315937 65.01885039 -30 63 C-27.69 63 -25.38 63 -23 63 C-23 64.32 -23 65.64 -23 67 C-22.34 67 -21.68 67 -21 67 C-20.505 65.515 -20.505 65.515 -20 64 C-19.01 64.99 -18.02 65.98 -17 67 C-17 66.01 -17 65.02 -17 64 C-17.99 64.495 -17.99 64.495 -19 65 C-19.495 64.01 -19.495 64.01 -20 63 C-21.18078125 62.95101562 -22.3615625 62.90203125 -23.578125 62.8515625 C-25.13543937 62.77651121 -26.69272991 62.70096439 -28.25 62.625 C-29.02730469 62.5940625 -29.80460937 62.563125 -30.60546875 62.53125 C-37.72431144 62.16618114 -37.72431144 62.16618114 -41 60 C-39.5459375 59.566875 -39.5459375 59.566875 -38.0625 59.125 C-34.89335797 58.35785318 -34.89335797 58.35785318 -34 56 C-33.77049681 53.795636 -33.58924067 51.58607827 -33.4375 49.375 C-33.35371094 48.18648437 -33.26992188 46.99796875 -33.18359375 45.7734375 C-33.12300781 44.85820313 -33.06242187 43.94296875 -33 43 C-34.32 43 -35.64 43 -37 43 C-37 47.62 -37 52.24 -37 57 C-37.99 57 -38.98 57 -40 57 C-40 55.68 -40 54.36 -40 53 C-41.94074861 53.27617533 -41.94074861 53.27617533 -44 54 C-44.66 54.99 -45.32 55.98 -46 57 C-46.125 54.625 -46.125 54.625 -46 52 C-44 50 -44 50 -41.375 49.875 C-40.59125 49.91625 -39.8075 49.9575 -39 50 C-39.08378906 49.36191406 -39.16757812 48.72382812 -39.25390625 48.06640625 C-39.35574219 47.24011719 -39.45757812 46.41382813 -39.5625 45.5625 C-39.71912109 44.32693359 -39.71912109 44.32693359 -39.87890625 43.06640625 C-39.91886719 42.38449219 -39.95882812 41.70257813 -40 41 C-38.05909174 39.05909174 -34.52706098 39.60080565 -31.9375 39.4375 C-30.64714844 39.35371094 -29.35679688 39.26992187 -28.02734375 39.18359375 C-27.02832031 39.12300781 -26.02929688 39.06242187 -25 39 C-25 39.66 -25 40.32 -25 41 C-24.34 41 -23.68 41 -23 41 C-23 40.34 -23 39.68 -23 39 C-24.62101788 37.58738471 -24.62101788 37.58738471 -26.6875 36.1875 C-35.59001188 29.63689285 -35.59001188 29.63689285 -36.5234375 25.91015625 C-36.77833314 23.95021542 -36.8996324 21.9738962 -37 20 C-36.41992188 19.82984375 -35.83984375 19.6596875 -35.2421875 19.484375 C-29.08945557 17.57560668 -24.3171361 15.3171361 -19.6875 10.6875 C-6.63157895 -2.36842105 -6.63157895 -2.36842105 0 0 Z " fill="#FCF7F8" transform="translate(86,66)"/>
<path d="M0 0 C10.81406956 -0.0232109 21.62813316 -0.04095963 32.4422226 -0.05181217 C37.46409487 -0.05702188 42.48595006 -0.06408472 47.5078125 -0.07543945 C52.35777453 -0.08633639 57.20772015 -0.09229124 62.05769348 -0.09487724 C63.90436562 -0.09671924 65.7510369 -0.10031616 67.59770203 -0.10573006 C70.19210726 -0.11303088 72.78644545 -0.11398714 75.38085938 -0.11352539 C76.1375592 -0.11712067 76.89425903 -0.12071594 77.67388916 -0.12442017 C90.349784 -0.100144 90.349784 -0.100144 95 3 C95 3.66 95 4.32 95 5 C95.66 5 96.32 5 97 5 C97 8.3 97 11.6 97 15 C95.68 14.67 94.36 14.34 93 14 C90.22463122 13.90720316 87.47412379 13.86660097 84.69897461 13.87402344 C83.86440231 13.8721553 83.02983002 13.87028717 82.16996765 13.86836243 C80.36062363 13.86436386 78.55127459 13.86228409 76.74192619 13.86190033 C72.89889461 13.8584826 69.05603191 13.83712342 65.21305943 13.81666946 C58.05860137 13.7786325 50.90432662 13.74739151 43.74975586 13.74951172 C38.77175253 13.75029687 33.79437124 13.72702464 28.81653023 13.6876297 C26.91830806 13.6771426 25.02001435 13.67566551 23.12177849 13.68328094 C20.47103854 13.69285865 17.82219885 13.67180831 15.17163086 13.64355469 C14.38453735 13.65375137 13.59744385 13.66394806 12.78649902 13.67445374 C10.59873962 13.63250732 10.59873962 13.63250732 7 13 C5.09083557 10.55352783 5.09083557 10.55352783 4 8 C3.46375 7.505 2.9275 7.01 2.375 6.5 C0.53146502 4.48887093 0.45512035 2.64485033 0 0 Z " fill="#FE93A8" transform="translate(120,25)"/>
<path d="M0 0 C1.11564465 0.00669217 1.11564465 0.00669217 2.25382757 0.01351953 C3.43646256 0.00883955 3.43646256 0.00883955 4.64298916 0.00406504 C7.2993542 -0.00394719 9.95549284 0.00242115 12.6118598 0.00869775 C14.51036479 0.00598931 16.40886873 0.00242922 18.30737066 -0.00192237 C23.47460315 -0.01106622 28.64175607 -0.00749391 33.80899 -0.0011642 C39.2066204 0.00388549 44.6042438 -0.00079277 50.00187445 -0.00393653 C59.06768284 -0.00757919 68.13345869 -0.00276922 77.19926214 0.00674462 C87.69321043 0.01762974 98.18708101 0.01410437 108.68102741 0.00309181 C117.67720965 -0.00597253 126.67336843 -0.00727053 135.66955376 -0.00203085 C141.04858471 0.00109356 146.42757909 0.00148533 151.80660772 -0.00510383 C156.86265672 -0.01086428 161.91860515 -0.00690434 166.97464323 0.00468469 C168.83469427 0.00733826 170.69475372 0.00655437 172.55480146 0.00215936 C175.0852079 -0.00327016 177.61528789 0.00350618 180.14567327 0.01351953 C180.88943637 0.00905808 181.63319947 0.00459664 182.39950085 0 C187.47145028 0.03918667 187.47145028 0.03918667 189.69975042 2.26748681 C189.36975042 3.58748681 189.03975042 4.90748681 188.69975042 6.26748681 C124.34975042 6.26748681 59.99975042 6.26748681 -6.30024958 6.26748681 C-6.63024958 4.94748681 -6.96024958 3.62748681 -7.30024958 2.26748681 C-4.8190267 -0.21373607 -3.38596542 0.02616049 0 0 Z " fill="#110E0E" transform="translate(21.300249576568604,161.7325131893158)"/>
<path d="M0 0 C-5.28 2.31 -10.56 4.62 -16 7 C-13.59777717 7 -11.2648403 6.74511183 -8.875 6.5 C-7.50988281 6.36078125 -7.50988281 6.36078125 -6.1171875 6.21875 C-5.06917969 6.11046875 -5.06917969 6.11046875 -4 6 C-5.27408402 8.54816803 -6.24893023 8.72929324 -8.83203125 9.84765625 C-9.62504639 10.20085938 -10.41806152 10.5540625 -11.23510742 10.91796875 C-12.08564697 11.29566406 -12.93618652 11.67335938 -13.8125 12.0625 C-25.23699913 17.31975387 -33.94840917 23.38052071 -42.14453125 33.046875 C-46.22673507 37.34393166 -50.68091698 39.1783116 -56.5625 39.4375 C-64.11601679 39.02360867 -68.64447118 35.57644229 -74.01953125 30.6484375 C-78.10206486 27.25035233 -82.77241832 25.79205783 -88 25 C-87.505 23.515 -87.505 23.515 -87 22 C-82.84131748 19.92065874 -77.5403832 20.66125413 -73 21 C-69.72743268 22.22721275 -67.67087537 23.41568919 -65.0625 25.6875 C-61.95399176 27.6656416 -59.6053025 27.37950553 -56 27 C-52.27196535 25.25271222 -52.27196535 25.25271222 -50 22 C-49.57473875 17.37937295 -49.43689619 13.28709443 -51.3125 9 C-53.02463397 6.78264147 -53.02463397 6.78264147 -56 5 C-56 4.34 -56 3.68 -56 3 C-49.87903309 4.05486051 -45.24493326 5.65217026 -40 9 C-40.61277612 11.96175123 -41.25372522 13.38058783 -43 16 C-43 16.99 -43 17.98 -43 19 C-42.13375 18.01 -41.2675 17.02 -40.375 16 C-31.38124318 7.07862754 -20.10692657 2.82707916 -8 0 C-6.93652344 -0.32677734 -6.93652344 -0.32677734 -5.8515625 -0.66015625 C-4 -1 -4 -1 0 0 Z " fill="#F65D86" transform="translate(106,45)"/>
<path d="M0 0 C-0.74765625 0.59167969 -1.4953125 1.18335937 -2.265625 1.79296875 C-3.25046875 2.58316406 -4.2353125 3.37335938 -5.25 4.1875 C-6.22453125 4.96480469 -7.1990625 5.74210937 -8.203125 6.54296875 C-12.96527567 10.7264782 -17.74825607 15.72732885 -18.25 22.25 C-18.30408759 24.90930721 -18.30408759 24.90930721 -17 26 C-12.80771729 26.38826471 -12.80771729 26.38826471 -9.0625 24.75 C-7.78549041 23.03598141 -7.78549041 23.03598141 -8.1875 20.875 C-8.8435566 18.81035868 -8.8435566 18.81035868 -11 18 C-11 17.34 -11 16.68 -11 16 C-4.87720257 15.5001798 -1.89246242 16.54649711 3 20 C4.74900504 22.28131092 4.98600863 23.93159777 5.5625 26.75 C4.71134349 31.66779316 1.73502424 34.7923583 -2 38 C-8.18899586 41.12463914 -15.63173261 41.03638205 -22.1875 38.9375 C-28.29027717 36.28794036 -34.39176329 31.19456219 -37 25 C-37.1875 22.1875 -37.1875 22.1875 -37 20 C-36.41992188 19.82984375 -35.83984375 19.6596875 -35.2421875 19.484375 C-29.08945557 17.57560668 -24.3171361 15.3171361 -19.6875 10.6875 C-6.63157895 -2.36842105 -6.63157895 -2.36842105 0 0 Z " fill="#B33594" transform="translate(86,66)"/>
<path d="M0 0 C2.16400203 3.24600305 2.25190977 4.13479484 2.26069641 7.88278198 C2.26778122 8.88937866 2.27486603 9.89597534 2.28216553 10.93307495 C2.27968811 12.03652252 2.27721069 13.13997009 2.2746582 14.27685547 C2.27976913 15.43969055 2.28488007 16.60252563 2.29014587 17.80059814 C2.3040803 21.65617985 2.30308208 25.51158356 2.30078125 29.3671875 C2.30368475 31.36574816 2.30659259 33.36430889 2.310188 35.36286843 C2.32128662 41.64899432 2.32171896 47.93506046 2.31567383 54.22119141 C2.30963614 60.70311211 2.32193885 67.18481564 2.3432439 73.66669929 C2.36086807 79.2336849 2.36685988 84.80060144 2.36360615 90.36761391 C2.36179404 93.69165675 2.36573582 97.01551026 2.37832069 100.33953476 C2.39063633 104.04797914 2.38392193 107.75591935 2.37231445 111.46435547 C2.37995819 112.56375458 2.38760193 113.66315369 2.39547729 114.79586792 C2.33110297 124.08573397 2.33110297 124.08573397 -1 128 C-1.53171845 128.69165001 -2.06343691 129.38330002 -2.61126804 130.09590912 C-5.9239494 132.73649269 -8.88841746 132.54987823 -12.94644165 132.49447632 C-13.75290803 132.49930515 -14.55937442 132.50413398 -15.39027917 132.50910914 C-18.09596362 132.52039213 -20.80070547 132.50305233 -23.50634766 132.48583984 C-25.44455725 132.48798538 -27.3827656 132.49186259 -29.32096863 132.49734497 C-34.58735346 132.50704853 -39.85339992 132.4917233 -45.11974382 132.47143888 C-50.62412676 132.45389242 -56.12849886 132.45739246 -61.63290405 132.4581604 C-70.87511877 132.4562867 -80.11720223 132.43891173 -89.359375 132.41162109 C-100.0567294 132.380151 -110.75394011 132.36962549 -121.45133746 132.3710922 C-131.72962675 132.37231129 -142.00786906 132.36211506 -152.28614426 132.34550858 C-156.66650127 132.33843331 -161.04684168 132.33478072 -165.42720413 132.33372116 C-170.58014785 132.33171757 -175.73297012 132.31955133 -180.88587379 132.29938889 C-182.78139693 132.29352917 -184.67693405 132.2910901 -186.5724659 132.29224396 C-189.15094983 132.29321989 -191.72908949 132.28196868 -194.30752563 132.26742554 C-195.06548829 132.27052274 -195.82345094 132.27361995 -196.60438216 132.276811 C-201.77164175 132.22835825 -201.77164175 132.22835825 -204 130 C-139.98 130 -75.96 130 -10 130 C-9.01 126.37 -8.02 122.74 -7 119 C-70.69 119 -134.38 119 -200 119 C-200 118.67 -200 118.34 -200 118 C-198.50302928 117.99503478 -198.50302928 117.99503478 -196.97581673 117.98996925 C-172.72390923 117.90907515 -148.47206564 117.81679059 -124.22024727 117.71247292 C-112.49238522 117.66229161 -100.76453037 117.61584944 -89.03662109 117.578125 C-78.81789904 117.54524568 -68.59923187 117.50543717 -58.38057029 117.45720994 C-52.96687219 117.43190445 -47.55321068 117.41013525 -42.13946915 117.39665604 C-37.04894657 117.38387229 -31.95854923 117.36185818 -26.8680954 117.33261681 C-24.99515762 117.32351205 -23.12219965 117.3178441 -21.24924088 117.31578636 C-18.70118297 117.31248417 -16.15348459 117.29706293 -13.60549927 117.2784729 C-12.48197184 117.281375 -12.48197184 117.281375 -11.33574688 117.28433573 C-7.21443491 117.3661327 -7.21443491 117.3661327 -4 115 C-3.01 115.33 -2.02 115.66 -1 116 C-0.67 77.72 -0.34 39.44 0 0 Z " fill="#95676F" transform="translate(216,50)"/>
<path d="M0 0 C0.99 0.495 0.99 0.495 2 1 C1.34 1.66 0.68 2.32 0 3 C1.03125 2.67 2.0625 2.34 3.125 2 C6.48426709 1.0284808 9.49106202 0.82883229 13 1 C11.72591598 3.54816803 10.75106977 3.72929324 8.16796875 4.84765625 C7.37495361 5.20085938 6.58193848 5.5540625 5.76489258 5.91796875 C4.91435303 6.29566406 4.06381348 6.67335938 3.1875 7.0625 C-8.23699913 12.31975387 -16.94840917 18.38052071 -25.14453125 28.046875 C-29.22673507 32.34393166 -33.68091698 34.1783116 -39.5625 34.4375 C-47.03326653 34.02814293 -51.50727896 30.68346584 -56.80078125 25.78515625 C-60.48247438 22.79664158 -64.68807135 20.9173945 -69 19 C-69 18.67 -69 18.34 -69 18 C-61.49615999 17.37468 -56.34123469 19.90310893 -50.625 24.6875 C-49.75875 25.450625 -48.8925 26.21375 -48 27 C-44.12380121 28.93809939 -39.89649815 28.43559145 -35.7890625 27.4921875 C-29.40971125 25.18666757 -26.29286773 21.02008916 -22.2421875 15.75 C-16.51938206 8.73108879 -8.30126517 3.51916882 0 0 Z " fill="#9B2676" transform="translate(89,50)"/>
<path d="M0 0 C2.4375 1.625 2.4375 1.625 4 4 C4.5625 6.9375 4.5625 6.9375 4 10 C1.827365 12.57285724 0.02006162 14.48996919 -3 16 C-0.23394361 17.71677553 -0.23394361 17.71677553 3 19 C5.35460678 18.32575833 5.35460678 18.32575833 7 17 C7.33 17.66 7.66 18.32 8 19 C8.53367187 18.66226563 9.06734375 18.32453125 9.6171875 17.9765625 C18.8541607 12.44716332 27.3749635 11.6364056 38 12 C34.60149921 13.90382845 31.20167285 14.79108222 27.4375 15.75 C15.75547107 19.05486414 7.64523683 24.56104865 -1 33 C-1.58984375 31.12890625 -1.58984375 31.12890625 -2 29 C-1.04701223 27.63266972 -0.04625409 26.29735507 1 25 C1 24.01 1 23.02 1 22 C-3.93387858 19.74138003 -8.80355921 17.59890486 -14 16 C-14 16.66 -14 17.32 -14 18 C-13.401875 18.226875 -12.80375 18.45375 -12.1875 18.6875 C-9.19956265 20.48026241 -8.35002526 21.75993937 -7 25 C-6.75891377 28.34955969 -6.82428428 31.64838543 -7 35 C-7.66 34.67 -8.32 34.34 -9 34 C-9.23828125 32.109375 -9.23828125 32.109375 -9.3125 29.75 C-9.63771125 25.96189119 -9.88073823 25.14372572 -12.4375 22.0625 C-13.283125 21.381875 -14.12875 20.70125 -15 20 C-15.66 19.34 -16.32 18.68 -17 18 C-16.67 16.68 -16.34 15.36 -16 14 C-13.03 14 -10.06 14 -7 14 C-7.680625 13.484375 -8.36125 12.96875 -9.0625 12.4375 C-11 10 -11 10 -10.9375 6.4375 C-10 3 -10 3 -8.875 1.0625 C-5.81547541 -0.6712306 -3.43182475 -0.42145216 0 0 Z " fill="#FDF5F7" transform="translate(64,32)"/>
<path d="M0 0 C1.588125 -0.061875 3.17625 -0.12375 4.8125 -0.1875 C6.15248047 -0.23970703 6.15248047 -0.23970703 7.51953125 -0.29296875 C10 0 10 0 11.84375 1.3125 C13 3 13 3 12.6875 6.1875 C12.460625 7.115625 12.23375 8.04375 12 9 C12.66 9.33 13.32 9.66 14 10 C14.36458333 14.49652778 14.36458333 14.49652778 12.6875 16.8125 C11 18 11 18 8 18 C8.33 19.98 8.66 21.96 9 24 C9.66 24 10.32 24 11 24 C11 24.66 11 25.32 11 26 C7.7 25.67 4.4 25.34 1 25 C1.66 23.02 2.32 21.04 3 19 C1.741875 18.95875 0.48375 18.9175 -0.8125 18.875 C-3.01953125 18.61328125 -3.01953125 18.61328125 -5 18 C-6.8806287 15.23782659 -8 13.37036422 -8 10 C-8.66 10 -9.32 10 -10 10 C-10 12.31 -10 14.62 -10 17 C-11.32 17 -12.64 17 -14 17 C-14 11.72 -14 6.44 -14 1 C-12.68 1 -11.36 1 -10 1 C-9.67 2.65 -9.34 4.3 -9 6 C-7.68 4.35 -6.36 2.7 -5 1 C-4.01 1.33 -3.02 1.66 -2 2 C-3.65 3.98 -5.3 5.96 -7 8 C-6.38125 8.226875 -5.7625 8.45375 -5.125 8.6875 C-2.37739861 10.38454792 -2.06789821 12.02514071 -1 15 C-0.34 15.33 0.32 15.66 1 16 C0.67 10.72 0.34 5.44 0 0 Z " fill="#D23F92" transform="translate(69,108)"/>
<path d="M0 0 C10.81406956 -0.0232109 21.62813316 -0.04095963 32.4422226 -0.05181217 C37.46409487 -0.05702188 42.48595006 -0.06408472 47.5078125 -0.07543945 C52.35777453 -0.08633639 57.20772015 -0.09229124 62.05769348 -0.09487724 C63.90436562 -0.09671924 65.7510369 -0.10031616 67.59770203 -0.10573006 C70.19210726 -0.11303088 72.78644545 -0.11398714 75.38085938 -0.11352539 C76.1375592 -0.11712067 76.89425903 -0.12071594 77.67388916 -0.12442017 C90.349784 -0.100144 90.349784 -0.100144 95 3 C95 3.66 95 4.32 95 5 C95.66 5 96.32 5 97 5 C97 8.3 97 11.6 97 15 C95.68 14.67 94.36 14.34 93 14 C90.20976391 13.88214704 87.44236767 13.81501688 84.65136719 13.79467773 C83.81197601 13.78477814 82.97258484 13.77487854 82.10775757 13.76467896 C79.33749192 13.73313002 76.56720914 13.70833265 73.796875 13.68359375 C71.87444619 13.66301852 69.95202184 13.6420219 68.02960205 13.62062073 C62.97277445 13.56545884 57.91590643 13.51602361 52.85900879 13.46777344 C47.69763597 13.41751546 42.53632179 13.36185182 37.375 13.30664062 C27.2500501 13.19913101 17.12504927 13.09767005 7 13 C7 12.67 7 12.34 7 12 C47.095 11.505 47.095 11.505 88 11 C87.01 9.515 87.01 9.515 86 8 C85.505 5.525 85.505 5.525 85 3 C43.915 2.505 43.915 2.505 2 2 C2 2.66 2 3.32 2 4 C2.66 4 3.32 4 4 4 C4 4.99 4 5.98 4 7 C3.34 7 2.68 7 2 7 C1.34 4.69 0.68 2.38 0 0 Z " fill="#D46B7E" transform="translate(120,25)"/>
<path d="M0 0 C1.32 0 2.64 0 4 0 C4.10864945 2.06132142 4.18588321 4.12431321 4.25 6.1875 C4.29640625 7.33605469 4.3428125 8.48460938 4.390625 9.66796875 C3.92924572 13.60353399 2.70028512 15.17745787 0 18 C1.20398438 18.04898438 2.40796875 18.09796875 3.6484375 18.1484375 C5.22398198 18.22346343 6.79950166 18.29901133 8.375 18.375 C9.1690625 18.4059375 9.963125 18.436875 10.78125 18.46875 C16.7734375 18.7734375 16.7734375 18.7734375 19 21 C19.66 20.67 20.32 20.34 21 20 C20.67 21.32 20.34 22.64 20 24 C18 24 16 24 14 24 C14 22.68 14 21.36 14 20 C13.34 20 12.68 20 12 20 C11.67 21.32 11.34 22.64 11 24 C11 22.68 11 21.36 11 20 C10.01 20.33 9.02 20.66 8 21 C8.33 21.99 8.66 22.98 9 24 C8.67 24.99 8.34 25.98 8 27 C9.2375 26.7525 9.2375 26.7525 10.5 26.5 C14.41272317 25.94103955 18.05183173 25.93192813 22 26 C22.33 27.65 22.66 29.3 23 31 C19.24329669 31.96600942 16.75750219 31.77076968 13 31 C11.65737935 31.29369827 10.32303717 31.6278958 9 32 C7.33376361 32.03786901 5.66602403 32.04627845 4 32 C3.814375 31.360625 3.62875 30.72125 3.4375 30.0625 C2.06564692 27.58329642 2.06564692 27.58329642 -1.5625 27.3125 C-2.696875 27.209375 -3.83125 27.10625 -5 27 C-6.85676412 25.14323588 -6.40661897 22.48165487 -6.66796875 19.9921875 C-6.90202673 17.87806443 -6.90202673 17.87806443 -8.25 15.8125 C-8.4975 15.214375 -8.745 14.61625 -9 14 C-7.625 11.25 -7.625 11.25 -6 9 C-4.68 9.33 -3.36 9.66 -2 10 C-1.67 11.32 -1.34 12.64 -1 14 C-0.67 9.38 -0.34 4.76 0 0 Z " fill="#F5ECEF" transform="translate(49,109)"/>
<path d="M0 0 C1.09048645 -0.00262848 1.09048645 -0.00262848 2.20300293 -0.00531006 C4.6126543 -0.00972093 7.02223261 -0.00679296 9.43188477 -0.00341797 C11.10335809 -0.0040913 12.77483133 -0.00506157 14.44630432 -0.00631714 C17.95265636 -0.00779313 21.45898295 -0.00564297 24.96533203 -0.00097656 C29.46246336 0.00471627 33.95953496 0.00144393 38.45666409 -0.00454903 C41.90957591 -0.00816103 45.36247356 -0.00701302 48.81538582 -0.00442123 C50.473603 -0.00375351 52.13182147 -0.00457501 53.79003716 -0.00690079 C56.10745532 -0.00943728 58.42477656 -0.00557239 60.7421875 0 C62.0618602 0.00079559 63.3815329 0.00159119 64.74119568 0.00241089 C67.93579102 0.12939453 67.93579102 0.12939453 70.93579102 1.12939453 C70.93579102 2.11939453 70.93579102 3.10939453 70.93579102 4.12939453 C44.86579102 4.12939453 18.79579102 4.12939453 -8.06420898 4.12939453 C-8.39420898 3.13939453 -8.72420898 2.14939453 -9.06420898 1.12939453 C-6.06956035 -0.36792978 -3.33982963 0.0020147 0 0 Z " fill="#DDC2C6" transform="translate(21.064208984375,4.87060546875)"/>
<path d="M0 0 C0 0.99 0 1.98 0 3 C-2.15234375 4.75390625 -2.15234375 4.75390625 -4.9375 6.5625 C-8.57286085 8.73274562 -8.57286085 8.73274562 -11 12 C-11.50070321 15.37357334 -11.50070321 15.37357334 -11 19 C-7.85663422 22.82301244 -4.89125383 25.77680855 0.14453125 26.37109375 C7.98470244 26.82405767 7.98470244 26.82405767 14.8125 23.625 C17.12820252 20.84615697 17.8931241 19.78375659 18.375 16.25 C17.85819514 11.77102456 16.07264838 10.2262808 13 7 C17.31566167 7.47951796 19.2019941 8.70235018 22 12 C23.50889469 15.01778937 23.50026276 16.62322637 23 20 C19.82865486 24.80615122 16.59849763 28.30527406 11 30 C3.15781416 30.90261332 -3.72651581 30.1241175 -10.1640625 25.41796875 C-13.80313747 22.38099527 -17.12933821 19.44282175 -19 15 C-19.1875 12.1875 -19.1875 12.1875 -19 10 C-18.41992188 9.82984375 -17.83984375 9.6596875 -17.2421875 9.484375 C-12.23477627 7.93092069 -8.25092575 6.16347963 -4 3 C-3.21625 2.4225 -2.4325 1.845 -1.625 1.25 C-1.08875 0.8375 -0.5525 0.425 0 0 Z " fill="#85347A" transform="translate(68,76)"/>
<path d="M0 0 C0.99 0.33 1.98 0.66 3 1 C1.515 1.9590625 1.515 1.9590625 0 2.9375 C-2.07379707 4.65663344 -2.89639254 5.59755196 -3.57421875 8.23046875 C-3.6888829 10.65423167 -3.58845401 12.64618396 -3 15 C-1.16568268 17.38560001 -1.16568268 17.38560001 2 18 C6.11022789 18.08776287 9.71205336 17.54737732 13.5 15.9375 C15.92396311 12.80654764 15.81311965 9.92448736 16 6 C15.67 5.34 15.34 4.68 15 4 C17.86503068 5.2843241 20.15427705 6.41598787 22 9 C22.5 11.8125 22.5 11.8125 22 15 C19.57184111 18.41254763 17.48478855 20.67680763 14 23 C7.8030292 23.73958822 1.06312307 24.42469674 -4.25 20.6875 C-7.39931697 17.60975842 -8.86710802 16.02516669 -9.4375 11.625 C-8.8848245 7.0456887 -7.51266402 5.87399783 -4 3 C-3.29875 2.38125 -2.5975 1.7625 -1.875 1.125 C-1.25625 0.75375 -0.6375 0.3825 0 0 Z " fill="#D02C89" transform="translate(65,80)"/>
<path d="M0 0 C3.96 0 7.92 0 12 0 C11.67 0.66 11.34 1.32 11 2 C9.68 1.67 8.36 1.34 7 1 C7 6.28 7 11.56 7 17 C8.32 17 9.64 17 11 17 C11 14.69 11 12.38 11 10 C11.66 10 12.32 10 13 10 C16 15.75 16 15.75 16 18 C18.97 18 21.94 18 25 18 C24.4740625 19.423125 24.4740625 19.423125 23.9375 20.875 C22.64973223 23.87060172 22.64973223 23.87060172 24 26 C18.87080814 28.10428384 14.4389165 28.21755666 9 28 C9.020625 27.21625 9.04125 26.4325 9.0625 25.625 C9.18684063 23.01885039 9.18684063 23.01885039 8 21 C10.31 21 12.62 21 15 21 C15 22.32 15 23.64 15 25 C15.66 25 16.32 25 17 25 C17.33 24.01 17.66 23.02 18 22 C18.99 22.99 19.98 23.98 21 25 C21 24.01 21 23.02 21 22 C20.34 22.33 19.68 22.66 19 23 C18.67 22.34 18.34 21.68 18 21 C16.22882813 20.92652344 16.22882813 20.92652344 14.421875 20.8515625 C12.86456063 20.77651121 11.30727009 20.70096439 9.75 20.625 C8.97269531 20.5940625 8.19539063 20.563125 7.39453125 20.53125 C0.27568856 20.16618114 0.27568856 20.16618114 -3 18 C-2.030625 17.71125 -1.06125 17.4225 -0.0625 17.125 C3.10664203 16.35785318 3.10664203 16.35785318 4 14 C4.22950319 11.795636 4.41075933 9.58607827 4.5625 7.375 C4.68818359 5.59222656 4.68818359 5.59222656 4.81640625 3.7734375 C4.87699219 2.85820313 4.93757813 1.94296875 5 1 C3.68 1 2.36 1 1 1 C1 5.62 1 10.24 1 15 C0.01 15 -0.98 15 -2 15 C-1.67 14.01 -1.34 13.02 -1 12 C-0.77674186 9.94106379 -0.59294241 7.87766347 -0.4375 5.8125 C-0.293125 3.894375 -0.14875 1.97625 0 0 Z " fill="#E8D3DD" transform="translate(48,108)"/>
<path d="M0 0 C1.81927509 1.07559337 3.60735683 2.20707493 5.34765625 3.40625 C8.61627872 4.99459623 10.3923514 4.56259371 13.84765625 3.62109375 C16.64663568 2.15998359 16.64663568 2.15998359 18.84765625 0.62109375 C18.54377461 3.55861629 18.04095969 4.46190268 15.72265625 6.37109375 C12.04577247 7.96973887 9.83095397 8.17051412 5.84765625 7.62109375 C3.88218403 6.49276711 2.1771286 5.24876851 0.42578125 3.8125 C-2.85825814 1.33321284 -6.19115404 1.42934654 -10.15234375 1.37109375 C-11.20421875 1.3453125 -12.25609375 1.31953125 -13.33984375 1.29296875 C-16.18444569 1.3709847 -16.18444569 1.3709847 -18.02734375 3.13671875 C-18.39859375 3.6265625 -18.76984375 4.11640625 -19.15234375 4.62109375 C-18.01796875 4.66234375 -16.88359375 4.70359375 -15.71484375 4.74609375 C-9.0049277 5.57741078 -3.99961815 9.93104422 0.91015625 14.30859375 C4.46137271 17.10423224 7.57130641 18.22022053 11.84765625 19.62109375 C11.35265625 22.09609375 11.35265625 22.09609375 10.84765625 24.62109375 C10.18765625 24.29109375 9.52765625 23.96109375 8.84765625 23.62109375 C8.84765625 22.63109375 8.84765625 21.64109375 8.84765625 20.62109375 C7.61015625 20.55921875 7.61015625 20.55921875 6.34765625 20.49609375 C0.96517137 19.15047253 -2.63321958 15.68115202 -6.8671875 12.21875 C-11.57501938 8.57433426 -16.40477788 7.04352957 -22.15234375 5.62109375 C-21.90234375 3.24609375 -21.90234375 3.24609375 -21.15234375 0.62109375 C-15.7417323 -3.57436855 -5.8692436 -2.56733952 0 0 Z " fill="#FAF3F4" transform="translate(37.15234375,65.37890625)"/>
<path d="M0 0 C0.86560547 0.00902344 1.73121094 0.01804688 2.62304688 0.02734375 C4.72798779 0.05060277 6.83278342 0.08645992 8.9375 0.125 C9.4325 2.105 9.4325 2.105 9.9375 4.125 C8.2875 5.115 6.6375 6.105 4.9375 7.125 C5.4325 9.6 5.4325 9.6 5.9375 12.125 C3.9575 13.115 3.9575 13.115 1.9375 14.125 C2.2675 13.135 2.5975 12.145 2.9375 11.125 C-2.97510345 10.86793028 -8.30168159 11.8267874 -14.0625 13.125 C-11.04968835 10.68910973 -8.03705563 9.06881651 -4.5 7.5 C-3.54996094 7.07460938 -2.59992188 6.64921875 -1.62109375 6.2109375 C0.9375 5.125 0.9375 5.125 3.9375 4.125 C-8.19995891 3.59643324 -18.39597604 5.17636164 -29.0625 11.125 C-29.125 8.875 -29.125 8.875 -28.0625 6.125 C-19.763195 0.67222723 -9.64352145 -0.19451634 0 0 Z " fill="#FCF2E4" transform="translate(100.0625,40.875)"/>
<path d="M0 0 C0 0.99 0 1.98 0 3 C0.99 3.33 1.98 3.66 3 4 C2.67 5.65 2.34 7.3 2 9 C1.01 9.33 0.02 9.66 -1 10 C-0.67 8.68 -0.34 7.36 0 6 C-6.96638468 8.72787241 -6.96638468 8.72787241 -13 13 C-13.33 13.99 -13.66 14.98 -14 16 C-13.34 16 -12.68 16 -12 16 C-12 16.66 -12 17.32 -12 18 C-10.68 18.66 -9.36 19.32 -8 20 C-8.39143023 22.27029534 -8.88741278 23.83408198 -10.1875 25.75 C-12.84280991 27.58124821 -14.85640082 27.33442545 -18 27 C-20 25 -20 25 -20.5 22.4375 C-19.32398529 14.35239885 -13.13137649 8.82180278 -7.24609375 3.62890625 C-4.91033234 1.93497145 -2.71461475 0.94939954 0 0 Z " fill="#FAEDF2" transform="translate(87,66)"/>
<path d="M0 0 C27.72 0 55.44 0 84 0 C84 0.99 84 1.98 84 3 C56.94 2.67 29.88 2.34 2 2 C2 2.66 2 3.32 2 4 C2.66 4 3.32 4 4 4 C4 4.99 4 5.98 4 7 C3.34 7 2.68 7 2 7 C1.34 4.69 0.68 2.38 0 0 Z " fill="#D87C8E" transform="translate(120,25)"/>
<path d="M0 0 C6.12096691 1.05486051 10.75506674 2.65217026 16 6 C15.56870422 8.41525638 15.13696682 9.83325779 13.5625 11.75 C11.96415424 14.05161789 11.68176341 15.24931226 11.1875 17.9375 C10.48067358 21.03710766 9.65514854 22.8246835 7.3125 25 C3.51384391 27.29352821 1.35943716 27.43594372 -3 27 C-3.33 26.34 -3.66 25.68 -4 25 C-3.44570313 24.81824219 -2.89140625 24.63648437 -2.3203125 24.44921875 C-1.59585938 24.19785156 -0.87140625 23.94648437 -0.125 23.6875 C0.59429687 23.44386719 1.31359375 23.20023438 2.0546875 22.94921875 C4.33994905 22.03664453 4.33994905 22.03664453 6 19 C6.59949547 14.40646326 6.55183406 10.261335 4.6875 6 C2.97536603 3.78264147 2.97536603 3.78264147 0 2 C0 1.34 0 0.68 0 0 Z " fill="#B70B6D" transform="translate(50,48)"/>
<path d="M0 0 C3.88745873 1.45779703 6.73270935 3.49507716 10 6 C13.62654939 8.37601512 16.72701623 8.29985851 21 8 C23.83378132 7.1025173 23.83378132 7.1025173 26 6 C21.375 11.875 21.375 11.875 18 13 C10.43017375 13.62047756 7.30096619 11.7373866 1.4375 6.875 C-2.95829856 3.49361649 -6.48037704 2.64002459 -12 3 C-12.99 3.33 -13.98 3.66 -15 4 C-14.67 3.01 -14.34 2.02 -14 1 C-9.84131748 -1.07934126 -4.5403832 -0.33874587 0 0 Z " fill="#F7BC88" transform="translate(33,66)"/>
<path d="M0 0 C-1 3 -1 3 -3.0625 4.1875 C-3.701875 4.455625 -4.34125 4.72375 -5 5 C-4.34 5.66 -3.68 6.32 -3 7 C-3.1875 9.0625 -3.1875 9.0625 -4 11 C-4.99 11.33 -5.98 11.66 -7 12 C-7.99 11.34 -8.98 10.68 -10 10 C-15.59859143 10.47337684 -19.68407954 13.62588382 -24 17 C-24.99 18.2375 -24.99 18.2375 -26 19.5 C-29.70003349 24.12504186 -35.51531464 27.751279 -41 30 C-44.75 29.625 -44.75 29.625 -48 29 C-48 28.67 -48 28.34 -48 28 C-47.3709375 27.92523438 -46.741875 27.85046875 -46.09375 27.7734375 C-37.42668565 26.44205111 -32.30894994 22.97654967 -26.875 16.1875 C-21.31716735 9.51296656 -8.72242664 0 0 0 Z " fill="#F4DEE9" transform="translate(95,56)"/>
<path d="M0 0 C6.65997636 -0.55499803 11.39402634 1.16431649 16.6640625 5.30859375 C17.41816406 5.96021484 17.41816406 5.96021484 18.1875 6.625 C20.79882587 8.83011962 22.78273374 9.95911974 26 11 C26 11.66 26 12.32 26 13 C32.552622 12.69663787 37.32891895 11.26393154 43 8 C43.66 7.67 44.32 7.34 45 7 C43.49364535 11.21779303 40.75987578 12.7747674 37 15 C31.70570053 16.76476649 26.7613392 16.52531169 21.4375 14.9375 C17.83411199 12.90649948 15.21549417 10.57624804 12.19921875 7.78515625 C8.51752562 4.79664158 4.31192865 2.9173945 0 1 C0 0.67 0 0.34 0 0 Z " fill="#712977" transform="translate(20,68)"/>
<path d="M0 0 C-3.39850079 1.90382845 -6.79832715 2.79108222 -10.5625 3.75 C-22.24452893 7.05486414 -30.35476317 12.56104865 -39 21 C-39.61328125 19.203125 -39.61328125 19.203125 -40 17 C-38.1875 13.75 -38.1875 13.75 -36 11 C-35.34 11 -34.68 11 -34 11 C-33.67 10.01 -33.34 9.02 -33 8 C-22.4801419 1.18895513 -12.26780087 -0.41981068 0 0 Z " fill="#FCDB8B" transform="translate(102,44)"/>
<path d="M0 0 C-0.14179687 0.59167969 -0.28359375 1.18335937 -0.4296875 1.79296875 C-0.895971 4.3002651 -1.18810447 6.45203946 -1 9 C0.74165975 11.31486423 2.53218035 12.37123903 5 14 C6.20272819 16.40545638 6.10071472 17.94996953 6.0625 20.625 C6.05347656 21.44226563 6.04445313 22.25953125 6.03515625 23.1015625 C6.02355469 23.72804688 6.01195313 24.35453125 6 25 C5.34 24.67 4.68 24.34 4 24 C3.54296875 21.78515625 3.54296875 21.78515625 3.1875 19.0625 C2.76235539 16.3671481 2.76235539 16.3671481 2 14 C-0.37470438 12.29801073 -0.37470438 12.29801073 -3 12 C-3.66 11.67 -4.32 11.34 -5 11 C-6.53668865 10.77532169 -8.07968054 10.59203195 -9.625 10.4375 C-10.44226563 10.35371094 -11.25953125 10.26992187 -12.1015625 10.18359375 C-12.72804688 10.12300781 -13.35453125 10.06242187 -14 10 C-13.61256127 7.54447615 -13.30405354 6.28924068 -11.4765625 4.55078125 C-10.86554688 4.14214844 -10.25453125 3.73351562 -9.625 3.3125 C-9.01914063 2.89613281 -8.41328125 2.47976562 -7.7890625 2.05078125 C-5.10065521 0.47178221 -3.1188592 0 0 0 Z " fill="#F8EDF1" transform="translate(87,72)"/>
<path d="M0 0 C-1.28388285 2.5677657 -2.3435438 2.79177115 -4.9375 3.953125 C-6.15119263 4.50722046 -6.15119263 4.50722046 -7.3894043 5.07250977 C-8.68164917 5.65536743 -8.68164917 5.65536743 -10 6.25 C-16.71495672 9.3425213 -23.10165056 12.48324593 -29 17 C-29 16.34 -29 15.68 -29 15 C-29.99 15.33 -30.98 15.66 -32 16 C-30.65820579 12.93965162 -29.2520482 11.06988487 -26.6875 8.9375 C-26.11386719 8.45152344 -25.54023437 7.96554688 -24.94921875 7.46484375 C-20.8239061 4.36465889 -17.08615135 2.53446925 -12.0625 1.3125 C-11.06347656 1.06113281 -10.06445312 0.80976562 -9.03515625 0.55078125 C-5.954675 -0.008225 -3.12343535 -0.09775282 0 0 Z " fill="#AE2874" transform="translate(102,51)"/>
<path d="M0 0 C1.32 0 2.64 0 4 0 C4.33 1.65 4.66 3.3 5 5 C6.32 3.35 7.64 1.7 9 0 C9.99 0.33 10.98 0.66 12 1 C10.35 2.98 8.7 4.96 7 7 C7.61875 7.185625 8.2375 7.37125 8.875 7.5625 C12.05602866 9.71437233 12.19451947 12.37533763 13 16 C11.35 15.67 9.7 15.34 8 15 C7.34 13.02 6.68 11.04 6 9 C5.34 9 4.68 9 4 9 C4 11.31 4 13.62 4 16 C2.68 16 1.36 16 0 16 C0 10.72 0 5.44 0 0 Z " fill="#A2387C" transform="translate(55,109)"/>
<path d="M0 0 C4.31566167 0.47951796 6.2019941 1.70235018 9 5 C10.50889469 8.01778937 10.50026276 9.62322637 10 13 C7.2800428 16.98878441 4.6467631 20.45107897 0 22 C-2.06145107 22.068991 -4.12501401 22.08467727 -6.1875 22.0625 C-7.81751953 22.04896484 -7.81751953 22.04896484 -9.48046875 22.03515625 C-10.31191406 22.02355469 -11.14335938 22.01195313 -12 22 C-12 21.67 -12 21.34 -12 21 C-11.34773438 20.91363281 -10.69546875 20.82726562 -10.0234375 20.73828125 C-3.85659189 19.74685622 -0.37990323 18.49220844 4 14 C5.45147903 11.09704195 5.37239025 9.22738221 5 6 C3.52631484 3.72248656 1.88564762 1.97993 0 0 Z " fill="#5E2060" transform="translate(81,83)"/>
<path d="M0 0 C2.86503068 1.2843241 5.15427705 2.41598787 7 5 C7.5 7.8125 7.5 7.8125 7 11 C4.57184111 14.41254763 2.48478855 16.67680763 -1 19 C-3.33199388 19.07905064 -5.66832622 19.08798769 -8 19 C-7.04270084 17.87411986 -6.08412105 16.7493285 -5.125 15.625 C-4.59132813 14.99851562 -4.05765625 14.37203125 -3.5078125 13.7265625 C-2.38567993 12.44163349 -1.20628025 11.20628025 0 10 C0.49644452 8.09776401 0.49644452 8.09776401 0.6875 6 C0.77386719 5.29875 0.86023438 4.5975 0.94921875 3.875 C1.14989516 1.9070696 1.14989516 1.9070696 0 0 Z " fill="#DE1F7B" transform="translate(80,84)"/>
<path d="M0 0 C1.32 0.33 2.64 0.66 4 1 C4.24915939 2.76813112 4.47366632 4.53974982 4.6875 6.3125 C4.81511719 7.29863281 4.94273437 8.28476563 5.07421875 9.30078125 C5 12 5 12 3.75 13.84375 C0.95803679 15.68843998 -1.75622628 15.18360983 -5 15 C-4.54901762 13.06077578 -4.08894441 11.12366406 -3.625 9.1875 C-3.24214844 7.56908203 -3.24214844 7.56908203 -2.8515625 5.91796875 C-2 3 -2 3 0 0 Z " fill="#FB90A4" transform="translate(211,165)"/>
<path d="M0 0 C1.32 0 2.64 0 4 0 C4.08126087 2.08268593 4.13930839 4.16628658 4.1875 6.25 C4.22230469 7.41015625 4.25710937 8.5703125 4.29296875 9.765625 C3.9778946 13.24404363 3.47335428 14.58539523 1 17 C-1.93664297 17.51391252 -3.34876331 17.4124499 -5.875 15.8125 C-7 14 -7 14 -6.6875 11.3125 C-6.460625 10.549375 -6.23375 9.78625 -6 9 C-4.02 9.495 -4.02 9.495 -2 10 C-1.67 11.32 -1.34 12.64 -1 14 C-0.67 9.38 -0.34 4.76 0 0 Z " fill="#7B346D" transform="translate(49,109)"/>
<path d="M0 0 C5.61 0 11.22 0 17 0 C17.33 1.65 17.66 3.3 18 5 C14.24329669 5.96600942 11.75750219 5.77076968 8 5 C5.94603274 5.40929986 5.94603274 5.40929986 4 6 C2.68 6 1.36 6 0 6 C0 4 0 2 0 0 Z " fill="#B894AE" transform="translate(54,135)"/>
<path d="M0 0 C2.31 0 4.62 0 7 0 C6.67 0.99 6.34 1.98 6 3 C6.185625 3.78375 6.37125 4.5675 6.5625 5.375 C7.10767167 8.64603 6.59365285 10.11624722 5 13 C2.37828105 15.81592036 1.17311195 15.9913444 -2.75 16.1875 C-3.8225 16.125625 -4.895 16.06375 -6 16 C-6 14.66666667 -6 13.33333333 -6 12 C-5.071875 11.731875 -4.14375 11.46375 -3.1875 11.1875 C0.52429405 9.8444782 0.52429405 9.8444782 3 7 C2.92393164 4.86196946 2.92393164 4.86196946 2 3 C1.34 2.67 0.68 2.34 0 2 C0 1.34 0 0.68 0 0 Z " fill="#843070" transform="translate(75,82)"/>
<path d="M0 0 C0.66 0 1.32 0 2 0 C1.77390089 3.95673443 1.06853815 4.93729488 -1.9375 7.6875 C-3.4534375 8.8321875 -3.4534375 8.8321875 -5 10 C-5.66 10.66 -6.32 11.32 -7 12 C-6.34 12.66 -5.68 13.32 -5 14 C-4.625 16.4375 -4.625 16.4375 -5 19 C-7 20.8125 -7 20.8125 -9 22 C-9 21.01 -9 20.02 -9 19 C-9.31088368 17.32900023 -9.64080332 15.66128463 -10 14 C-12.97 13.01 -15.94 12.02 -19 11 C-19 10.67 -19 10.34 -19 10 C-18.33613281 9.89042969 -17.67226562 9.78085938 -16.98828125 9.66796875 C-9.02045031 8.23724874 -5.06471386 6.4618763 0 0 Z " fill="#F7E7EE" transform="translate(90,96)"/>
<path d="M0 0 C2.80362763 -0.22732116 4.46186517 -0.34081872 6.875 1.1875 C8 3 8 3 7.875 5.5 C6.96490929 8.10025916 6.09873235 9.26626458 4 11 C1.5625 10.3125 1.5625 10.3125 -1 9 C-2.16822469 6.04049744 -2.26109611 4.64403708 -1.0625 1.6875 C-0.711875 1.130625 -0.36125 0.57375 0 0 Z " fill="#FCB3A6" transform="translate(58,34)"/>
<path d="M0 0 C0 0.99 0 1.98 0 3 C-2.046875 4.61328125 -2.046875 4.61328125 -4.75 6.3125 C-10.48194549 10.14998893 -13.11580905 13.75091961 -16 20 C-18.40814077 16.48812804 -19.36629408 14.27343092 -19 10 C-18.41992188 9.82984375 -17.83984375 9.6596875 -17.2421875 9.484375 C-12.23477627 7.93092069 -8.25092575 6.16347963 -4 3 C-3.21625 2.4225 -2.4325 1.845 -1.625 1.25 C-1.08875 0.8375 -0.5525 0.425 0 0 Z " fill="#842574" transform="translate(68,76)"/>
<path d="M0 0 C4.875 0.875 4.875 0.875 6 2 C6.07271741 4.35313555 6.08370868 6.70833668 6.0625 9.0625 C6.05347656 10.35285156 6.04445313 11.64320312 6.03515625 12.97265625 C6.02355469 13.97167969 6.01195313 14.97070312 6 16 C3 15 3 15 1.4375 12 C0.963125 11.01 0.48875 10.02 0 9 C-0.66 8.67 -1.32 8.34 -2 8 C-0.84826645 5.53199953 0.04783565 3.95216435 2 2 C1.34 1.34 0.68 0.68 0 0 Z " fill="#F8F3F4" transform="translate(64,108)"/>
<path d="M0 0 C1.07765625 0.11085938 2.1553125 0.22171875 3.265625 0.3359375 C4.08546875 0.43132812 4.9053125 0.52671875 5.75 0.625 C4.76 0.955 3.77 1.285 2.75 1.625 C3.08 3.605 3.41 5.585 3.75 7.625 C4.41 7.625 5.07 7.625 5.75 7.625 C5.75 8.285 5.75 8.945 5.75 9.625 C2.45 9.295 -0.85 8.965 -4.25 8.625 C-3.59 6.645 -2.93 4.665 -2.25 2.625 C-4.89 2.295 -7.53 1.965 -10.25 1.625 C-6.69181064 -0.63773207 -4.12452049 -0.44831744 0 0 Z " fill="#E8C7D7" transform="translate(74.25,124.375)"/>
<path d="M0 0 C0.99 0.33 1.98 0.66 3 1 C3 5 3 5 1.359375 6.73828125 C-1.55131882 8.29482778 -3.46935435 8.30466592 -6.75 8.1875 C-7.73484375 8.16042969 -8.7196875 8.13335937 -9.734375 8.10546875 C-10.48203125 8.07066406 -11.2296875 8.03585938 -12 8 C-11.979375 7.21625 -11.95875 6.4325 -11.9375 5.625 C-11.81315937 3.01885039 -11.81315937 3.01885039 -13 1 C-10.69 1 -8.38 1 -6 1 C-6 2.32 -6 3.64 -6 5 C-5.34 5 -4.68 5 -4 5 C-3.67 4.01 -3.34 3.02 -3 2 C-2.01 2.99 -1.02 3.98 0 5 C0 3.35 0 1.7 0 0 Z " fill="#EEE3E7" transform="translate(69,128)"/>
<path d="M0 0 C1.65 0 3.3 0 5 0 C4.814375 1.155 4.62875 2.31 4.4375 3.5 C3.8764276 7.86389648 4.30367814 11.66733065 5 16 C3.35 16 1.7 16 0 16 C0 10.72 0 5.44 0 0 Z " fill="#B42A7D" transform="translate(70,109)"/>
<path d="M0 0 C2 1 2 1 5 3 C4.67 4.65 4.34 6.3 4 8 C3.01 8.33 2.02 8.66 1 9 C1.33 8.01 1.66 7.02 2 6 C-3.91260345 5.74293028 -9.23918159 6.7017874 -15 8 C-11.96943208 5.55831021 -8.90981404 3.86972611 -5.375 2.25 C-4.41335937 1.80140625 -3.45171875 1.3528125 -2.4609375 0.890625 C-1.64882812 0.59671875 -0.83671875 0.3028125 0 0 Z " fill="#FBF2F5" transform="translate(101,46)"/>
<path d="M0 0 C0 0.99 0 1.98 0 3 C-1.42578125 4.3515625 -1.42578125 4.3515625 -3.3125 5.625 C-3.92738281 6.05039063 -4.54226562 6.47578125 -5.17578125 6.9140625 C-8.27002438 8.75603164 -10.97048069 9.17940961 -14.5 9.25 C-15.66015625 9.28867188 -15.66015625 9.28867188 -16.84375 9.328125 C-19.48830838 8.9256922 -20.33240802 8.03104151 -22 6 C-21.154375 5.97421875 -20.30875 5.9484375 -19.4375 5.921875 C-8.85872287 5.43333314 -8.85872287 5.43333314 0 0 Z " fill="#59215D" transform="translate(64,75)"/>
<path d="M0 0 C1.32 0.33 2.64 0.66 4 1 C4 5.95 4 10.9 4 16 C2.68 16 1.36 16 0 16 C0 10.72 0 5.44 0 0 Z " fill="#822368" transform="translate(55,109)"/>
<path d="M0 0 C6.12096691 1.05486051 10.75506674 2.65217026 16 6 C15.43628586 9.26954202 14.50037734 10.82575883 12 13 C9 7.25 9 7.25 9 5 C7.6078125 4.5359375 7.6078125 4.5359375 6.1875 4.0625 C4.125 3.375 2.0625 2.6875 0 2 C0 1.34 0 0.68 0 0 Z " fill="#F83E8F" transform="translate(50,48)"/>
<path d="M0 0 C6.27 0 12.54 0 19 0 C19.33 1.32 19.66 2.64 20 4 C17.6875 5.5625 17.6875 5.5625 15 7 C14.01 6.67 13.02 6.34 12 6 C12.66 5.34 13.32 4.68 14 4 C14.99 4 15.98 4 17 4 C17 3.34 17 2.68 17 2 C11.39 2 5.78 2 0 2 C0 1.34 0 0.68 0 0 Z " fill="#FEF9F9" transform="translate(90,41)"/>
<path d="M0 0 C1.60332791 -0.08121924 3.20784026 -0.13929134 4.8125 -0.1875 C6.15248047 -0.23970703 6.15248047 -0.23970703 7.51953125 -0.29296875 C10 0 10 0 11.84375 1.375 C13 3 13 3 12.6875 5.1875 C12.3471875 6.0846875 12.3471875 6.0846875 12 7 C9.69 7.33 7.38 7.66 5 8 C5 6.02 5 4.04 5 2 C3.35 2 1.7 2 0 2 C0 1.34 0 0.68 0 0 Z " fill="#D959A0" transform="translate(69,108)"/>
<path d="M0 0 C-1 2 -1 2 -3.4375 2.9375 C-4.613125 3.288125 -5.78875 3.63875 -7 4 C-8.666741 4.49975216 -10.33340253 4.99976939 -12 5.5 C-13.28003906 5.88091797 -13.28003906 5.88091797 -14.5859375 6.26953125 C-17.41006965 7.12408256 -20.20834338 8.04495958 -23 9 C-21.63016497 5.83884224 -21.0109362 5.0072908 -18 3 C-16.08092109 2.39630707 -14.13965796 1.86119783 -12.1875 1.375 C-11.17042969 1.11460938 -10.15335938 0.85421875 -9.10546875 0.5859375 C-5.99225142 -0.001462 -3.15977385 -0.10390886 0 0 Z " fill="#CE2F8B" transform="translate(102,51)"/>
<path d="M0 0 C0 2 0 4 0 6 C-5.97332123 9.4753869 -10.11509775 10.57374185 -17 10 C-17 9.34 -17 8.68 -17 8 C-15.91332031 7.76216797 -15.91332031 7.76216797 -14.8046875 7.51953125 C-8.58631093 6.0188297 -4.54097559 4.54097559 0 0 Z " fill="#8A2173" transform="translate(63,71)"/>
<path d="M0 0 C4.34837629 1.89747329 7.34509994 4.92420269 10.78125 8.125 C12.80210453 9.8327644 14.58862556 10.94776388 17 12 C16.34 12 15.68 12 15 12 C15 12.66 15 13.32 15 14 C14.34 14 13.68 14 13 14 C13 13.34 13 12.68 13 12 C12.319375 11.979375 11.63875 11.95875 10.9375 11.9375 C6.58566337 10.54861597 3.76368268 7.58832994 1 4 C0.296875 1.76953125 0.296875 1.76953125 0 0 Z " fill="#F9E5EE" transform="translate(48,93)"/>
<path d="M0 0 C0 0.99 0 1.98 0 3 C0.99 3.33 1.98 3.66 3 4 C2.67 5.65 2.34 7.3 2 9 C1.01 9.33 0.02 9.66 -1 10 C-0.67 8.68 -0.34 7.36 0 6 C-2.97 6.66 -5.94 7.32 -9 8 C-6.48592381 3.71675909 -4.87685861 1.35468295 0 0 Z " fill="#FCF4F7" transform="translate(87,66)"/>
<path d="M0 0 C-1.7288805 1.41701589 -3.45811746 2.83359686 -5.1875 4.25 C-6.63189453 5.43335937 -6.63189453 5.43335937 -8.10546875 6.640625 C-10.72500523 8.77584772 -13.35729197 10.89356361 -16 13 C-14.99686938 10.76224708 -14.15523165 9.1492612 -12.375 7.4375 C-10.65438868 5.97021721 -10.65438868 5.97021721 -11 3 C-4.03571429 -1.41964286 -4.03571429 -1.41964286 0 0 Z " fill="#9E3482" transform="translate(86,66)"/>
<path d="M0 0 C3.38552696 1.45094013 5.68132949 3.1216504 8 6 C8.75 9.25 8.75 9.25 9 12 C8.01 12.495 8.01 12.495 7 13 C7 12.01 7 11.02 7 10 C6.34 10 5.68 10 5 10 C5 11.98 5 13.96 5 16 C4.67 16 4.34 16 4 16 C3.81824219 14.77023438 3.81824219 14.77023438 3.6328125 13.515625 C3.46523438 12.43796875 3.29765625 11.3603125 3.125 10.25 C2.96257813 9.18265625 2.80015625 8.1153125 2.6328125 7.015625 C2.06776118 4.32291129 1.36577086 2.36427561 0 0 Z " fill="#C11D79" transform="translate(53,50)"/>
<path d="M0 0 C1.79133978 -0.05391993 3.58313899 -0.09275571 5.375 -0.125 C6.37273438 -0.14820312 7.37046875 -0.17140625 8.3984375 -0.1953125 C11 0 11 0 13 2 C13.66 1.67 14.32 1.34 15 1 C14.67 2.32 14.34 3.64 14 5 C12 5 10 5 8 5 C8 3.68 8 2.36 8 1 C7.34 1 6.68 1 6 1 C5.67 2.32 5.34 3.64 5 5 C5 3.68 5 2.36 5 1 C4.01 1.33 3.02 1.66 2 2 C2 3.32 2 4.64 2 6 C1.01 5.67 0.02 5.34 -1 5 C-0.67 3.35 -0.34 1.7 0 0 Z " fill="#996C91" transform="translate(55,128)"/>
<path d="M0 0 C0.66 0.33 1.32 0.66 2 1 C-3.58268283 6.88444947 -3.58268283 6.88444947 -8.04296875 7.09765625 C-8.75066406 7.08605469 -9.45835938 7.07445313 -10.1875 7.0625 C-12.0746875 7.0315625 -12.0746875 7.0315625 -14 7 C-13.34 6.34 -12.68 5.68 -12 5 C-12.33 4.01 -12.66 3.02 -13 2 C-12.31292969 2.02320312 -11.62585937 2.04640625 -10.91796875 2.0703125 C-10.01691406 2.08835937 -9.11585937 2.10640625 -8.1875 2.125 C-7.29417969 2.14820312 -6.40085937 2.17140625 -5.48046875 2.1953125 C-2.74597286 2.18285827 -2.74597286 2.18285827 0 0 Z " fill="#F39B71" transform="translate(57,72)"/>
<path d="M0 0 C0.33 1.32 0.66 2.64 1 4 C-11.57033762 14.19594051 -11.57033762 14.19594051 -17.875 13.6875 C-18.90625 13.460625 -19.9375 13.23375 -21 13 C-21 12.67 -21 12.34 -21 12 C-20.3709375 11.92523438 -19.741875 11.85046875 -19.09375 11.7734375 C-11.49491327 10.60614632 -6.07776227 7.92222765 -1.27734375 1.8046875 C-0.85582031 1.20914063 -0.43429688 0.61359375 0 0 Z " fill="#EAD0DD" transform="translate(68,72)"/>
<path d="M0 0 C2.475 0.99 2.475 0.99 5 2 C4.875 3.8125 4.875 3.8125 4 6 C0.9375 7.75 0.9375 7.75 -2 9 C-4 7 -4 7 -4.125 3.875 C-4.08375 2.92625 -4.0425 1.9775 -4 1 C-3.67 1 -3.34 1 -3 1 C-3 2.65 -3 4.3 -3 6 C-2.34 6 -1.68 6 -1 6 C-1.020625 5.195625 -1.04125 4.39125 -1.0625 3.5625 C-1 1 -1 1 0 0 Z " fill="#F9D6DF" transform="translate(71,84)"/>
<path d="M0 0 C4.38889325 0.66498383 7.9811485 2.18757677 12 4 C12 4.66 12 5.32 12 6 C10.35 6.66 8.7 7.32 7 8 C5.8274869 7.04882866 4.66212985 6.08882991 3.5 5.125 C2.8503125 4.59132813 2.200625 4.05765625 1.53125 3.5078125 C1.0259375 3.01023437 0.520625 2.51265625 0 2 C0 1.34 0 0.68 0 0 Z " fill="#6A1E6F" transform="translate(34,75)"/>
<path d="M0 0 C2.31 0 4.62 0 7 0 C7.33 1.65 7.66 3.3 8 5 C5.10765685 5.82638376 3.11257569 6 0 6 C0 4 0 2 0 0 Z " fill="#A7809F" transform="translate(54,135)"/>
<path d="M0 0 C0.66 0.33 1.32 0.66 2 1 C0.33710937 2.03060547 0.33710937 2.03060547 -1.359375 3.08203125 C-2.82297656 3.99209119 -4.28651491 4.90225278 -5.75 5.8125 C-6.47960937 6.26431641 -7.20921875 6.71613281 -7.9609375 7.18164062 C-11.41374251 9.33179647 -14.80661473 11.47050272 -18 14 C-18 13.01 -18 12.02 -18 11 C-12.74951342 6.36278747 -6.41891146 2.75096205 0 0 Z " fill="#A72872" transform="translate(89,50)"/>
<path d="M0 0 C-2.0625 2.5 -2.0625 2.5 -5 5 C-8.8125 5.3125 -8.8125 5.3125 -12 5 C-12 3.66666667 -12 2.33333333 -12 1 C-7.9472484 0.01751476 -4.16138263 -0.08159574 0 0 Z " fill="#8C288C" transform="translate(81,93)"/>
<path d="M0 0 C0.33 0 0.66 0 1 0 C1.433125 1.36125 1.433125 1.36125 1.875 2.75 C2.76531776 5.32202908 3.71494413 7.61346766 5 10 C1 10 1 10 -0.75 8.8125 C-2.4200394 6.39094287 -2.36962413 4.88306818 -2 2 C-1.34 1.34 -0.68 0.68 0 0 Z " fill="#841E72" transform="translate(55,90)"/>
<path d="M0 0 C0.66 0.33 1.32 0.66 2 1 C0.7632378 4.7102866 -1.00020293 5.60016234 -4 8 C-4.33 8.99 -4.66 9.98 -5 11 C-5.33 10.34 -5.66 9.68 -6 9 C-6.99 9.33 -7.98 9.66 -9 10 C-7.61811547 6.78956118 -6.07578097 4.95063635 -3.375 2.75 C-2.74335937 2.22921875 -2.11171875 1.7084375 -1.4609375 1.171875 C-0.73777344 0.59179688 -0.73777344 0.59179688 0 0 Z " fill="#C02784" transform="translate(79,57)"/>
<path d="M0 0 C0.66 0.33 1.32 0.66 2 1 C0.71283353 2.00578589 -0.57988658 3.00446798 -1.875 4 C-2.59429687 4.556875 -3.31359375 5.11375 -4.0546875 5.6875 C-6 7 -6 7 -8 7 C-8.33 7.99 -8.66 8.98 -9 10 C-9.66 10 -10.32 10 -11 10 C-10.61256127 7.54447615 -10.30405354 6.28924068 -8.4765625 4.55078125 C-7.86554688 4.14214844 -7.25453125 3.73351562 -6.625 3.3125 C-6.01914063 2.89613281 -5.41328125 2.47976562 -4.7890625 2.05078125 C-3 1 -3 1 0 0 Z " fill="#EF459F" transform="translate(84,72)"/>
<path d="M0 0 C1.32 0.33 2.64 0.66 4 1 C4.625 3.375 4.625 3.375 5 6 C4.34 6.66 3.68 7.32 3 8 C2.01 8 1.02 8 0 8 C0 5.36 0 2.72 0 0 Z " fill="#FD8A9E" transform="translate(61,35)"/>
<path d="M0 0 C0.33 0.99 0.66 1.98 1 3 C2.98 3 4.96 3 7 3 C6.67 3.66 6.34 4.32 6 5 C4.41705218 5.05437607 2.83355744 5.09296271 1.25 5.125 C0.36828125 5.14820313 -0.5134375 5.17140625 -1.421875 5.1953125 C-4.1135858 4.99139502 -5.69904974 4.36551721 -8 3 C-7.05125 2.690625 -6.1025 2.38125 -5.125 2.0625 C-2.13919592 1.12605258 -2.13919592 1.12605258 0 0 Z " fill="#FCF9FA" transform="translate(53,123)"/>
<path d="M0 0 C0.144375 0.598125 0.28875 1.19625 0.4375 1.8125 C1.40191418 5.96255595 1.40191418 5.96255595 4.5625 8.6875 C5.7690625 9.3371875 5.7690625 9.3371875 7 10 C5.1875 11.0625 5.1875 11.0625 3 12 C2.01 11.67 1.02 11.34 0 11 C0.33 10.67 0.66 10.34 1 10 C0.01 9.01 -0.98 8.02 -2 7 C-1.34 4.69 -0.68 2.38 0 0 Z " fill="#FCEFEA" transform="translate(56,36)"/>
<path d="M0 0 C2.64 0 5.28 0 8 0 C8 1.98 8 3.96 8 6 C6.68 5.67 5.36 5.34 4 5 C4 3.68 4 2.36 4 1 C3.67 1.99 3.34 2.98 3 4 C2.01 4.33 1.02 4.66 0 5 C0 3.35 0 1.7 0 0 Z " fill="#9B7193" transform="translate(45,128)"/>
<path d="M0 0 C0.66 0 1.32 0 2 0 C2.33 0.66 2.66 1.32 3 2 C3.66 1.67 4.32 1.34 5 1 C5 1.99 5 2.98 5 4 C5.99 4 6.98 4 8 4 C8 4.66 8 5.32 8 6 C4.7 5.67 1.4 5.34 -2 5 C-1.34 3.35 -0.68 1.7 0 0 Z " fill="#A3799A" transform="translate(72,128)"/>
<path d="M0 0 C2.125 0.375 2.125 0.375 4 1 C2.7934375 2.0828125 2.7934375 2.0828125 1.5625 3.1875 C-1.02292072 6.02515689 -1.68042813 7.27166147 -2 11 C-2.33 10.34 -2.66 9.68 -3 9 C-3.66 8.67 -4.32 8.34 -5 8 C-2.25 2.25 -2.25 2.25 0 0 Z " fill="#BF3A90" transform="translate(72,71)"/>
<path d="M0 0 C2.475 0.495 2.475 0.495 5 1 C4.67 2.65 4.34 4.3 4 6 C2.68 6 1.36 6 0 6 C0 4.02 0 2.04 0 0 Z " fill="#FAE9F0" transform="translate(74,118)"/>
<path d="M0 0 C1.65 0.33 3.3 0.66 5 1 C4.67 1.99 4.34 2.98 4 4 C3.96125079 5.66621616 3.9549714 7.33394172 4 9 C3.38125 8.649375 2.7625 8.29875 2.125 7.9375 C1.073125 7.4734375 1.073125 7.4734375 0 7 C-0.99 7.495 -0.99 7.495 -2 8 C-0.84826645 5.53199953 0.04783565 3.95216435 2 2 C1.34 1.34 0.68 0.68 0 0 Z " fill="#F5D8E5" transform="translate(64,108)"/>
<path d="M0 0 C1.98 0.66 3.96 1.32 6 2 C5.67 2.66 5.34 3.32 5 4 C5.99 4.66 6.98 5.32 8 6 C2.25 6.125 2.25 6.125 0 5 C0 3.35 0 1.7 0 0 Z " fill="#A63195" transform="translate(65,93)"/>
<path d="M0 0 C3.37462715 0.54723683 5.08235 1.0549 8 3 C7.67 4.65 7.34 6.3 7 8 C4.35247996 5.42215154 2.05567935 3.08351902 0 0 Z " fill="#5B1C5D" transform="translate(81,83)"/>
<path d="M0 0 C2.0625 0.4375 2.0625 0.4375 4 1 C4 2.32 4 3.64 4 5 C2.68 5.33 1.36 5.66 0 6 C-0.38218767 4.34385343 -0.71395102 2.67542976 -1 1 C-0.67 0.67 -0.34 0.34 0 0 Z " fill="#662D63" transform="translate(43,118)"/>
<path d="M0 0 C0.99 0 1.98 0 3 0 C3.33 3.3 3.66 6.6 4 10 C1 8 1 8 0.48828125 6.0546875 C0.32552083 4.03645833 0.16276042 2.01822917 0 0 Z " fill="#E0308A" transform="translate(49,86)"/>
<path d="M0 0 C-1 2 -1 2 -3.6875 3.1875 C-7.23590538 4.05786358 -9.47952545 3.83820823 -13 3 C-8.54370064 0.02913376 -5.32064558 -0.12092376 0 0 Z " fill="#E14898" transform="translate(102,51)"/>
<path d="M0 0 C2.31 0 4.62 0 7 0 C7 0.66 7 1.32 7 2 C5.68 2 4.36 2 3 2 C3.350625 2.763125 3.70125 3.52625 4.0625 4.3125 C5 7 5 7 4 10 C1.81024227 6.71536341 1.00193437 3.79303725 0 0 Z " fill="#FE7C96" transform="translate(204,26)"/>
<path d="M0 0 C0.99 0 1.98 0 3 0 C3.33 1.65 3.66 3.3 4 5 C2.68 5.33 1.36 5.66 0 6 C-1.125 2.25 -1.125 2.25 0 0 Z " fill="#A67E9C" transform="translate(68,135)"/>
<path d="M0 0 C1.32 0.33 2.64 0.66 4 1 C4 2.65 4 4.3 4 6 C2.68 6 1.36 6 0 6 C0 4.02 0 2.04 0 0 Z " fill="#F7E7ED" transform="translate(74,110)"/>
<path d="M0 0 C0.5534764 2.07553648 1 3.84365964 1 6 C-1.31 6 -3.62 6 -6 6 C-4 4 -2 2 0 0 Z " fill="#BB1C79" transform="translate(78,97)"/>
<path d="M0 0 C0 0.66 0 1.32 0 2 C-2.95664519 3.4783226 -5.74229737 3.06032783 -9 3 C-9.33 2.34 -9.66 1.68 -10 1 C-6.61981469 -0.04005702 -3.5219721 -0.08004482 0 0 Z " fill="#A8256C" transform="translate(56,72)"/>
<path d="M0 0 C2.64 0 5.28 0 8 0 C7.01 1.485 7.01 1.485 6 3 C5.34 2.67 4.68 2.34 4 2 C3.67 2.99 3.34 3.98 3 5 C0 1.125 0 1.125 0 0 Z " fill="#F9F4F6" transform="translate(65,126)"/>
<path d="M0 0 C1.32 0.33 2.64 0.66 4 1 C1.69 2.65 -0.62 4.3 -3 6 C-3.66 5.34 -4.32 4.68 -5 4 C-2.75 1.9375 -2.75 1.9375 0 0 Z " fill="#BE4F9A" transform="translate(82,65)"/>
<path d="M0 0 C-0.33 0.66 -0.66 1.32 -1 2 C-3.28515625 2.6328125 -3.28515625 2.6328125 -6.0625 3.125 C-6.98160156 3.29257812 -7.90070313 3.46015625 -8.84765625 3.6328125 C-9.91306641 3.81457031 -9.91306641 3.81457031 -11 4 C-3.98726926 -1.32908975 -3.98726926 -1.32908975 0 0 Z " fill="#F3D1DF" transform="translate(97,50)"/>
<path d="M0 0 C1.46015291 0.28241641 2.91809793 0.57626614 4.375 0.875 C5.18710937 1.03742187 5.99921875 1.19984375 6.8359375 1.3671875 C9 2 9 2 11 4 C8.51212261 4.88852764 7.41627302 5.17660068 4.9375 4.125 C4.298125 3.75375 3.65875 3.3825 3 3 C2.01 2.67 1.02 2.34 0 2 C0 1.34 0 0.68 0 0 Z " fill="#EA5A9F" transform="translate(50,48)"/>
<path d="M0 0 C0.66 0.33 1.32 0.66 2 1 C0.35 2.65 -1.3 4.3 -3 6 C-3.99 5.67 -4.98 5.34 -6 5 C-6.33 4.34 -6.66 3.68 -7 3 C-4.69631264 1.93347808 -2.35981813 0.93578995 0 0 Z " fill="#F98F6E" transform="translate(57,72)"/>
<path d="M0 0 C7.38461538 -0.36923077 7.38461538 -0.36923077 10.5 1.5 C10.995 1.995 11.49 2.49 12 3 C11.67 3.66 11.34 4.32 11 5 C10.113125 4.525625 9.22625 4.05125 8.3125 3.5625 C5.42957244 2.20262851 3.12389377 1.45939614 0 1 C0 0.67 0 0.34 0 0 Z " fill="#F0BF81" transform="translate(22,67)"/>
<path d="M0 0 C1.32 0.66 2.64 1.32 4 2 C4 2.66 4 3.32 4 4 C1.36 4 -1.28 4 -4 4 C-2.68 2.68 -1.36 1.36 0 0 Z " fill="#FCE2B0" transform="translate(80,76)"/>
<path d="M0 0 C1.70884005 1.62339805 3.37446717 3.29319053 5 5 C5 5.66 5 6.32 5 7 C3.68 7 2.36 7 1 7 C0.67 4.69 0.34 2.38 0 0 Z " fill="#BFA7AB" transform="translate(108,21)"/>
<path d="M0 0 C0.66 0 1.32 0 2 0 C0.70700306 2.88437779 -0.65941363 4.87219421 -3 7 C-3.66 6.67 -4.32 6.34 -5 6 C-3.38405168 3.95880212 -1.7143618 1.95927063 0 0 Z " fill="#952170" transform="translate(69,63)"/>
<path d="M0 0 C0.99 0.33 1.98 0.66 3 1 C2.625 3.4375 2.625 3.4375 2 6 C1.01 6.495 1.01 6.495 0 7 C0 4.69 0 2.38 0 0 Z " fill="#FC84AC" transform="translate(63,36)"/>
<path d="M0 0 C1.65 1.65 3.3 3.3 5 5 C4.67 5.66 4.34 6.32 4 7 C3.34 6.67 2.68 6.34 2 6 C2 5.34 2 4.68 2 4 C1.01 3.67 0.02 3.34 -1 3 C-0.67 2.01 -0.34 1.02 0 0 Z " fill="#C0A8AB" transform="translate(103,14)"/>
<path d="" fill="#000000" transform="translate(0,0)"/>
<path d="" fill="#000000" transform="translate(0,0)"/>
<path d="" fill="#000000" transform="translate(0,0)"/>
<path d="" fill="#000000" transform="translate(0,0)"/>
<path d="" fill="#000000" transform="translate(0,0)"/>
<path d="" fill="#000000" transform="translate(0,0)"/>
<path d="" fill="#000000" transform="translate(0,0)"/>
<path d="" fill="#000000" transform="translate(0,0)"/>
<path d="" fill="#000000" transform="translate(0,0)"/>
<path d="" fill="#000000" transform="translate(0,0)"/>
<path d="" fill="#000000" transform="translate(0,0)"/>
<path d="" fill="#000000" transform="translate(0,0)"/>
</svg>
