<?xml version="1.0" encoding="UTF-8"?>
<svg version="1.1" xmlns="http://www.w3.org/2000/svg" width="165" height="200">
<path d="M0 0 C0.96715942 -0.0071553 1.93431885 -0.01431061 2.93078613 -0.02168274 C3.99054657 -0.02437164 5.05030701 -0.02706055 6.1421814 -0.02983093 C7.25957703 -0.03640213 8.37697266 -0.04297333 9.52822876 -0.04974365 C13.23467066 -0.06949069 16.94107199 -0.08114344 20.64755249 -0.09111023 C21.91334515 -0.09518576 23.1791378 -0.09926128 24.48328781 -0.10346031 C30.49381447 -0.12217635 36.50431654 -0.13673925 42.51486456 -0.14507228 C49.43803116 -0.15483037 56.36087682 -0.18111274 63.28393042 -0.22157317 C69.2912368 -0.25546825 75.29838843 -0.26722532 81.30579758 -0.27127647 C83.85501657 -0.27614283 86.40423212 -0.28775812 88.95338821 -0.30631447 C92.52699412 -0.33070775 96.09976741 -0.32973973 99.6734314 -0.32279968 C100.72104645 -0.33560974 101.7686615 -0.3484198 102.84802246 -0.36161804 C112.71078081 -0.29202481 121.21335186 3.16890861 128.29598999 10.14717102 C135.33822429 19.4535383 136.5972983 28.34241231 136.57064819 39.70039368 C136.57575912 40.83309189 136.58087006 41.9657901 136.58613586 43.1328125 C136.5999822 46.85900728 136.59907932 50.58501615 136.59677124 54.31123352 C136.60065981 56.90859546 136.60499481 59.50595677 136.60975647 62.10331726 C136.61720722 67.53853187 136.61707388 72.97367482 136.61166382 78.40888977 C136.60561529 84.68242782 136.61796454 90.95574208 136.63923389 97.22924197 C136.6589925 103.28089495 136.6620219 109.33243088 136.65849876 115.38412094 C136.65901215 117.95254925 136.66425317 120.52098113 136.67431068 123.0893898 C136.68664091 126.67734842 136.67990423 130.26478719 136.66830444 133.85273743 C136.67594818 134.91263382 136.68359192 135.97253021 136.69146729 137.06454468 C136.65260407 142.50062345 136.4244111 146.48306541 133.29598999 151.14717102 C128.99754848 154.72920562 127.43504103 154.14717102 121.29598999 154.14717102 C121.29598999 162.06717102 121.29598999 169.98717102 121.29598999 178.14717102 C123.60598999 178.14717102 125.91598999 178.14717102 128.29598999 178.14717102 C131.69148126 179.87694959 133.71658333 181.21508205 135.73348999 184.45967102 C136.48446342 188.04765518 136.18479824 190.59193801 135.29598999 194.14717102 C133.47259947 196.85284728 132.22141563 198.6844582 129.29598999 200.14717102 C127.57013326 200.24878565 125.84037013 200.2866347 124.11154175 200.29434204 C122.46309265 200.305075 122.46309265 200.305075 120.78134155 200.31602478 C119.56994507 200.31871368 118.35854858 200.32140259 117.11044312 200.32417297 C115.83874268 200.33074417 114.56704224 200.33731537 113.25680542 200.34408569 C109.03029648 200.36514308 104.80378713 200.37549471 100.57723999 200.38545227 C99.12069174 200.38950024 97.66414369 200.39361718 96.20759583 200.39780235 C89.35932276 200.41686356 82.51106048 200.43108844 75.66276598 200.43941432 C67.77064829 200.44916829 59.87881246 200.47543535 51.98679399 200.51591522 C45.88048845 200.54615433 39.77426327 200.56089085 33.66788435 200.56419533 C30.02446971 200.56653844 26.38135581 200.5754004 22.73802185 200.60065651 C18.66406801 200.62843899 14.5907359 200.62408242 10.51669312 200.61714172 C8.72388916 200.63635681 8.72388916 200.63635681 6.89486694 200.65596008 C-4.51443993 200.58532041 -12.24608065 197.45791031 -20.50088501 189.59248352 C-26.37403596 183.0737025 -28.8097633 176.73264578 -28.86463928 168.05232239 C-28.87468491 166.80204254 -28.88473053 165.5517627 -28.89508057 164.26359558 C-28.90111033 162.88038696 -28.90699536 161.49717769 -28.91275024 160.1139679 C-28.92229292 158.65503212 -28.93218426 157.19609859 -28.94239807 155.73716736 C-28.97374628 150.9467791 -28.9940511 146.15637372 -29.01260376 141.36592102 C-29.01590108 140.54948687 -29.0191984 139.73305271 -29.02259564 138.89187813 C-29.05338355 131.18382711 -29.08007649 123.47577203 -29.09701443 115.76767731 C-29.11889055 105.92947627 -29.16079971 96.09182304 -29.230452 86.25384092 C-29.27782692 79.3253955 -29.30196617 72.39709713 -29.30921131 65.46849489 C-29.31414871 61.33641789 -29.32904463 57.20495873 -29.36895561 53.07305908 C-29.40607355 49.17893477 -29.41415069 45.28577467 -29.40094948 41.3915062 C-29.40100302 39.9710032 -29.41113149 38.55045473 -29.43270111 37.13011551 C-29.59689459 25.69637518 -27.11377574 16.75417404 -19.32901001 8.14717102 C-13.93096322 3.22895061 -7.3356066 0.03727673 0 0 Z M29.29598999 34.14717102 C24.95346613 40.47731774 22.62367017 47.41549308 23.29598999 55.14717102 C25.06810034 58.20253369 26.17345018 59.58590111 29.29598999 61.14717102 C33.19121842 61.66653481 34.79444407 61.50053292 38.04598999 59.20967102 C40.56403622 55.78233031 41.04939944 53.39674015 41.77255249 49.30342102 C42.52768644 46.19271997 44.02484747 44.34949104 46.29598999 42.14717102 C50.36784943 40.78988454 54.04282088 40.48782112 58.29598999 41.14717102 C61.87121035 43.06431817 63.99315115 45.23865449 65.29598999 49.14717102 C65.56195277 53.26959414 65.69045085 56.10300992 64.23348999 59.95967102 C60.81242104 63.82216822 56.4144011 64.84892806 51.54598999 66.14717102 C47.73034476 67.28025769 47.73034476 67.28025769 45.29598999 70.14717102 C44.96966638 72.73130124 44.83129025 75.00564151 44.85848999 77.58467102 C44.83915405 78.90338196 44.81981812 80.2220929 44.79989624 81.58076477 C45.00454044 85.16535005 45.00454044 85.16535005 47.10848999 87.55732727 C50.21834612 89.81752628 52.47285803 90.14717102 56.29598999 90.14717102 C59.66441734 88.2432773 61.00576742 87.12946281 62.10848999 83.39717102 C62.20130249 82.28342102 62.20130249 82.28342102 62.29598999 81.14717102 C63.53348999 80.86873352 63.53348999 80.86873352 64.79598999 80.58467102 C71.88905201 77.67144912 77.58104556 71.82504685 81.29598999 65.14717102 C84.31464415 57.67240834 84.4505046 49.5393255 81.73348999 41.95967102 C78.06262877 33.80076038 71.92304426 27.31929267 63.50302124 24.06904602 C50.70929326 20.39143359 37.94976908 24.10878728 29.29598999 34.14717102 Z M45.29598999 105.14717102 C42.7652998 107.80439572 41.42479194 109.65674847 41.10458374 113.36201477 C41.34432608 117.72823129 41.93603857 119.71522932 44.79598999 123.14717102 C46.03348999 124.13717102 46.03348999 124.13717102 47.29598999 125.14717102 C47.62598999 125.47717102 47.95598999 125.80717102 48.29598999 126.14717102 C53.11138886 126.69113274 57.05329894 126.87207414 61.29598999 124.39717102 C64.30636609 121.01049791 65.19309075 119.27906263 65.60848999 114.70967102 C65.19765308 110.02613028 63.83006661 107.62834844 60.48348999 104.39717102 C54.87444148 101.19200044 50.77876584 101.99965155 45.29598999 105.14717102 Z M-5.01651001 159.33467102 C-7.25491346 163.06534344 -7.41062172 165.89888354 -6.70401001 170.14717102 C-4.91075362 174.3943572 -2.85202689 176.22279437 1.29598999 178.14717102 C4.48620805 178.57075858 7.64576512 178.5263327 10.85971069 178.48774719 C11.81629074 178.48818527 12.77287079 178.48862335 13.75843811 178.48907471 C16.91309174 178.48698848 20.0672107 178.46366488 23.22177124 178.44013977 C25.41180633 178.43454324 27.60184518 178.43027341 29.79188538 178.42727661 C35.55082604 178.41583243 41.30953906 178.38636868 47.06838989 178.35316467 C52.94695964 178.32245474 58.82556624 178.30876929 64.70419312 178.2936554 C76.23490809 178.26149872 87.76539448 178.20873404 99.29598999 178.14717102 C99.29598999 170.22717102 99.29598999 162.30717102 99.29598999 154.14717102 C86.73512079 154.07940967 74.17437288 154.02436311 61.61336231 153.9917345 C55.78085861 153.97607489 49.94848638 153.95483094 44.11605835 153.92085266 C38.48803603 153.88827017 32.86014022 153.87032024 27.23203087 153.86253929 C25.08421525 153.85699382 22.93640659 153.84616497 20.78864479 153.82998085 C17.78158194 153.80822163 14.77504266 153.8052035 11.76791382 153.80659485 C10.43434593 153.79041611 10.43434593 153.79041611 9.07383728 153.77391052 C2.86824058 153.80500457 -0.42728424 154.99351151 -5.01651001 159.33467102 Z " fill="#FBDADE" transform="translate(28.704010009765625,-0.1471710205078125)"/>
<path d="M0 0 C0.96715942 -0.0071553 1.93431885 -0.01431061 2.93078613 -0.02168274 C3.99054657 -0.02437164 5.05030701 -0.02706055 6.1421814 -0.02983093 C7.25957703 -0.03640213 8.37697266 -0.04297333 9.52822876 -0.04974365 C13.23467066 -0.06949069 16.94107199 -0.08114344 20.64755249 -0.09111023 C21.91334515 -0.09518576 23.1791378 -0.09926128 24.48328781 -0.10346031 C30.49381447 -0.12217635 36.50431654 -0.13673925 42.51486456 -0.14507228 C49.43803116 -0.15483037 56.36087682 -0.18111274 63.28393042 -0.22157317 C69.2912368 -0.25546825 75.29838843 -0.26722532 81.30579758 -0.27127647 C83.85501657 -0.27614283 86.40423212 -0.28775812 88.95338821 -0.30631447 C92.52699412 -0.33070775 96.09976741 -0.32973973 99.6734314 -0.32279968 C100.72104645 -0.33560974 101.7686615 -0.3484198 102.84802246 -0.36161804 C112.71078081 -0.29202481 121.21335186 3.16890861 128.29598999 10.14717102 C135.33822429 19.4535383 136.5972983 28.34241231 136.57064819 39.70039368 C136.57575912 40.83309189 136.58087006 41.9657901 136.58613586 43.1328125 C136.5999822 46.85900728 136.59907932 50.58501615 136.59677124 54.31123352 C136.60065981 56.90859546 136.60499481 59.50595677 136.60975647 62.10331726 C136.61720722 67.53853187 136.61707388 72.97367482 136.61166382 78.40888977 C136.60561529 84.68242782 136.61796454 90.95574208 136.63923389 97.22924197 C136.6589925 103.28089495 136.6620219 109.33243088 136.65849876 115.38412094 C136.65901215 117.95254925 136.66425317 120.52098113 136.67431068 123.0893898 C136.68664091 126.67734842 136.67990423 130.26478719 136.66830444 133.85273743 C136.67594818 134.91263382 136.68359192 135.97253021 136.69146729 137.06454468 C136.65260407 142.50062345 136.4244111 146.48306541 133.29598999 151.14717102 C128.99754848 154.72920562 127.43504103 154.14717102 121.29598999 154.14717102 C121.29598999 162.06717102 121.29598999 169.98717102 121.29598999 178.14717102 C123.60598999 178.14717102 125.91598999 178.14717102 128.29598999 178.14717102 C131.69148126 179.87694959 133.71658333 181.21508205 135.73348999 184.45967102 C136.48446342 188.04765518 136.18479824 190.59193801 135.29598999 194.14717102 C133.47259947 196.85284728 132.22141563 198.6844582 129.29598999 200.14717102 C127.57013326 200.24878565 125.84037013 200.2866347 124.11154175 200.29434204 C122.46309265 200.305075 122.46309265 200.305075 120.78134155 200.31602478 C119.56994507 200.31871368 118.35854858 200.32140259 117.11044312 200.32417297 C115.83874268 200.33074417 114.56704224 200.33731537 113.25680542 200.34408569 C109.03029648 200.36514308 104.80378713 200.37549471 100.57723999 200.38545227 C99.12069174 200.38950024 97.66414369 200.39361718 96.20759583 200.39780235 C89.35932276 200.41686356 82.51106048 200.43108844 75.66276598 200.43941432 C67.77064829 200.44916829 59.87881246 200.47543535 51.98679399 200.51591522 C45.88048845 200.54615433 39.77426327 200.56089085 33.66788435 200.56419533 C30.02446971 200.56653844 26.38135581 200.5754004 22.73802185 200.60065651 C18.66406801 200.62843899 14.5907359 200.62408242 10.51669312 200.61714172 C8.72388916 200.63635681 8.72388916 200.63635681 6.89486694 200.65596008 C-4.51443993 200.58532041 -12.24608065 197.45791031 -20.50088501 189.59248352 C-26.37403596 183.0737025 -28.8097633 176.73264578 -28.86463928 168.05232239 C-28.87468491 166.80204254 -28.88473053 165.5517627 -28.89508057 164.26359558 C-28.90111033 162.88038696 -28.90699536 161.49717769 -28.91275024 160.1139679 C-28.92229292 158.65503212 -28.93218426 157.19609859 -28.94239807 155.73716736 C-28.97374628 150.9467791 -28.9940511 146.15637372 -29.01260376 141.36592102 C-29.01590108 140.54948687 -29.0191984 139.73305271 -29.02259564 138.89187813 C-29.05338355 131.18382711 -29.08007649 123.47577203 -29.09701443 115.76767731 C-29.11889055 105.92947627 -29.16079971 96.09182304 -29.230452 86.25384092 C-29.27782692 79.3253955 -29.30196617 72.39709713 -29.30921131 65.46849489 C-29.31414871 61.33641789 -29.32904463 57.20495873 -29.36895561 53.07305908 C-29.40607355 49.17893477 -29.41415069 45.28577467 -29.40094948 41.3915062 C-29.40100302 39.9710032 -29.41113149 38.55045473 -29.43270111 37.13011551 C-29.59689459 25.69637518 -27.11377574 16.75417404 -19.32901001 8.14717102 C-13.93096322 3.22895061 -7.3356066 0.03727673 0 0 Z M-18.23135376 16.88935852 C-23.20064231 24.50805555 -23.13374705 31.07303587 -23.0921936 40.01777649 C-23.09626341 41.42291165 -23.10160758 42.82804361 -23.10812378 44.23316956 C-23.12175721 48.03497136 -23.11651462 51.83652791 -23.10698652 55.6383338 C-23.09936625 59.62729881 -23.10644237 63.61624347 -23.11114502 67.60520935 C-23.11659696 74.30494435 -23.10942706 81.00458002 -23.09512329 87.70429993 C-23.07881115 95.43363066 -23.08407703 103.16272378 -23.10060251 110.89204872 C-23.11424936 117.54282685 -23.11612105 124.19353375 -23.1082865 130.84432137 C-23.1036258 134.81003529 -23.10294047 138.77563783 -23.11289597 142.74134445 C-23.1216096 146.47282435 -23.11546425 150.20400036 -23.0982132 153.93544769 C-23.09240148 155.94586783 -23.1012272 157.95631388 -23.1105957 159.96672058 C-23.03812883 170.3653711 -21.55220594 178.91723906 -14.20791626 186.74092102 C-6.3555977 194.13987246 2.46811216 194.58893759 12.83651733 194.51948547 C14.06196259 194.52313614 15.28740784 194.5267868 16.54998779 194.5305481 C19.88446788 194.53722875 23.2183824 194.53059688 26.55280638 194.51721597 C30.05074788 194.50583663 33.54867615 194.51001357 37.04663086 194.51196289 C42.91218891 194.51284313 48.77763076 194.50181647 54.64315796 194.48335266 C61.42399411 194.46212985 68.20466092 194.4586893 74.98552358 194.46491462 C81.51932915 194.47060565 88.05307513 194.46496953 94.5868721 194.45374107 C97.36432625 194.44909765 100.14174392 194.44822003 102.9192009 194.45032692 C106.79014159 194.45255758 110.6609206 194.43811323 114.53182983 194.42182922 C116.26173157 194.42554535 116.26173157 194.42554535 118.02658081 194.42933655 C119.07788177 194.42225174 120.12918274 194.41516693 121.21234131 194.40786743 C122.58441018 194.40478813 122.58441018 194.40478813 123.98419762 194.40164661 C126.5707829 194.29643625 126.5707829 194.29643625 129.29598999 192.14717102 C129.71265666 189.64717102 129.71265666 189.64717102 129.29598999 187.14717102 C128.63598999 186.48717102 127.97598999 185.82717102 127.29598999 185.14717102 C123.33598999 185.14717102 119.37598999 185.14717102 115.29598999 185.14717102 C115.29598999 172.93717102 115.29598999 160.72717102 115.29598999 148.14717102 C118.92598999 148.14717102 122.55598999 148.14717102 126.29598999 148.14717102 C127.28598999 147.48717102 128.27598999 146.82717102 129.29598999 146.14717102 C129.75403807 143.95416743 129.75403807 143.95416743 129.68367004 141.36686707 C129.69357468 140.35756638 129.70347931 139.34826569 129.71368408 138.30838013 C129.70693161 136.64085945 129.70693161 136.64085945 129.70004272 134.93965149 C129.70690598 133.77202774 129.71376923 132.60440399 129.72084045 131.40139771 C129.73604083 128.1922898 129.73759149 124.98354441 129.73189807 121.77441549 C129.72881119 119.09337996 129.73489383 116.41239717 129.74093682 113.73136914 C129.75500264 107.40052432 129.75340685 101.06981434 129.74203491 94.7389679 C129.73058158 88.21899829 129.74457721 81.69944136 129.77143139 75.17952621 C129.7936395 69.57683005 129.80021343 63.97426291 129.79435498 58.37152588 C129.79099262 55.02772145 129.79506897 51.68439122 129.810606 48.34058762 C129.82551502 44.60376821 129.81483604 40.86784935 129.79769897 37.13105774 C129.81220093 35.48175514 129.81220093 35.48175514 129.82699585 33.7991333 C129.74415593 25.15455609 127.57909985 18.43028088 121.29598999 12.14717102 C115.54265011 8.39314333 110.58991337 6.04136985 103.66827393 5.99327087 C102.28074669 5.98037018 102.28074669 5.98037018 100.8651886 5.96720886 C99.85734818 5.96294891 98.84950775 5.95868896 97.81112671 5.95429993 C96.7439592 5.94612244 95.67679169 5.93794495 94.57728577 5.92951965 C91.04342201 5.90469591 87.50959838 5.88815603 83.97567749 5.87373352 C82.76721287 5.86840984 81.55874825 5.86308617 80.31366348 5.85760117 C73.91552617 5.83088097 67.51740828 5.81150359 61.11923218 5.79707336 C55.83097002 5.78374113 50.54309435 5.7558991 45.25497437 5.71504211 C38.86366406 5.66566393 32.472704 5.64094559 26.08121109 5.63384628 C23.65002749 5.62714351 21.21885141 5.61194706 18.78777695 5.58795547 C15.37718042 5.55622125 11.9679268 5.55628048 8.55722046 5.56367493 C7.0636779 5.53906693 7.0636779 5.53906693 5.53996277 5.51396179 C-4.47390302 5.60239674 -11.76113644 9.29043007 -18.23135376 16.88935852 Z " fill="#020202" transform="translate(28.704010009765625,-0.1471710205078125)"/>
<path d="M0 0 C7.01263653 5.81713509 13.85816007 12.8294946 14.91064453 22.24658203 C15.81515951 35.17349039 14.09032929 44.96892773 5.6953125 55.19921875 C2.45562587 58.5082372 -1.20400171 61.11625853 -5.3125 63.25 C-5.9725 63.25 -6.6325 63.25 -7.3125 63.25 C-7.68375 64.36375 -7.68375 64.36375 -8.0625 65.5 C-9.4260157 68.49973455 -10.77122215 70.17077267 -13.3125 72.25 C-14.3025 72.25 -15.2925 72.25 -16.3125 72.25 C-16.3125 72.91 -16.3125 73.57 -16.3125 74.25 C-15.72597656 74.35957031 -15.13945313 74.46914062 -14.53515625 74.58203125 C-9.6219914 76.05857113 -6.12778328 80.01392535 -3.375 84.1875 C-1.40018849 89.87960375 -1.95830564 94.83822573 -4.1953125 100.32421875 C-6.86776641 104.93093125 -11.44629012 108.22470361 -16.3125 110.25 C-21.45611837 111.08102678 -26.04015753 110.83386758 -30.625 108.25 C-34.71121444 105.2744402 -37.60246753 102.04912337 -39.3125 97.25 C-40.1446999 91.64553875 -40.12682937 86.97261982 -37.6875 81.8125 C-35.01331009 78.92718984 -32.50406796 76.55879384 -29.3125 74.25 C-28.3225 74.25 -27.3325 74.25 -26.3125 74.25 C-26.3125 73.59 -26.3125 72.93 -26.3125 72.25 C-27.055 72.04375 -27.7975 71.8375 -28.5625 71.625 C-32.96824045 69.42212978 -34.78974317 65.81827048 -36.3125 61.25 C-36.45869515 58.96148355 -36.53341336 56.66799684 -36.5625 54.375 C-36.58828125 53.16070312 -36.6140625 51.94640625 -36.640625 50.6953125 C-36.29281164 47.04327217 -35.43728034 45.19114331 -33.3125 42.25 C-33.86292969 42.5696875 -34.41335937 42.889375 -34.98046875 43.21875 C-39.28883596 45.12395761 -43.71532783 45.003209 -48.3125 44.25 C-52.57573534 41.92185021 -55.52732593 38.77905274 -57.3125 34.25 C-58.75235414 24.1861774 -56.11971977 15.75104408 -50.3984375 7.484375 C-37.70756441 -7.92926722 -16.61041757 -11.75901902 0 0 Z M-45.3125 11.25 C-49.65502386 17.58014672 -51.98481982 24.51832206 -51.3125 32.25 C-49.54038965 35.30536267 -48.43503981 36.68873009 -45.3125 38.25 C-41.41727157 38.76936379 -39.81404592 38.6033619 -36.5625 36.3125 C-34.04445377 32.88515929 -33.55909055 30.49956913 -32.8359375 26.40625 C-32.08080355 23.29554895 -30.58364252 21.45232002 -28.3125 19.25 C-24.24064056 17.89271352 -20.56566911 17.5906501 -16.3125 18.25 C-12.73727964 20.16714715 -10.61533884 22.34148347 -9.3125 26.25 C-9.04653722 30.37242312 -8.91803914 33.2058389 -10.375 37.0625 C-13.79606895 40.9249972 -18.19408889 41.95175704 -23.0625 43.25 C-26.87814523 44.38308667 -26.87814523 44.38308667 -29.3125 47.25 C-29.63882361 49.83413022 -29.77719974 52.10847049 -29.75 54.6875 C-29.76933594 56.00621094 -29.78867188 57.32492188 -29.80859375 58.68359375 C-29.60394955 62.26817903 -29.60394955 62.26817903 -27.5 64.66015625 C-24.39014387 66.92035526 -22.13563196 67.25 -18.3125 67.25 C-14.94407265 65.34610628 -13.60272258 64.23229179 -12.5 60.5 C-12.4071875 59.38625 -12.4071875 59.38625 -12.3125 58.25 C-11.075 57.9715625 -11.075 57.9715625 -9.8125 57.6875 C-2.71943798 54.7742781 2.97255557 48.92787582 6.6875 42.25 C9.70615416 34.77523732 9.84201461 26.64215448 7.125 19.0625 C3.45413878 10.90358936 -2.68544573 4.42212165 -11.10546875 1.171875 C-23.89919673 -2.50573743 -36.65872091 1.21161626 -45.3125 11.25 Z M-29.3125 82.25 C-31.84319019 84.9072247 -33.18369805 86.75957745 -33.50390625 90.46484375 C-33.26416391 94.83106027 -32.67245142 96.8180583 -29.8125 100.25 C-28.575 101.24 -28.575 101.24 -27.3125 102.25 C-26.9825 102.58 -26.6525 102.91 -26.3125 103.25 C-21.49710113 103.79396172 -17.55519105 103.97490311 -13.3125 101.5 C-10.3021239 98.11332689 -9.41539924 96.38189161 -9 91.8125 C-9.41083691 87.12895926 -10.77842338 84.73117742 -14.125 81.5 C-19.73404851 78.29482942 -23.82972415 79.10248053 -29.3125 82.25 Z " fill="#050404" transform="translate(103.3125,22.75)"/>
<path d="M0 0 C1.31879402 -0.002062 1.31879402 -0.002062 2.66423035 -0.00416565 C4.10676682 0.00122726 4.10676682 0.00122726 5.57844543 0.00672913 C6.59325485 0.0065831 7.60806427 0.00643707 8.65362549 0.00628662 C12.01375961 0.00698426 15.37383855 0.01476974 18.73396301 0.02259827 C21.06138071 0.02446297 23.38879881 0.02588663 25.71621704 0.02688599 C31.84663473 0.030707 37.97702879 0.04053378 44.10743713 0.05158997 C50.36119772 0.06181299 56.61496211 0.06638552 62.86872864 0.07142639 C75.14282924 0.08215639 87.41690609 0.09974986 99.69099426 0.12025452 C99.69099426 12.66025452 99.69099426 25.20025452 99.69099426 38.12025452 C86.13887094 38.21069476 72.58694873 38.28405121 59.03459167 38.3275032 C52.74139679 38.34836005 46.44841943 38.37664362 40.15534973 38.42201233 C34.0799191 38.46553692 28.00469746 38.48940594 21.92912292 38.49976349 C19.61351737 38.5071429 17.29792299 38.52155316 14.98240662 38.54317474 C11.73397786 38.57229576 8.48640797 38.57620676 5.23786926 38.57435608 C4.28480392 38.58873718 3.33173859 38.60311829 2.34979248 38.61793518 C-3.69366764 38.58078423 -8.26921874 37.57107526 -13.30900574 34.12025452 C-18.73706745 28.40650534 -19.78318428 23.83690794 -19.61369324 16.09681702 C-19.15196914 11.58612777 -18.19948983 9.66109753 -15.30900574 6.12025452 C-10.54646746 2.45012944 -6.10635544 -0.00736593 0 0 Z M-11.62150574 12.30775452 C-13.85990919 16.03842693 -14.01561745 18.87196703 -13.30900574 23.12025452 C-11.51574935 27.3674407 -9.45702262 29.19587787 -5.30900574 31.12025452 C-2.11878768 31.54384207 1.04076939 31.49941619 4.25471497 31.46083069 C5.21129501 31.46126877 6.16787506 31.46170685 7.15344238 31.4621582 C10.30809601 31.46007198 13.46221498 31.43674838 16.61677551 31.41322327 C18.8068106 31.40762673 20.99684946 31.4033569 23.18688965 31.40036011 C28.94583031 31.38891593 34.70454333 31.35945217 40.46339417 31.32624817 C46.34196391 31.29553824 52.22057051 31.28185278 58.09919739 31.26673889 C69.62991236 31.23458222 81.16039875 31.18181754 92.69099426 31.12025452 C92.69099426 23.20025452 92.69099426 15.28025452 92.69099426 7.12025452 C80.13012506 7.05249317 67.56937715 6.9974466 55.00836658 6.964818 C49.17586288 6.94915838 43.34349066 6.92791444 37.51106262 6.89393616 C31.8830403 6.86135367 26.25514449 6.84340373 20.62703514 6.83562279 C18.47921952 6.83007732 16.33141087 6.81924846 14.18364906 6.80306435 C11.17658621 6.78130513 8.17004693 6.778287 5.16291809 6.77967834 C3.8293502 6.7634996 3.8293502 6.7634996 2.46884155 6.74699402 C-3.73675515 6.77808806 -7.03227996 7.966595 -11.62150574 12.30775452 Z " fill="#100E0E" transform="translate(35.30900573730469,146.87974548339844)"/>
<path d="M0 0 C2.375 2.1875 2.375 2.1875 4 5 C3.93142323 7.88022439 3.53388579 9.34039798 1.72265625 11.578125 C-0.35289368 13.29127732 -1.86761977 13.64239696 -4.5 14.125 C-7.11658703 14.62215154 -9.46180095 15.15393365 -12 16 C-11.60306272 13.89202247 -11.18170804 11.78863223 -10.75 9.6875 C-10.51796875 8.51574219 -10.2859375 7.34398437 -10.046875 6.13671875 C-8.37848255 1.13776674 -5.29157906 -1.05831581 0 0 Z " fill="#F0D0D3" transform="translate(85,46)"/>
</svg>
