<?xml version="1.0" encoding="UTF-8"?>
<svg version="1.1" xmlns="http://www.w3.org/2000/svg" width="328" height="310">
<path d="M0 0 C3.36499847 0.02918834 6.728432 0.02049688 10.09350586 0.00756836 C25.81157267 0.022464 41.02326371 1.13027813 56.09936523 5.90405273 C57.14809814 6.2238208 57.14809814 6.2238208 58.21801758 6.55004883 C63.35867411 8.15583043 68.2055983 10.10709679 73.03686523 12.46655273 C74.26309447 12.99426469 75.49217327 13.51541764 76.72436523 14.02905273 C85.78385319 17.96052864 85.78385319 17.96052864 87.03686523 20.46655273 C88.67720717 21.19559359 90.34988441 21.85310516 92.03686523 22.46655273 C96.81464301 24.24433051 96.81464301 24.24433051 99.03686523 26.46655273 C100.1727578 27.49843586 101.31960568 28.5183277 102.47436523 29.52905273 C103.07120117 30.0562793 103.66803711 30.58350586 104.28295898 31.12670898 C106.10671144 32.67017396 106.10671144 32.67017396 109.03686523 33.46655273 C111.22436523 35.40405273 111.22436523 35.40405273 113.03686523 37.46655273 C113.03686523 38.12655273 113.03686523 38.78655273 113.03686523 39.46655273 C113.73811523 39.65217773 114.43936523 39.83780273 115.16186523 40.02905273 C118.65731413 41.77677718 120.34412497 43.95351123 122.70483398 47.00561523 C123.36418945 47.7287793 123.36418945 47.7287793 124.03686523 48.46655273 C124.69686523 48.46655273 125.35686523 48.46655273 126.03686523 48.46655273 C127.34936523 50.02905273 127.34936523 50.02905273 129.03686523 52.46655273 C129.46741211 53.0453418 129.89795898 53.62413086 130.34155273 54.22045898 C130.79788086 54.83791992 131.25420898 55.45538086 131.72436523 56.09155273 C132.16135742 56.68194336 132.59834961 57.27233398 133.04858398 57.88061523 C134.03686523 59.46655273 134.03686523 59.46655273 134.03686523 61.46655273 C134.69686523 61.46655273 135.35686523 61.46655273 136.03686523 61.46655273 C136.03686523 62.45655273 136.03686523 63.44655273 136.03686523 64.46655273 C137.02686523 64.79655273 138.01686523 65.12655273 139.03686523 65.46655273 C140.05534009 67.45720814 141.05204501 69.45903458 142.03686523 71.46655273 C143.27436523 72.92061523 143.27436523 72.92061523 144.53686523 74.40405273 C147.1879917 77.65168266 148.54779563 80.56660854 150.03686523 84.46655273 C150.42874023 85.39467773 150.82061523 86.32280273 151.22436523 87.27905273 C152.03686523 89.46655273 152.03686523 89.46655273 152.03686523 91.46655273 C152.69686523 91.79655273 153.35686523 92.12655273 154.03686523 92.46655273 C154.82350293 94.41592133 155.5192958 96.40256795 156.16186523 98.40405273 C156.69166992 100.02633789 156.69166992 100.02633789 157.23217773 101.68139648 C158.03686523 104.46655273 158.03686523 104.46655273 158.03686523 106.46655273 C158.69686523 106.79655273 159.35686523 107.12655273 160.03686523 107.46655273 C160.59936523 109.21655273 160.59936523 109.21655273 161.03686523 111.46655273 C161.20186523 112.28639648 161.36686523 113.10624023 161.53686523 113.95092773 C161.70186523 114.78108398 161.86686523 115.61124023 162.03686523 116.46655273 C162.36789179 117.88376019 162.70119366 119.30043828 163.03686523 120.71655273 C165.43010098 131.76457182 166.36060205 142.41799805 166.29760742 153.68676758 C166.28687776 155.96389375 166.29757329 158.24023139 166.31030273 160.51733398 C166.31927281 169.34419001 165.73823413 177.77484219 164.03686523 186.46655273 C163.80193359 187.67287354 163.80193359 187.67287354 163.56225586 188.90356445 C163.12921347 190.99675754 162.6589351 193.07521295 162.16186523 195.15405273 C161.99259521 195.87028809 161.8233252 196.58652344 161.64892578 197.32446289 C160.27251642 202.93787996 158.37301024 208.18006497 156.03686523 213.46655273 C155.70686523 214.45655273 155.37686523 215.44655273 155.03686523 216.46655273 C154.37686523 216.46655273 153.71686523 216.46655273 153.03686523 216.46655273 C152.91311523 217.16780273 152.78936523 217.86905273 152.66186523 218.59155273 C151.99848178 221.64311661 151.06474568 224.51996211 150.03686523 227.46655273 C149.37686523 227.46655273 148.71686523 227.46655273 148.03686523 227.46655273 C147.95436523 228.37405273 147.87186523 229.28155273 147.78686523 230.21655273 C146.91901413 233.97724086 145.74058325 234.84476557 143.03686523 237.46655273 C141.76902399 240.60005991 141.76902399 240.60005991 141.03686523 243.46655273 C140.37686523 243.46655273 139.71686523 243.46655273 139.03686523 243.46655273 C138.37686523 245.11655273 137.71686523 246.76655273 137.03686523 248.46655273 C136.37686523 248.46655273 135.71686523 248.46655273 135.03686523 248.46655273 C134.94405273 249.33280273 134.94405273 249.33280273 134.84936523 250.21655273 C133.71815734 253.34912844 131.65738723 254.50116124 129.03686523 256.46655273 C128.70686523 257.12655273 128.37686523 257.78655273 128.03686523 258.46655273 C127.37686523 258.46655273 126.71686523 258.46655273 126.03686523 258.46655273 C125.87186523 259.14717773 125.70686523 259.82780273 125.53686523 260.52905273 C123.30997743 264.89004134 119.78676029 267.40277978 116.03686523 270.46655273 C114.80451655 271.50445296 113.57513213 272.54588756 112.34936523 273.59155273 C111.7834668 274.07108398 111.21756836 274.55061523 110.63452148 275.04467773 C109.11244372 276.39928973 107.69528025 277.86911885 106.28686523 279.34155273 C104.03686523 281.46655273 104.03686523 281.46655273 101.03686523 281.46655273 C101.03686523 282.12655273 101.03686523 282.78655273 101.03686523 283.46655273 C100.04686523 283.79655273 99.05686523 284.12655273 98.03686523 284.46655273 C97.70686523 285.12655273 97.37686523 285.78655273 97.03686523 286.46655273 C95.5072487 287.33938477 93.93717144 288.14219057 92.34936523 288.90405273 C90.98618164 289.5653418 90.98618164 289.5653418 89.59545898 290.23999023 C88.75112305 290.64475586 87.90678711 291.04952148 87.03686523 291.46655273 C86.00561523 291.98217773 84.97436523 292.49780273 83.91186523 293.02905273 C82.96311523 293.50342773 82.01436523 293.97780273 81.03686523 294.46655273 C80.40006836 294.79655273 79.76327148 295.12655273 79.10717773 295.46655273 C73.78364643 298.19862918 69.13768631 300.46655273 63.03686523 300.46655273 C63.03686523 301.12655273 63.03686523 301.78655273 63.03686523 302.46655273 C61.86124023 302.71405273 60.68561523 302.96155273 59.47436523 303.21655273 C56.58045429 303.84178041 53.77404526 304.54752252 50.94311523 305.41967773 C27.09647483 312.61663678 0.63905332 311.36919241 -23.96313477 309.46655273 C-24.92606445 309.39436523 -25.88899414 309.32217773 -26.88110352 309.24780273 C-32.66960955 308.74523477 -38.2900897 307.70979453 -43.96313477 306.46655273 C-43.96313477 305.80655273 -43.96313477 305.14655273 -43.96313477 304.46655273 C-44.49938477 304.67280273 -45.03563477 304.87905273 -45.58813477 305.09155273 C-48.84314386 305.60550154 -50.96270424 304.73340118 -53.96313477 303.46655273 C-54.29313477 302.80655273 -54.62313477 302.14655273 -54.96313477 301.46655273 C-55.91188477 301.36342773 -56.86063477 301.26030273 -57.83813477 301.15405273 C-63.26013827 300.54407734 -68.23262786 298.09370276 -72.96313477 295.46655273 C-73.29313477 294.80655273 -73.62313477 294.14655273 -73.96313477 293.46655273 C-75.10782227 293.55936523 -75.10782227 293.55936523 -76.27563477 293.65405273 C-79.46653445 293.43143183 -79.92419622 292.78352836 -81.96313477 290.46655273 C-82.95313477 290.13655273 -83.94313477 289.80655273 -84.96313477 289.46655273 C-84.96313477 288.80655273 -84.96313477 288.14655273 -84.96313477 287.46655273 C-86.61313477 287.46655273 -88.26313477 287.46655273 -89.96313477 287.46655273 C-89.96313477 286.80655273 -89.96313477 286.14655273 -89.96313477 285.46655273 C-91.61313477 284.80655273 -93.26313477 284.14655273 -94.96313477 283.46655273 C-94.96313477 282.80655273 -94.96313477 282.14655273 -94.96313477 281.46655273 C-96.61313477 281.13655273 -98.26313477 280.80655273 -99.96313477 280.46655273 C-100.45813477 278.98155273 -100.45813477 278.98155273 -100.96313477 277.46655273 C-101.62313477 277.46655273 -102.28313477 277.46655273 -102.96313477 277.46655273 C-102.96313477 276.80655273 -102.96313477 276.14655273 -102.96313477 275.46655273 C-103.55223633 275.37889648 -104.14133789 275.29124023 -104.74829102 275.20092773 C-107.55824929 274.26923081 -108.54319737 272.99866982 -110.40063477 270.71655273 C-111.00262695 269.99854492 -111.60461914 269.28053711 -112.22485352 268.54077148 C-112.79848633 267.8562793 -113.37211914 267.17178711 -113.96313477 266.46655273 C-116.47745191 263.69608532 -118.31997389 261.68093969 -121.96313477 260.46655273 C-122.9800474 258.47509882 -123.97956125 256.474682 -124.96313477 254.46655273 C-125.95313477 253.80655273 -126.94313477 253.14655273 -127.96313477 252.46655273 C-127.96313477 251.80655273 -127.96313477 251.14655273 -127.96313477 250.46655273 C-128.62313477 250.13655273 -129.28313477 249.80655273 -129.96313477 249.46655273 C-130.58813477 247.40405273 -130.58813477 247.40405273 -130.96313477 245.46655273 C-131.62313477 245.46655273 -132.28313477 245.46655273 -132.96313477 245.46655273 C-133.45813477 243.48655273 -133.45813477 243.48655273 -133.96313477 241.46655273 C-134.62313477 241.46655273 -135.28313477 241.46655273 -135.96313477 241.46655273 C-136.29313477 239.81655273 -136.62313477 238.16655273 -136.96313477 236.46655273 C-137.62313477 236.46655273 -138.28313477 236.46655273 -138.96313477 236.46655273 C-139.23577148 235.50942383 -139.23577148 235.50942383 -139.51391602 234.53295898 C-139.7652832 233.70666992 -140.01665039 232.88038086 -140.27563477 232.02905273 C-140.51926758 231.2053418 -140.76290039 230.38163086 -141.01391602 229.53295898 C-141.3271582 228.85104492 -141.64040039 228.16913086 -141.96313477 227.46655273 C-142.95313477 227.13655273 -143.94313477 226.80655273 -144.96313477 226.46655273 C-145.96313477 224.40405273 -145.96313477 224.40405273 -146.96313477 221.46655273 C-147.4592911 220.13178434 -147.95954939 218.79853605 -148.46313477 217.46655273 C-148.70032227 216.82717773 -148.93750977 216.18780273 -149.18188477 215.52905273 C-149.73621046 214.0656329 -150.31278796 212.6105553 -150.90454102 211.16186523 C-161.40538072 184.4254099 -166.52327361 147.08473163 -156.96313477 119.46655273 C-155.04353419 112.85115505 -153.39866891 106.20252063 -151.96313477 99.46655273 C-151.30313477 99.46655273 -150.64313477 99.46655273 -149.96313477 99.46655273 C-149.63313477 97.48655273 -149.30313477 95.50655273 -148.96313477 93.46655273 C-148.30313477 93.46655273 -147.64313477 93.46655273 -146.96313477 93.46655273 C-146.83938477 92.57967773 -146.71563477 91.69280273 -146.58813477 90.77905273 C-146.0190074 87.76267771 -145.19699041 85.26329219 -143.96313477 82.46655273 C-143.30313477 82.46655273 -142.64313477 82.46655273 -141.96313477 82.46655273 C-141.30313477 80.15655273 -140.64313477 77.84655273 -139.96313477 75.46655273 C-139.30313477 75.46655273 -138.64313477 75.46655273 -137.96313477 75.46655273 C-137.53000977 74.38374023 -137.53000977 74.38374023 -137.08813477 73.27905273 C-136.71688477 72.35092773 -136.34563477 71.42280273 -135.96313477 70.46655273 C-135.69500977 69.64155273 -135.42688477 68.81655273 -135.15063477 67.96655273 C-133.64334979 64.7933212 -131.46549534 62.90635429 -128.96313477 60.46655273 C-127.66793481 58.30034729 -127.66793481 58.30034729 -126.96313477 56.46655273 C-125.97313477 56.46655273 -124.98313477 56.46655273 -123.96313477 56.46655273 C-123.88063477 55.68280273 -123.79813477 54.89905273 -123.71313477 54.09155273 C-122.96313477 51.46655273 -122.96313477 51.46655273 -120.90063477 50.15405273 C-120.26125977 49.92717773 -119.62188477 49.70030273 -118.96313477 49.46655273 C-118.96313477 48.80655273 -118.96313477 48.14655273 -118.96313477 47.46655273 C-117.02954102 45.81030273 -117.02954102 45.81030273 -114.52563477 43.96655273 C-111.21456685 41.6674501 -111.21456685 41.6674501 -108.96313477 38.46655273 C-108.30313477 38.46655273 -107.64313477 38.46655273 -106.96313477 38.46655273 C-106.96313477 37.80655273 -106.96313477 37.14655273 -106.96313477 36.46655273 C-105.65063477 34.84155273 -105.65063477 34.84155273 -103.96313477 33.46655273 C-102.97313477 33.46655273 -101.98313477 33.46655273 -100.96313477 33.46655273 C-100.63313477 32.47655273 -100.30313477 31.48655273 -99.96313477 30.46655273 C-98.31313477 30.13655273 -96.66313477 29.80655273 -94.96313477 29.46655273 C-94.46813477 27.98155273 -94.46813477 27.98155273 -93.96313477 26.46655273 C-92.14282227 24.96655273 -92.14282227 24.96655273 -89.83813477 23.46655273 C-89.09305664 22.97155273 -88.34797852 22.47655273 -87.58032227 21.96655273 C-84.47334031 20.18583472 -81.25997295 18.86205878 -77.96313477 17.46655273 C-75.85330202 16.3732517 -73.74926353 15.26870904 -71.65063477 14.15405273 C-49.190576 2.75256094 -24.92498396 -0.23529623 0 0 Z " fill="#FEFEAD" transform="translate(160.963134765625,-0.466552734375)"/>
<path d="M0 0 C7.53123138 3.04197424 13.1635225 9.94626145 18.69140625 15.68359375 C21.62670471 18.69200718 24.74137687 21.43671207 27.92260742 24.1809082 C31.49948688 27.31304227 34.92818065 30.60125096 38.375 33.875 C43.05703831 38.30553435 47.74703618 42.71461049 52.5625 47 C56.20470201 50.24162141 59.65639263 53.61782314 63.05859375 57.109375 C65.01020608 59.00993912 67.06148212 60.6741857 69.1875 62.375 C74.52066394 66.98234873 77.46679941 72.62306293 78.5625 79.5625 C77.34036133 87.03112518 74.52039974 92.23257424 68.73974609 97.10351562 C62.67865725 101.2990724 55.78176233 104.03103552 49.0625 107 C47.42152019 107.73719357 45.78114718 108.47573925 44.14135742 109.21557617 C40.77101273 110.7342171 37.3975234 112.24552746 34.02148438 113.75146484 C29.19465578 115.90778843 24.38413774 118.09851967 19.578125 120.30078125 C18.08587194 120.98375853 16.59360336 121.6667019 15.10131836 122.34960938 C14.3853952 122.67727295 13.66947205 123.00493652 12.93185425 123.3425293 C12.23246735 123.66261963 11.53308044 123.98270996 10.8125 124.3125 C10.13075714 124.62469482 9.44901428 124.93688965 8.74661255 125.25854492 C2.6604817 128.0417266 -3.43181888 130.81517208 -9.59765625 133.41796875 C-10.69799194 133.88432739 -10.69799194 133.88432739 -11.82055664 134.36010742 C-17.30535797 135.97046524 -22.35171693 134.79361777 -27.375 132.375 C-31.64014216 128.51606186 -33.64698231 125.58659688 -34.41796875 119.9375 C-34.66714857 114.11881457 -34.70398115 108.5627746 -31.05078125 103.796875 C-26.64460182 99.93622254 -21.26225317 97.73419264 -15.97021484 95.34912109 C-12.33591062 93.69835953 -8.72445481 92.00141628 -5.11328125 90.30078125 C-0.83585868 88.28719664 3.44200517 86.27480704 7.7277832 84.27905273 C14.19413163 81.26728205 20.64521113 78.24290772 27 75 C16.68197468 64.443653 16.68197468 64.443653 5.75390625 54.53515625 C3.03051581 52.15143143 0.53812549 49.5465337 -2 46.96875 C-3.93891002 45.06013545 -5.93699551 43.27289448 -8 41.5 C-22.43083854 28.97619535 -22.43083854 28.97619535 -23.375 19.0625 C-23.14231267 14.05972247 -22.02981591 9.24587474 -18.60546875 5.45703125 C-12.74960501 0.40171597 -7.62724346 -1.21085319 0 0 Z " fill="#B9318C" transform="translate(191,95)"/>
<path d="M0 0 C3.77702297 2.63513231 6.60374735 5.7074947 8.6875 9.875 C8.92578125 12.23046875 8.92578125 12.23046875 9 15.0625 C9.05607422 16.44501953 9.05607422 16.44501953 9.11328125 17.85546875 C8.1520551 24.67223771 3.61626074 29.37294518 -1 34.125 C-4.78561449 38.11763579 -8.43025564 42.14089648 -11.875 46.4375 C-15.10546813 50.4667748 -18.48115169 54.28806969 -22 58.0625 C-26.09990299 62.46192959 -29.8247231 66.97325949 -33.3125 71.875 C-32.1975415 71.98674561 -31.08258301 72.09849121 -29.93383789 72.21362305 C-24.94566776 72.84098366 -20.20634194 74.10798171 -15.37109375 75.45703125 C-14.44458511 75.71248215 -13.51807648 75.96793304 -12.56349182 76.23112488 C-10.61548774 76.77037062 -8.66830767 77.31260107 -6.72192383 77.85766602 C-3.75833827 78.68517175 -0.79059424 79.49633727 2.17773438 80.30664062 C4.07840039 80.83494774 5.97880048 81.36421268 7.87890625 81.89453125 C8.75825333 82.13323441 9.6376004 82.37193756 10.54359436 82.61787415 C18.0366769 84.74329909 24.12713566 87.20985211 28.6875 93.875 C30.79834725 98.09669451 30.18652987 103.28979615 29.6875 107.875 C27.96436701 112.62412262 24.83933245 115.09313939 20.4375 117.375 C11.48685962 121.54747897 -0.87792858 116.02257848 -9.87890625 113.54296875 C-11.48346062 113.10522538 -13.08811225 112.66783839 -14.69285583 112.23078918 C-18.04348286 111.31650018 -21.39267776 110.39717814 -24.7409668 109.47436523 C-29.01372655 108.29731129 -33.29010694 107.13407439 -37.5677042 105.97474194 C-40.87835164 105.07561309 -44.18678787 104.16855564 -47.49464226 103.25921059 C-49.06986615 102.82729962 -50.64579165 102.39793848 -52.22244453 101.97127342 C-73.55734156 96.18658655 -73.55734156 96.18658655 -77.25 90.3125 C-77.63027344 89.73371094 -78.01054688 89.15492188 -78.40234375 88.55859375 C-80.7958782 84.13106865 -80.86494036 79.77275485 -80.3125 74.875 C-77.83341256 68.78996719 -73.39183601 64.51803858 -68.9453125 59.75390625 C-66.51493102 57.09635262 -64.24592589 54.37612302 -62 51.5625 C-58.44463609 47.15133168 -54.69302036 42.99690046 -50.8125 38.875 C-46.1281948 33.89898083 -41.70691043 28.7996218 -37.4296875 23.46484375 C-34.55110768 19.94362896 -31.50946507 16.58665832 -28.44140625 13.23046875 C-26.44969617 11.02679686 -24.53664365 8.77296531 -22.625 6.5 C-15.99789072 -0.97441092 -9.63088801 -3.27086763 0 0 Z " fill="#B9318D" transform="translate(145.3125,60.125)"/>
<path d="M0 0 C0.33 0.66 0.66 1.32 1 2 C0.02710577 4.45036405 -1.00830527 6.80354496 -2.125 9.1875 C-15.3576698 38.64692487 -20.46464517 74.33835013 -12 106 C-11.72591309 107.1127832 -11.72591309 107.1127832 -11.44628906 108.24804688 C-6.63396342 127.60797764 1.73968258 146.21054448 14 162 C14.59683594 162.81597656 15.19367187 163.63195312 15.80859375 164.47265625 C29.76708566 182.93388749 47.61953134 196.4184521 68 207 C69.05445312 207.55429687 70.10890625 208.10859375 71.1953125 208.6796875 C77.52667885 211.80488879 84.01716244 214.11074606 90.75 216.1875 C91.89130371 216.5446106 91.89130371 216.5446106 93.05566406 216.90893555 C108.71334731 221.51803277 123.83134903 222.48379797 140.08325195 222.39111328 C143.4289639 222.37504101 146.77346526 222.39103951 150.11914062 222.41015625 C166.11523829 222.42649139 181.44681779 221.17834163 196.8125 216.4375 C197.62525391 216.18919434 198.43800781 215.94088867 199.27539062 215.68505859 C213.77627398 211.02406037 227.80769939 204.14845303 240 195 C240.54672363 194.59700684 241.09344727 194.19401367 241.65673828 193.77880859 C266.50976266 175.37608183 284.64951067 151.21720405 295 122 C295.54914063 120.49179688 295.54914063 120.49179688 296.109375 118.953125 C306.76584294 87.31161249 304.85557537 53.78117658 296 22 C296.66 21.67 297.32 21.34 298 21 C298.12375 21.969375 298.2475 22.93875 298.375 23.9375 C298.58125 24.948125 298.7875 25.95875 299 27 C299.66 27.33 300.32 27.66 301 28 C301.5625 29.75 301.5625 29.75 302 32 C302.165 32.81984375 302.33 33.6396875 302.5 34.484375 C302.665 35.31453125 302.83 36.1446875 303 37 C303.33102656 38.41720746 303.66432843 39.83388555 304 41.25 C306.39323574 52.29801909 307.32373681 62.95144531 307.26074219 74.22021484 C307.25001253 76.49734101 307.26070805 78.77367866 307.2734375 81.05078125 C307.28240758 89.87763728 306.7013689 98.30828946 305 107 C304.76506836 108.2063208 304.76506836 108.2063208 304.52539062 109.43701172 C304.09234824 111.53020481 303.62206987 113.60866022 303.125 115.6875 C302.95572998 116.40373535 302.78645996 117.1199707 302.61206055 117.85791016 C301.23565119 123.47132723 299.33614501 128.71351224 297 134 C296.67 134.99 296.34 135.98 296 137 C295.34 137 294.68 137 294 137 C293.87625 137.70125 293.7525 138.4025 293.625 139.125 C292.96161655 142.17656387 292.02788045 145.05340938 291 148 C290.34 148 289.68 148 289 148 C288.9175 148.9075 288.835 149.815 288.75 150.75 C287.88214889 154.51068812 286.70371801 155.37821284 284 158 C282.73215876 161.13350717 282.73215876 161.13350717 282 164 C281.34 164 280.68 164 280 164 C279.34 165.65 278.68 167.3 278 169 C277.34 169 276.68 169 276 169 C275.9071875 169.86625 275.9071875 169.86625 275.8125 170.75 C274.6812921 173.88257571 272.62052199 175.03460851 270 177 C269.67 177.66 269.34 178.32 269 179 C268.34 179 267.68 179 267 179 C266.835 179.680625 266.67 180.36125 266.5 181.0625 C264.2731122 185.42348861 260.74989506 187.93622705 257 191 C255.76765132 192.03790022 254.53826689 193.07933482 253.3125 194.125 C252.74660156 194.60453125 252.18070312 195.0840625 251.59765625 195.578125 C250.07557848 196.932737 248.65841502 198.40256612 247.25 199.875 C245 202 245 202 242 202 C242 202.66 242 203.32 242 204 C241.01 204.33 240.02 204.66 239 205 C238.67 205.66 238.34 206.32 238 207 C236.47038347 207.87283203 234.9003062 208.67563783 233.3125 209.4375 C231.94931641 210.09878906 231.94931641 210.09878906 230.55859375 210.7734375 C229.71425781 211.17820312 228.86992187 211.58296875 228 212 C226.96875 212.515625 225.9375 213.03125 224.875 213.5625 C223.92625 214.036875 222.9775 214.51125 222 215 C221.36320313 215.33 220.72640625 215.66 220.0703125 216 C214.7467812 218.73207644 210.10082108 221 204 221 C204 221.66 204 222.32 204 223 C202.824375 223.2475 201.64875 223.495 200.4375 223.75 C197.54358905 224.37522767 194.73718003 225.08096979 191.90625 225.953125 C168.05960959 233.15008404 141.60218809 231.90263968 117 230 C116.03707031 229.9278125 115.07414063 229.855625 114.08203125 229.78125 C108.29352521 229.27868203 102.67304507 228.24324179 97 227 C97 226.34 97 225.68 97 225 C96.46375 225.20625 95.9275 225.4125 95.375 225.625 C92.1199909 226.1389488 90.00043053 225.26684844 87 224 C86.67 223.34 86.34 222.68 86 222 C84.576875 221.8453125 84.576875 221.8453125 83.125 221.6875 C77.7029965 221.07752461 72.73050691 218.62715003 68 216 C67.67 215.34 67.34 214.68 67 214 C66.236875 214.061875 65.47375 214.12375 64.6875 214.1875 C61.49660032 213.96487909 61.03893855 213.31697562 59 211 C58.01 210.67 57.02 210.34 56 210 C56 209.34 56 208.68 56 208 C54.35 208 52.7 208 51 208 C51 207.34 51 206.68 51 206 C49.35 205.34 47.7 204.68 46 204 C46 203.34 46 202.68 46 202 C44.35 201.67 42.7 201.34 41 201 C40.67 200.01 40.34 199.02 40 198 C39.34 198 38.68 198 38 198 C38 197.34 38 196.68 38 196 C37.41089844 195.91234375 36.82179687 195.8246875 36.21484375 195.734375 C33.40488548 194.80267808 32.4199374 193.53211708 30.5625 191.25 C29.96050781 190.53199219 29.35851563 189.81398438 28.73828125 189.07421875 C28.16464844 188.38972656 27.59101562 187.70523438 27 187 C24.48568286 184.22953259 22.64316088 182.21438696 19 181 C17.98308736 179.00854609 16.98357352 177.00812926 16 175 C15.01 174.34 14.02 173.68 13 173 C13 172.34 13 171.68 13 171 C12.34 170.67 11.68 170.34 11 170 C10.375 167.9375 10.375 167.9375 10 166 C9.34 166 8.68 166 8 166 C7.505 164.02 7.505 164.02 7 162 C6.34 162 5.68 162 5 162 C4.67 160.35 4.34 158.7 4 157 C3.34 157 2.68 157 2 157 C1.72736328 156.04287109 1.72736328 156.04287109 1.44921875 155.06640625 C1.19785156 154.24011719 0.94648438 153.41382813 0.6875 152.5625 C0.44386719 151.73878906 0.20023438 150.91507813 -0.05078125 150.06640625 C-0.36402344 149.38449219 -0.67726563 148.70257813 -1 148 C-1.99 147.67 -2.98 147.34 -4 147 C-5 144.9375 -5 144.9375 -6 142 C-6.49615633 140.6652316 -6.99641463 139.33198331 -7.5 138 C-7.7371875 137.360625 -7.974375 136.72125 -8.21875 136.0625 C-8.77307569 134.59908017 -9.34965319 133.14400256 -9.94140625 131.6953125 C-20.44224595 104.95885717 -25.56013885 67.6181789 -16 40 C-14.08039943 33.38460232 -12.43553414 26.7359679 -11 20 C-10.34 20 -9.68 20 -9 20 C-8.67 18.02 -8.34 16.04 -8 14 C-7.34 14 -6.68 14 -6 14 C-5.87625 13.113125 -5.7525 12.22625 -5.625 11.3125 C-5.05587264 8.29612498 -4.23385564 5.79673946 -3 3 C-2.34 3 -1.68 3 -1 3 C-0.67 2.01 -0.34 1.02 0 0 Z " fill="#111111" transform="translate(20,79)"/>
<path d="M0 0 C3.36499847 0.02918834 6.728432 0.02049688 10.09350586 0.00756836 C25.81157267 0.022464 41.02326371 1.13027813 56.09936523 5.90405273 C57.14809814 6.2238208 57.14809814 6.2238208 58.21801758 6.55004883 C63.35867411 8.15583043 68.2055983 10.10709679 73.03686523 12.46655273 C74.26309447 12.99426469 75.49217327 13.51541764 76.72436523 14.02905273 C85.78385319 17.96052864 85.78385319 17.96052864 87.03686523 20.46655273 C88.67720717 21.19559359 90.34988441 21.85310516 92.03686523 22.46655273 C96.81464301 24.24433051 96.81464301 24.24433051 99.03686523 26.46655273 C100.1727578 27.49843586 101.31960568 28.5183277 102.47436523 29.52905273 C103.36961914 30.31989258 103.36961914 30.31989258 104.28295898 31.12670898 C106.10671144 32.67017396 106.10671144 32.67017396 109.03686523 33.46655273 C111.22436523 35.40405273 111.22436523 35.40405273 113.03686523 37.46655273 C113.03686523 38.12655273 113.03686523 38.78655273 113.03686523 39.46655273 C113.73811523 39.65217773 114.43936523 39.83780273 115.16186523 40.02905273 C118.65731413 41.77677718 120.34412497 43.95351123 122.70483398 47.00561523 C123.36418945 47.7287793 123.36418945 47.7287793 124.03686523 48.46655273 C124.69686523 48.46655273 125.35686523 48.46655273 126.03686523 48.46655273 C127.66186523 50.46655273 127.66186523 50.46655273 129.03686523 52.46655273 C128.04686523 53.12655273 127.05686523 53.78655273 126.03686523 54.46655273 C124.82063477 53.21551758 124.82063477 53.21551758 123.57983398 51.93920898 C94.78294561 22.5597246 57.87559953 3.27777847 16.03686523 2.46655273 C15.11663574 2.44608887 14.19640625 2.425625 13.24829102 2.40454102 C-21.01692147 1.75437782 -53.47579748 5.63598861 -83.21313477 23.90014648 C-85.56065492 25.2372993 -87.32796055 26.01679944 -89.96313477 26.46655273 C-88.54601096 22.88605375 -87.18787852 21.73609666 -83.71313477 20.15405273 C-80.71213119 18.7564425 -77.74860939 17.3528863 -74.82250977 15.80249023 C-51.31473486 3.39257185 -26.37320048 -0.24896764 0 0 Z " fill="#FEFEF9" transform="translate(160.963134765625,-0.466552734375)"/>
<path d="M0 0 C0.33 0 0.66 0 1 0 C1.13986328 0.53665283 1.27972656 1.07330566 1.42382812 1.6262207 C7.93564422 26.27846981 17.03196253 47.6894724 34 67 C34.71800781 67.83917969 35.43601563 68.67835938 36.17578125 69.54296875 C61.48429041 98.53761956 97.58161341 115.31152074 135.6875 118.75 C138.12944962 118.86904867 140.55667321 118.95237073 143 119 C143.92409668 119.02046387 144.84819336 119.04092773 145.80029297 119.06201172 C167.33383077 119.46805162 187.08469875 117.93173888 207.94091797 112.51904297 C210.27969772 111.92949522 212.62742767 111.43359125 215 111 C215.33 111.66 215.66 112.32 216 113 C212.60768056 113.97106115 209.21058557 114.92433195 205.8125 115.875 C204.87212891 116.14441406 203.93175781 116.41382813 202.96289062 116.69140625 C188.25118668 120.78076125 174.35885587 121.34517711 159.16357422 121.31567383 C155.77148084 121.31251997 152.38026701 121.3360148 148.98828125 121.36132812 C136.65824223 121.39782121 125.02178594 120.80513949 113 118 C112.06317383 117.78625732 111.12634766 117.57251465 110.16113281 117.35229492 C107.83202649 116.77788382 105.544221 116.13749193 103.25 115.4375 C102.02083862 115.06286621 102.02083862 115.06286621 100.7668457 114.68066406 C84.97009908 109.6192361 70.298047 101.87210947 57 92 C56.07574219 91.31808594 55.15148438 90.63617188 54.19921875 89.93359375 C29.01152451 70.26853469 10.86880049 43.83132629 1.5 13.3125 C1.2323584 12.45060059 0.9647168 11.58870117 0.68896484 10.70068359 C0.45129395 9.88809082 0.21362305 9.07549805 -0.03125 8.23828125 C-0.34932617 7.156073 -0.34932617 7.156073 -0.67382812 6.05200195 C-1.041266 3.74038865 -0.71394825 2.20994348 0 0 Z " fill="#EEEEE7" transform="translate(8,181)"/>
<path d="M0 0 C0.33 0.66 0.66 1.32 1 2 C0.02710577 4.45036405 -1.00830527 6.80354496 -2.125 9.1875 C-5.62304759 16.97507965 -8.74504234 24.74864032 -11 33 C-11.19754883 33.70576172 -11.39509766 34.41152344 -11.59863281 35.13867188 C-15.71518898 50.67513425 -15.30298738 66.33572345 -14.94067383 82.27294922 C-14.92538635 83.15492477 -14.91009888 84.03690033 -14.89434814 84.94560242 C-14.86386255 86.621045 -14.82037574 88.29631567 -14.762146 89.97102356 C-14.66470473 95.61666908 -14.66470473 95.61666908 -16.51731873 97.73469543 C-17.25124596 98.36102119 -17.25124596 98.36102119 -18 99 C-22.08563595 81.20324679 -21.97990906 57.27529284 -16 40 C-14.08039943 33.38460232 -12.43553414 26.7359679 -11 20 C-10.34 20 -9.68 20 -9 20 C-8.67 18.02 -8.34 16.04 -8 14 C-7.34 14 -6.68 14 -6 14 C-5.87625 13.113125 -5.7525 12.22625 -5.625 11.3125 C-5.05587264 8.29612498 -4.23385564 5.79673946 -3 3 C-2.34 3 -1.68 3 -1 3 C-0.67 2.01 -0.34 1.02 0 0 Z " fill="#1B1B1B" transform="translate(20,79)"/>
<path d="M0 0 C2 3.75 2 3.75 2 6 C2.66 6.33 3.32 6.66 4 7 C4.5625 8.75 4.5625 8.75 5 11 C5.165 11.81984375 5.33 12.6396875 5.5 13.484375 C5.665 14.31453125 5.83 15.1446875 6 16 C6.33102656 17.41720746 6.66432843 18.83388555 7 20.25 C9.37354236 31.16505706 10.27757562 41.64513842 10.125 52.8125 C10.11597656 54.08931641 10.10695313 55.36613281 10.09765625 56.68164062 C10.07438789 59.78796716 10.04170155 62.89387572 10 66 C9.34 66 8.68 66 8 66 C7.02019775 63.06059326 6.84907744 61.04503263 6.7890625 57.9765625 C6.76287842 56.96585693 6.73669434 55.95515137 6.7097168 54.91381836 C6.68176025 53.8285083 6.65380371 52.74319824 6.625 51.625 C6.09919321 35.99829231 4.37470235 20.79736945 0.18237305 5.70678711 C-0.2484937 4.14754814 -0.62996846 2.57478538 -1 1 C-0.67 0.67 -0.34 0.34 0 0 Z " fill="#191919" transform="translate(317,100)"/>
<path d="M0 0 C2.55285712 0.35211822 3.75434068 0.74451431 5.5625 2.625 C7.38512823 5.63629882 8.68358801 8.73758769 10 12 C10.391875 12.928125 10.78375 13.85625 11.1875 14.8125 C12 17 12 17 12 19 C12.66 19.33 13.32 19.66 14 20 C14.48951145 21.99301092 14.96080268 23.9915134 15.36328125 26.00390625 C15.99858696 28.99335089 16.74687362 31.94297874 17.51708984 34.90014648 C19.16745014 41.25410749 20.53108191 47.4351468 21 54 C17.49921995 50.25709107 16.81798368 46.02436203 15.6875 41.1875 C12.51298288 28.46760521 7.85729946 16.98543023 1.3203125 5.609375 C0 3 0 3 0 0 Z " fill="#EAEAE7" transform="translate(301,72)"/>
<path d="M0 0 C2.31 0.66 4.62 1.32 7 2 C7 2.66 7 3.32 7 4 C7.721875 4.28875 8.44375 4.5775 9.1875 4.875 C10.115625 5.24625 11.04375 5.6175 12 6 C13.3303125 6.495 13.3303125 6.495 14.6875 7 C17 8 17 8 19 10 C20.13589257 11.03188313 21.28274044 12.05177497 22.4375 13.0625 C23.03433594 13.58972656 23.63117188 14.11695313 24.24609375 14.66015625 C26.0698462 16.20362122 26.0698462 16.20362122 29 17 C31.1875 18.9375 31.1875 18.9375 33 21 C33 21.66 33 22.32 33 23 C33.70125 23.185625 34.4025 23.37125 35.125 23.5625 C38.6204489 25.31022445 40.30725973 27.48695849 42.66796875 30.5390625 C43.10753906 31.02117188 43.54710937 31.50328125 44 32 C44.66 32 45.32 32 46 32 C47.625 34 47.625 34 49 36 C48.01 36.66 47.02 37.32 46 38 C44.78376953 36.74896484 44.78376953 36.74896484 43.54296875 35.47265625 C30.45869223 22.12366893 16.30796035 11.13663932 0 2 C0 1.34 0 0.68 0 0 Z " fill="#EEEEEB" transform="translate(241,16)"/>
<path d="M0 0 C0.33 0.66 0.66 1.32 1 2 C0.02710189 4.45037381 -1.00777576 6.80377206 -2.125 9.1875 C-7.80806758 21.7785321 -11.62641432 34.39530156 -14 48 C-14.66 48 -15.32 48 -16 48 C-16 49.65 -16 51.3 -16 53 C-16.99 53 -17.98 53 -19 53 C-18.44785331 48.39877758 -17.51208131 44.36823489 -16 40 C-14.08039943 33.38460232 -12.43553414 26.7359679 -11 20 C-10.34 20 -9.68 20 -9 20 C-8.67 18.02 -8.34 16.04 -8 14 C-7.34 14 -6.68 14 -6 14 C-5.87625 13.113125 -5.7525 12.22625 -5.625 11.3125 C-5.05587264 8.29612498 -4.23385564 5.79673946 -3 3 C-2.34 3 -1.68 3 -1 3 C-0.67 2.01 -0.34 1.02 0 0 Z " fill="#131313" transform="translate(20,79)"/>
<path d="M0 0 C0.52335937 0.22945312 1.04671875 0.45890625 1.5859375 0.6953125 C-1.82965874 2.97237666 -5.42232475 4.71080947 -9.1015625 6.5078125 C-13.60936293 8.72461459 -18.01481443 10.94269063 -22.2265625 13.6953125 C-25.4140625 15.6953125 -25.4140625 15.6953125 -28.4140625 15.6953125 C-26.99693869 12.11481351 -25.63880626 10.96485643 -22.1640625 9.3828125 C-18.99843004 7.91074726 -15.86367535 6.42355522 -12.78125 4.78515625 C-12.1615332 4.4600708 -11.54181641 4.13498535 -10.90332031 3.80004883 C-9.10529092 2.85511798 -7.31039432 1.90423335 -5.515625 0.953125 C-2.4140625 -0.3046875 -2.4140625 -0.3046875 0 0 Z " fill="#F5F5F0" transform="translate(99.4140625,10.3046875)"/>
<path d="M0 0 C0.66 0.33 1.32 0.66 2 1 C1.67 1.66 1.34 2.32 1 3 C1.66 3 2.32 3 3 3 C2.85930804 5.12534659 2.71229079 7.25027529 2.5625 9.375 C2.48128906 10.55835938 2.40007812 11.74171875 2.31640625 12.9609375 C2 16 2 16 1 18 C0.34 18 -0.32 18 -1 18 C-1.33 18.99 -1.66 19.98 -2 21 C-2.33 21 -2.66 21 -3 21 C-2.48462048 13.86606248 -1.55994099 6.98187183 0 0 Z " fill="#0F0F0F" transform="translate(324,163)"/>
<path d="M0 0 C0.66 0 1.32 0 2 0 C2.53321262 2.22623801 3.05110119 4.45615004 3.5625 6.6875 C3.85253906 7.92886719 4.14257812 9.17023438 4.44140625 10.44921875 C4.96241956 13.76111454 4.91852996 15.81860153 4 19 C3.67 17.68 3.34 16.36 3 15 C2.01 15 1.02 15 0 15 C-2.27571116 5.98468271 -2.27571116 5.98468271 -1.125 1.875 C-0.75375 1.25625 -0.3825 0.6375 0 0 Z " fill="#121212" transform="translate(4,175)"/>
<path d="M0 0 C0.66 1.32 1.32 2.64 2 4 C0.73608512 5.00873016 -0.53640883 6.00671822 -1.8125 7 C-2.87404297 7.8353125 -2.87404297 7.8353125 -3.95703125 8.6875 C-6 10 -6 10 -9 10 C-9 10.99 -9 11.98 -9 13 C-11.8125 15.75 -11.8125 15.75 -15 18 C-15.99 17.67 -16.98 17.34 -18 17 C-16.71937515 15.2925002 -15.38232443 13.62626404 -14 12 C-13.34 12 -12.68 12 -12 12 C-12 11.34 -12 10.68 -12 10 C-10.6875 8.375 -10.6875 8.375 -9 7 C-8.01 7 -7.02 7 -6 7 C-5.67 6.01 -5.34 5.02 -5 4 C-3.35 3.67 -1.7 3.34 0 3 C0 2.01 0 1.02 0 0 Z " fill="#C9C9C6" transform="translate(66,26)"/>
<path d="M0 0 C1.32 0.33 2.64 0.66 4 1 C4 1.66 4 2.32 4 3 C4.70125 3.185625 5.4025 3.37125 6.125 3.5625 C9.6204489 5.31022445 11.30725973 7.48695849 13.66796875 10.5390625 C14.10753906 11.02117188 14.54710937 11.50328125 15 12 C15.66 12 16.32 12 17 12 C18.625 14 18.625 14 20 16 C19.01 16.66 18.02 17.32 17 18 C16.10796875 17.09636719 15.2159375 16.19273438 14.296875 15.26171875 C13.11471766 14.07017921 11.93241853 12.87878034 10.75 11.6875 C10.16347656 11.09259766 9.57695312 10.49769531 8.97265625 9.88476562 C6.58509116 7.48378724 4.3041634 5.22517904 1.578125 3.20703125 C1.05734375 2.80871094 0.5365625 2.41039062 0 2 C0 1.34 0 0.68 0 0 Z " fill="#C9C9C6" transform="translate(270,36)"/>
<path d="M0 0 C0.33 0 0.66 0 1 0 C0.89045592 3.62564187 0.7597504 7.25021431 0.625 10.875 C0.5940625 11.90753906 0.563125 12.94007813 0.53125 14.00390625 C0.49257812 14.99003906 0.45390625 15.97617188 0.4140625 16.9921875 C0.3826416 17.90339355 0.3512207 18.81459961 0.31884766 19.75341797 C0 22 0 22 -2 24 C-3.11630207 20.65109379 -3.16765424 18.02460739 -3.1875 14.5 C-3.20167969 13.3553125 -3.21585937 12.210625 -3.23046875 11.03125 C-3 8 -3 8 -1 5 C-0.61500109 3.34450469 -0.27206865 1.6777567 0 0 Z " fill="#1D1D1D" transform="translate(4,127)"/>
<path d="M0 0 C2 0 2 0 3.5 1.0625 C5.64689713 3.83557546 6.2593278 6.60525242 7 10 C6.67 10.66 6.34 11.32 6 12 C5.34 12 4.68 12 4 12 C4.33 12.99 4.66 13.98 5 15 C4.34 15 3.68 15 3 15 C2.30359327 12.87790224 1.61811643 10.75221473 0.9375 8.625 C0.55464844 7.44164062 0.17179688 6.25828125 -0.22265625 5.0390625 C-1 2 -1 2 0 0 Z " fill="#181818" transform="translate(5,190)"/>
<path d="M0 0 C4.22400501 2.47614087 5.30116211 5.52124557 7 10 C7.5878125 11.3921875 7.5878125 11.3921875 8.1875 12.8125 C9 15 9 15 9 17 C9.66 17.33 10.32 17.66 11 18 C11.73075648 20.3140622 12.40138258 22.64828869 13 25 C12.34 25.33 11.68 25.66 11 26 C10.54109375 24.9378125 10.0821875 23.875625 9.609375 22.78125 C5.78011272 13.86290533 5.78011272 13.86290533 1.5625 5.125 C0 2 0 2 0 0 Z " fill="#282828" transform="translate(304,74)"/>
<path d="M0 0 C1.875 0.625 1.875 0.625 4 2 C4.68822481 3.99268438 5.35118441 5.9941379 6 8 C7.55828068 11.10078129 9.19894462 14.14606668 10.85546875 17.1953125 C12.10387297 20.25454196 11.9428366 20.98985016 11 24 C10.18595703 22.35451172 10.18595703 22.35451172 9.35546875 20.67578125 C8.6329203 19.22130061 7.91025804 17.7668765 7.1875 16.3125 C6.83107422 15.59126953 6.47464844 14.87003906 6.10742188 14.12695312 C4.57880065 11.05568662 3.05222323 8.08395087 1.23828125 5.16796875 C0 3 0 3 0 0 Z " fill="#F6F6F2" transform="translate(301,72)"/>
<path d="M0 0 C0.33 0 0.66 0 1 0 C1.24875561 2.26877104 1.47339246 4.54019735 1.6875 6.8125 C1.81511719 8.07707031 1.94273438 9.34164062 2.07421875 10.64453125 C2 14 2 14 0.51953125 15.94921875 C0.01808594 16.29597656 -0.48335938 16.64273438 -1 17 C-2.26708251 11.93166998 -2.97547868 6.4386967 -1 1.5 C-0.67 1.005 -0.34 0.51 0 0 Z " fill="#171717" transform="translate(3,161)"/>
<path d="M0 0 C0.33 0.66 0.66 1.32 1 2 C-0.03141882 4.66277466 -1.12034038 7.22295405 -2.3125 9.8125 C-2.95505551 11.23539346 -3.59699693 12.65856442 -4.23828125 14.08203125 C-4.69581787 15.09064209 -4.69581787 15.09064209 -5.16259766 16.11962891 C-6.17304299 18.38856475 -7.10356357 20.68382669 -8 23 C-8.99 22.67 -9.98 22.34 -11 22 C-11 21.34 -11 20.68 -11 20 C-10.34 20 -9.68 20 -9 20 C-8.67 18.02 -8.34 16.04 -8 14 C-7.34 14 -6.68 14 -6 14 C-5.87625 13.113125 -5.7525 12.22625 -5.625 11.3125 C-5.05587264 8.29612498 -4.23385564 5.79673946 -3 3 C-2.34 3 -1.68 3 -1 3 C-0.67 2.01 -0.34 1.02 0 0 Z " fill="#323232" transform="translate(20,79)"/>
<path d="M0 0 C2 3.75 2 3.75 2 6 C2.66 6.33 3.32 6.66 4 7 C4.59765625 8.9609375 4.59765625 8.9609375 5.0625 11.375 C5.58410686 14.02183151 6.14392083 16.4317625 7 19 C6.01 19 5.02 19 4 19 C3.13499112 16.39898714 2.28273072 13.79493589 1.4375 11.1875 C1.19064453 10.44951172 0.94378906 9.71152344 0.68945312 8.95117188 C-1.11328125 3.33984375 -1.11328125 3.33984375 0 0 Z " fill="#222222" transform="translate(317,100)"/>
<path d="M0 0 C0.66 0 1.32 0 2 0 C-1.18944126 6.92878618 -6.47762102 12.81231066 -12 18 C-11.44450219 13.87762151 -9.20334406 11.54313262 -6.5625 8.4375 C-4.22275057 5.66961022 -2.01124027 3.0168604 0 0 Z " fill="#EFEFE8" transform="translate(296,235)"/>
<path d="M0 0 C0.99 0.33 1.98 0.66 3 1 C1.10775143 2.60856218 -0.78856025 4.21186966 -2.6875 5.8125 C-3.21794922 6.26431641 -3.74839844 6.71613281 -4.29492188 7.18164062 C-7.38523306 9.77901874 -10.47498949 12.03148764 -14 14 C-14.33 13.34 -14.66 12.68 -15 12 C-13.75283203 11.07767578 -13.75283203 11.07767578 -12.48046875 10.13671875 C-11.38271657 9.32044149 -10.28506563 8.50402807 -9.1875 7.6875 C-8.64029297 7.28337891 -8.09308594 6.87925781 -7.52929688 6.46289062 C-4.83867796 4.45715653 -2.27895795 2.4708702 0 0 Z " fill="#EDEDE7" transform="translate(272,262)"/>
<path d="M0 0 C0.99 0.33 1.98 0.66 3 1 C3.125 6.75 3.125 6.75 2 9 C-1.875 7.25 -1.875 7.25 -3 5 C-1.5625 2.375 -1.5625 2.375 0 0 Z " fill="#1E1E1E" transform="translate(318,196)"/>
<path d="M0 0 C0.33 1.32 0.66 2.64 1 4 C-1.64 6.31 -4.28 8.62 -7 11 C-7.66 10.67 -8.32 10.34 -9 10 C-9 9.34 -9 8.68 -9 8 C-7.68 7.34 -6.36 6.68 -5 6 C-5 5.34 -5 4.68 -5 4 C-3.37373596 2.61767557 -1.7074998 1.28062485 0 0 Z " fill="#B8B8B7" transform="translate(47,43)"/>
<path d="M0 0 C1.32 0.99 2.64 1.98 4 3 C3.34 4.65 2.68 6.3 2 8 C1.34 8 0.68 8 0 8 C-0.33 8.66 -0.66 9.32 -1 10 C-1 9.34 -1 8.68 -1 8 C-1.66 7.67 -2.32 7.34 -3 7 C-2.01 4.69 -1.02 2.38 0 0 Z " fill="#141414" transform="translate(315,202)"/>
<path d="M0 0 C0.33 0.66 0.66 1.32 1 2 C0.36474424 3.67889021 -0.30686092 5.34416775 -1 7 C-1.165 7.845625 -1.33 8.69125 -1.5 9.5625 C-2.0111599 12.0544045 -2.62523692 13.86147966 -4 16 C-4.99 16.33 -5.98 16.66 -7 17 C-6.566875 15.7625 -6.566875 15.7625 -6.125 14.5 C-4.90101549 10.69204819 -3.9383118 6.88729173 -3 3 C-2.34 3 -1.68 3 -1 3 C-0.67 2.01 -0.34 1.02 0 0 Z " fill="#B2B2AD" transform="translate(24,72)"/>
<path d="M0 0 C2.3125 0.0625 2.3125 0.0625 5 1 C6.75 4.4375 6.75 4.4375 8 8 C8.33 8.66 8.66 9.32 9 10 C7.68 10 6.36 10 5 10 C3.515625 8.3203125 3.515625 8.3203125 2.25 6.125 C1.60804688 5.04605469 1.60804688 5.04605469 0.953125 3.9453125 C0 2 0 2 0 0 Z " fill="#ACACAA" transform="translate(295,63)"/>
<path d="M0 0 C0.66 1.32 1.32 2.64 2 4 C-0.64 5.98 -3.28 7.96 -6 10 C-6.66 9.67 -7.32 9.34 -8 9 C-6.8125 6.5625 -6.8125 6.5625 -5 4 C-2.3125 3.1875 -2.3125 3.1875 0 3 C0 2.01 0 1.02 0 0 Z " fill="#DADAD7" transform="translate(66,26)"/>
<path d="M0 0 C2 1.5 2 1.5 4 4 C4.35800135 6.75871627 4.18660165 9.20097524 4 12 C1.95780294 10.30820672 1.08206694 9.36272334 0.48828125 6.73828125 C0.43027344 5.93777344 0.37226563 5.13726562 0.3125 4.3125 C0.24675781 3.50425781 0.18101562 2.69601563 0.11328125 1.86328125 C0.07589844 1.24839844 0.03851563 0.63351563 0 0 Z " fill="#101010" transform="translate(321,119)"/>
<path d="M0 0 C0.7425 0.45375 1.485 0.9075 2.25 1.375 C4.86680978 2.99254996 4.86680978 2.99254996 7.25 4 C9 5 9 5 10 8 C6.45595664 8 5.89732095 7.39010515 3.3125 5.125 C2.68988281 4.59132813 2.06726563 4.05765625 1.42578125 3.5078125 C0 2 0 2 0 0 Z " fill="#DFDFDC" transform="translate(261,28)"/>
<path d="M0 0 C0.625 2.875 0.625 2.875 1 6 C0.34 6.66 -0.32 7.32 -1 8 C-1 6.68 -1 5.36 -1 4 C-1.99 4 -2.98 4 -4 4 C-4.33 3.01 -4.66 2.02 -5 1 C-3 0 -3 0 0 0 Z " fill="#070707" transform="translate(8,186)"/>
<path d="M0 0 C-1.36983503 3.16115776 -1.9890638 3.9927092 -5 6 C-5.99 6 -6.98 6 -8 6 C-6.24081631 1.94034532 -4.71412298 0 0 0 Z " fill="#DDDDD9" transform="translate(79,20)"/>
<path d="M0 0 C0.66 0.33 1.32 0.66 2 1 C-0.97 5.95 -0.97 5.95 -4 11 C-4.66 10.34 -5.32 9.68 -6 9 C-5.18914873 7.68648079 -4.37626942 6.37421332 -3.5625 5.0625 C-3.11003906 4.33160156 -2.65757813 3.60070312 -2.19140625 2.84765625 C-1 1 -1 1 0 0 Z " fill="#FBFBF3" transform="translate(28,69)"/>
<path d="M0 0 C1.32 0.33 2.64 0.66 4 1 C4 2.65 4 4.3 4 6 C2.68 6.33 1.36 6.66 0 7 C0 4.69 0 2.38 0 0 Z " fill="#232323" transform="translate(0,148)"/>
<path d="M0 0 C0.99 0.33 1.98 0.66 3 1 C2.42655063 3.86724686 2.1385485 4.8614515 0 7 C-0.99 6.34 -1.98 5.68 -3 5 C-2.505 4.360625 -2.01 3.72125 -1.5 3.0625 C0.09802862 1.29025661 0.09802862 1.29025661 0 0 Z " fill="#9C9C9A" transform="translate(33,57)"/>
<path d="M0 0 C0.66 0.33 1.32 0.66 2 1 C0.35 2.98 -1.3 4.96 -3 7 C-3.99 6.01 -4.98 5.02 -6 4 C-5.01 3.67 -4.02 3.34 -3 3 C-3 2.34 -3 1.68 -3 1 C-2.01 0.67 -1.02 0.34 0 0 Z " fill="#F7F7EE" transform="translate(40,53)"/>
<path d="M0 0 C0.33 0 0.66 0 1 0 C1.125 6.625 1.125 6.625 0 10 C-0.99 10 -1.98 10 -3 10 C-2.01 6.7 -1.02 3.4 0 0 Z " fill="#050505" transform="translate(4,127)"/>
<path d="M0 0 C0.66 0 1.32 0 2 0 C1.67 2.64 1.34 5.28 1 8 C0.01 8 -0.98 8 -2 8 C-1.125 1.125 -1.125 1.125 0 0 Z " fill="#555555" transform="translate(3,124)"/>
<path d="M0 0 C0.99 0 1.98 0 3 0 C3 1.32 3 2.64 3 4 C0.5 5.75 0.5 5.75 -2 7 C-1.34 4.69 -0.68 2.38 0 0 Z " fill="#5C5C5C" transform="translate(27,65)"/>
<path d="M0 0 C0.99 0 1.98 0 3 0 C5.1385485 2.1385485 5.42655063 3.13275314 6 6 C2.535 4.02 2.535 4.02 -1 2 C-0.67 1.34 -0.34 0.68 0 0 Z " fill="#FDFDF8" transform="translate(255,24)"/>
<path d="" fill="#FFFFFF" transform="translate(0,0)"/>
<path d="" fill="#FFFFFF" transform="translate(0,0)"/>
<path d="" fill="#000000" transform="translate(0,0)"/>
<path d="" fill="#FFFFFF" transform="translate(0,0)"/>
<path d="" fill="#FFFFFF" transform="translate(0,0)"/>
<path d="" fill="#FFFFFF" transform="translate(0,0)"/>
<path d="" fill="#FFFFFF" transform="translate(0,0)"/>
<path d="" fill="#FFFFFF" transform="translate(0,0)"/>
<path d="" fill="#FFFFFF" transform="translate(0,0)"/>
<path d="" fill="#000000" transform="translate(0,0)"/>
</svg>
