<?xml version="1.0" encoding="UTF-8"?>
<svg version="1.1" xmlns="http://www.w3.org/2000/svg" width="1280" height="657">
<path d="M0 0 C0.74934814 -0.00226593 1.49869629 -0.00453186 2.27075195 -0.00686646 C4.45432885 -0.00611718 6.63690827 0.01250686 8.8203125 0.0390625 C10.08375488 0.05404785 11.34719727 0.0690332 12.64892578 0.08447266 C18.09837906 0.45910289 23.48700534 1.47700089 28.875 2.375 C28.875 218.525 28.875 434.675 28.875 657.375 C-10.09722544 652.17870328 -35.596885 632.91760534 -62.9375 605.6875 C-63.73792725 604.89174561 -64.53835449 604.09599121 -65.36303711 603.27612305 C-69.58851178 599.03920558 -73.63436782 594.71673132 -77.53686523 590.18139648 C-79.82743564 587.5760267 -82.26829569 585.17448923 -84.75 582.75 C-90.36898126 577.22288477 -90.36898126 577.22288477 -92.8125 574.125 C-95.28478849 571.18498126 -97.93216219 568.81841721 -100.85546875 566.33984375 C-102.43320434 564.9739212 -103.97561946 563.56656002 -105.48828125 562.12890625 C-113.41026963 554.61563958 -122.0508461 548.41769436 -131.125 542.375 C-132.13304687 541.70339844 -133.14109375 541.03179688 -134.1796875 540.33984375 C-172.56614572 516.47064381 -223.61275705 512.72435352 -267.5 513 C-268.87792856 513.00565312 -270.25585832 513.01102046 -271.63378906 513.01611328 C-292.22784276 513.10252789 -312.60486428 513.7076865 -333.07550049 516.02941895 C-335.95240631 516.35544102 -338.8298237 516.67662572 -341.70742893 516.99640846 C-357.44025236 518.74534813 -373.16703091 520.54507706 -388.890625 522.375 C-402.26369735 523.93130018 -415.63812638 525.47246534 -429.02102661 526.94244385 C-430.82468577 527.1411656 -432.62814843 527.34168263 -434.43136597 527.54437256 C-459.46907515 530.35708078 -484.36224802 531.78844669 -509.5625 531.75 C-510.57230612 531.74964123 -510.57230612 531.74964123 -511.60251236 531.74927521 C-532.95390175 531.73972274 -553.96827893 531.0622356 -575.08282471 527.69787598 C-577.20195404 527.36283326 -579.32296409 527.04284794 -581.44482422 526.72558594 C-633.06883114 518.94803513 -680.34599981 503.44294648 -727.82447815 481.77410889 C-767.60983434 463.62286527 -807.66296495 448.60261161 -850.08398438 437.890625 C-851.99825159 437.40702065 -853.91128166 436.91852676 -855.82421875 436.4296875 C-930.39222724 417.55386323 -1007.5460041 426.37247143 -1083.015625 433.96484375 C-1216.84811541 447.42024725 -1216.84811541 447.42024725 -1248.125 422.375 C-1248.65484491 421.98181365 -1249.18468982 421.5886273 -1249.73059064 421.18352622 C-1251.83691932 418.45165224 -1251.49736485 416.2058607 -1251.49414349 412.79014301 C-1251.49760502 412.11470875 -1251.50106655 411.43927449 -1251.50463298 410.74337253 C-1251.51261979 408.46356802 -1251.49907757 406.18438988 -1251.48576355 403.90461731 C-1251.48707091 402.26035608 -1251.48969604 400.61609545 -1251.49353105 398.97183818 C-1251.50026168 394.4407104 -1251.48820806 389.90979404 -1251.47319686 385.37869322 C-1251.46027779 380.49730967 -1251.46462303 375.61593867 -1251.46690369 370.73454285 C-1251.46847904 362.27294386 -1251.45904248 353.81141411 -1251.44219017 345.34983253 C-1251.4178402 333.11571877 -1251.409999 320.88163859 -1251.4062262 308.64750322 C-1251.39965542 288.79989526 -1251.37967728 268.95232423 -1251.35131836 249.10473633 C-1251.32379399 229.82120957 -1251.30255247 210.53769282 -1251.28979492 191.25415039 C-1251.28900675 190.06611432 -1251.28821858 188.87807825 -1251.28740653 187.65404109 C-1251.2834915 181.6941927 -1251.27970036 175.73434423 -1251.27597082 169.77449572 C-1251.24485541 120.30797162 -1251.19200258 70.84148761 -1251.125 21.375 C-1211.42017174 14.56475361 -1168.42507949 37.9300783 -1133.125 53.375 C-1086.66184459 74.01210482 -1086.66184459 74.01210482 -1038.25 89.25 C-1037.11195923 89.53701782 -1037.11195923 89.53701782 -1035.95092773 89.82983398 C-1021.70922271 93.13114971 -1007.29798332 93.72560371 -992.75 93.1875 C-991.96164764 93.1616684 -991.17329529 93.13583679 -990.36105347 93.10922241 C-923.69771197 90.9022997 -857.83420316 78.45607271 -792.3125 66.8125 C-622.84800064 36.70199594 -622.84800064 36.70199594 -545.125 45.375 C-544.00689941 45.49858887 -542.88879883 45.62217773 -541.73681641 45.74951172 C-501.67048846 50.36287118 -462.82412409 60.99003492 -423.9453125 71.34765625 C-336.80577797 94.53675184 -246.66051529 107.55883112 -163.47900391 63.609375 C-160.62599447 62.1133352 -157.75661964 60.65087165 -154.88671875 59.1875 C-144.3270345 53.78525623 -133.83027525 48.31639808 -123.5625 42.375 C-84.72288971 19.90539844 -45.75176697 0.09128874 0 0 Z " fill="#591249" transform="translate(1251.125,-0.375)"/>
</svg>
