<?xml version="1.0" encoding="UTF-8"?>
<svg version="1.1" xmlns="http://www.w3.org/2000/svg" width="1280" height="655">
<path d="M0 0 C0.33 0 0.66 0 1 0 C1 195.03 1 390.06 1 591 C-26.95835309 603.81424517 -26.95835309 603.81424517 -36.3125 607.5625 C-37.4252832 608.01101318 -38.53806641 608.45952637 -39.68457031 608.92163086 C-57.16205995 615.91581872 -74.7975647 622.39421567 -92.6875 628.25 C-93.86022461 628.63808838 -95.03294922 629.02617676 -96.24121094 629.42602539 C-116.69657423 636.00335296 -137.6283454 640.26915701 -158.75 644.0625 C-161.13642278 644.49670519 -163.52273388 644.93152462 -165.90893555 645.36694336 C-171.60787439 646.40503622 -177.308365 647.43427589 -183.00946045 648.46044922 C-186.44200461 649.07974612 -189.87331932 649.70556988 -193.30429077 650.33351135 C-196.47308587 650.91319811 -199.64275104 651.488055 -202.8125 652.0625 C-203.8634082 652.25400635 -204.91431641 652.4455127 -205.99707031 652.64282227 C-206.95323242 652.81354248 -207.90939453 652.9842627 -208.89453125 653.16015625 C-209.67675049 653.30074463 -210.45896973 653.44133301 -211.26489258 653.58618164 C-218.76208322 654.72049728 -226.11837956 655.16798846 -233.69921875 655.203125 C-234.71512589 655.21013931 -235.73103302 655.21715363 -236.77772522 655.22438049 C-240.08102856 655.24192166 -243.38415162 655.24824372 -246.6875 655.25 C-247.82425171 655.25067474 -248.96100342 655.25134949 -250.13220215 655.25204468 C-270.88930712 655.23256828 -291.37156648 654.27675661 -312 652 C-312.79390137 651.91278687 -313.58780273 651.82557373 -314.40576172 651.73571777 C-362.62900133 646.38425502 -408.13223475 636.47651668 -454.18383789 621.17529297 C-514.87687999 601.03485688 -576.14936679 593.85859157 -639.74866867 591.82064438 C-641.90274853 591.7511216 -644.05673598 591.67915171 -646.21072388 591.60684204 C-670.57229504 590.80150413 -694.56619659 591.33910196 -718.8125 593.9375 C-719.78579254 594.03993011 -720.75908508 594.14236023 -721.76187134 594.24789429 C-767.07056038 599.05122218 -812.29151003 605.41382301 -857.29760742 612.48754883 C-868.46782144 614.23541897 -879.61192371 615.71185033 -890.86663818 616.79241943 C-894.1491083 617.11181064 -897.42781479 617.46538308 -900.70703125 617.81640625 C-903.07550611 618.06524438 -905.4439954 618.3139451 -907.8125 618.5625 C-908.99263672 618.68818359 -910.17277344 618.81386719 -911.38867188 618.94335938 C-912.56623047 619.06646484 -913.74378906 619.18957031 -914.95703125 619.31640625 C-916.48807495 619.47798218 -916.48807495 619.47798218 -918.05004883 619.64282227 C-928.75933535 620.61121872 -939.39107886 621.16435854 -950.14453125 621.203125 C-951.45640411 621.21013931 -952.76827698 621.21715363 -954.11990356 621.22438049 C-958.35077385 621.2438359 -962.58158951 621.24881805 -966.8125 621.25 C-967.53615376 621.25044186 -968.25980751 621.25088371 -969.00539017 621.25133896 C-993.45212872 621.25915686 -1017.67220118 620.56643983 -1042 618 C-1042.86524292 617.9104303 -1043.73048584 617.8208606 -1044.62194824 617.72857666 C-1125.89801381 609.29143083 -1205.96529224 584.87209691 -1279 548 C-1278.67 547.01 -1278.34 546.02 -1278 545 C-1277.45957062 545.10751587 -1276.91914124 545.21503174 -1276.36233521 545.32580566 C-1200.12688277 560.46701496 -1125.01620625 571.23646175 -1047.1875 571.25 C-1046.40613049 571.25029457 -1045.62476097 571.25058914 -1044.81971359 571.25089264 C-1021.0990723 571.2523319 -997.55924589 571.03261775 -974 568 C-973.24114502 567.90525391 -972.48229004 567.81050781 -971.70043945 567.71289062 C-886.70392244 557.08506993 -805.6962048 531.08563008 -731.83984375 487.4375 C-727.25926451 484.7306911 -722.65009825 482.08093232 -718.01928711 479.46118164 C-699.35248487 468.8965659 -681.09625489 457.98762528 -664 445 C-663.37834961 444.52997559 -662.75669922 444.05995117 -662.11621094 443.57568359 C-649.35763534 433.88122952 -637.38821333 423.27380038 -625.62109375 412.41015625 C-622.85390289 409.86566034 -620.05640326 407.36654812 -617.2109375 404.91015625 C-615.49750141 403.42982012 -613.79685119 401.93467821 -612.1015625 400.43359375 C-590.5169263 381.45606331 -566.90160475 366.19447179 -542 352 C-540.9157373 351.37899414 -539.83147461 350.75798828 -538.71435547 350.11816406 C-509.23465003 333.28131033 -479.10964359 318.79888852 -446.5 309.0625 C-445.64317627 308.8042041 -444.78635254 308.5459082 -443.90356445 308.27978516 C-424.12359079 302.66309028 -403.58542525 300.54458108 -383.23095703 298.14819336 C-322.17114719 290.91194728 -265.71083417 270.45835954 -211 243 C-209.25033936 242.12311523 -209.25033936 242.12311523 -207.46533203 241.22851562 C-174.89595952 224.81275111 -144.95956072 205.42888738 -117 182 C-116.4848584 181.56977539 -115.9697168 181.13955078 -115.43896484 180.69628906 C-97.0328769 165.30965132 -78.57252356 149.22468239 -64.33349609 129.79101562 C-62.84737041 127.79500354 -61.31307183 125.84255032 -59.76953125 123.890625 C-47.28405137 108.03784904 -38.08857797 90.98447677 -29 73 C-28.44530029 71.90679443 -28.44530029 71.90679443 -27.87939453 70.79150391 C-16.50781766 48.16489635 -7.9820031 23.98892328 0 0 Z " fill="#9A2582" transform="translate(1279,0)"/>
<path d="M0 0 C0.33 0 0.66 0 1 0 C1.20606243 38.81225581 1.3646185 77.62442913 1.45958797 116.43712141 C1.47084414 121.0207446 1.48249306 125.6043667 1.49438477 130.18798828 C1.49674556 131.1004933 1.49910635 132.01299831 1.50153869 132.953155 C1.54068582 147.72257994 1.61163856 162.49168916 1.69437516 177.26092689 C1.77858059 192.41894182 1.82853774 207.57679155 1.84679645 222.73503077 C1.85913723 232.08642299 1.89809236 241.43692278 1.9712482 250.78804024 C2.01887393 257.20310644 2.0331895 263.61771224 2.0215124 270.03294234 C2.01575516 273.73292984 2.0244891 277.43135972 2.07284927 281.13106918 C2.12497801 285.14856155 2.10684796 289.16275663 2.08229065 293.18051147 C2.10850622 294.34201324 2.1347218 295.503515 2.16173178 296.70021379 C2.03070994 304.63949184 -0.17810937 308.4648484 -5.82515866 314.01904452 C-6.90170512 314.99961748 -6.90170512 314.99961748 -8 316 C-9.2375 317.2375 -9.2375 317.2375 -10.5 318.5 C-11.7375 319.7375 -11.7375 319.7375 -13 321 C-14.46195614 322.64261612 -15.91986564 324.28883767 -17.375 325.9375 C-21.01123701 330.01762548 -24.80845999 333.50704999 -29 337 C-29.33 337.66 -29.66 338.32 -30 339 C-30.66 339 -31.32 339 -32 339 C-32 339.66 -32 340.32 -32 341 C-33.29296875 342.3046875 -33.29296875 342.3046875 -35.1875 343.875 C-38.42023298 346.61654033 -41.55902248 349.42760701 -44.65307617 352.32275391 C-50.89501038 358.16153832 -57.3219645 363.66116677 -64 369 C-65.08325027 369.89696734 -66.16522003 370.79548275 -67.24609375 371.6953125 C-86.29332209 387.42766226 -108.01730879 403.26225443 -131.33203125 411.9375 C-133.59457929 412.83854402 -135.67869795 413.83667159 -137.83984375 414.94921875 C-141.71781651 416.91570687 -145.63602526 418.42078179 -149.75 419.8125 C-151.24359341 420.32652133 -152.73707841 420.84085774 -154.23046875 421.35546875 C-155.00696777 421.62149902 -155.7834668 421.8875293 -156.58349609 422.16162109 C-159.05961974 423.0206844 -161.52446685 423.90706812 -163.98828125 424.80078125 C-174.22810053 428.49882336 -184.35797729 431.65305017 -195 434 C-196.01094727 434.2254248 -197.02189453 434.45084961 -198.06347656 434.68310547 C-211.46906184 437.65803827 -224.89081627 440.462618 -238.42431641 442.79492188 C-239.26655762 442.94123047 -240.10879883 443.08753906 -240.9765625 443.23828125 C-241.70955566 443.36243408 -242.44254883 443.48658691 -243.19775391 443.61450195 C-245.08969405 443.94058188 -245.08969405 443.94058188 -247 445 C-248.69206936 445.27788929 -250.39173462 445.51026784 -252.09375 445.71875 C-253.640625 445.91017578 -253.640625 445.91017578 -255.21875 446.10546875 C-256.84296875 446.30076172 -256.84296875 446.30076172 -258.5 446.5 C-259.551875 446.63019531 -260.60375 446.76039063 -261.6875 446.89453125 C-264.79067372 447.27474684 -267.89330989 447.64951104 -271 448 C-271.68688967 448.08219567 -272.37377934 448.16439135 -273.08148384 448.2490778 C-279.80033654 448.99810032 -286.44429634 449.15741635 -293.20068359 449.17358398 C-294.37946075 449.180271 -295.55823792 449.18695801 -296.7727356 449.19384766 C-299.31857678 449.20783159 -301.86443001 449.21974642 -304.41028976 449.22979546 C-308.45762336 449.24633562 -312.50486912 449.26938074 -316.55215454 449.29469299 C-328.05539222 449.36540446 -339.55867238 449.42533081 -351.06201172 449.47680664 C-357.42967403 449.50537431 -363.7972626 449.5408944 -370.16484702 449.58346039 C-373.51883873 449.60554656 -376.87269978 449.62303638 -380.22675705 449.63390923 C-399.90780718 449.69860362 -418.91904748 450.78087404 -438.296875 454.2265625 C-442.44119003 454.93476823 -446.59383557 455.46921781 -450.76733398 455.97314453 C-498.68558452 461.79080269 -546.0106505 473.81501562 -591.875 488.625 C-592.72017181 488.89704254 -593.56534363 489.16908508 -594.43612671 489.44937134 C-604.0267398 492.54775103 -613.4457946 495.87237132 -622.7734375 499.69140625 C-626.82558397 501.33483127 -630.92194234 502.78609489 -635.0625 504.1875 C-643.6265628 507.13494939 -652.12903782 510.23732329 -660.625 513.375 C-669.9008118 516.79974996 -679.20081466 520.12807142 -688.5625 523.3125 C-699.21119005 526.94693336 -709.73522325 530.87400088 -720.25 534.875 C-721.8500866 535.48326477 -723.45018425 536.09150047 -725.05029297 536.69970703 C-727.428178 537.60373704 -729.80605677 538.5077835 -732.18389893 539.41192627 C-764.01430427 551.50982941 -795.97669122 562.60767107 -829 571 C-831.23440179 571.57802144 -833.46877621 572.15614871 -835.703125 572.734375 C-853.37329223 577.26669888 -871.14160092 581.29028952 -889 585 C-890.27794434 585.26699707 -891.55588867 585.53399414 -892.87255859 585.80908203 C-932.16044669 593.90528457 -972.0363829 597.20329924 -1012 600 C-1012.7691272 600.05481537 -1013.53825439 600.10963074 -1014.33068848 600.16610718 C-1080.36206139 604.79569141 -1139.380371 592.2099451 -1202.04231262 572.49897766 C-1207.43809471 570.80199408 -1212.8368144 569.11540151 -1218.2421875 567.44921875 C-1238.56314199 561.18463002 -1258.83904468 554.76395687 -1279 548 C-1278.67 547.01 -1278.34 546.02 -1278 545 C-1277.45957062 545.10751587 -1276.91914124 545.21503174 -1276.36233521 545.32580566 C-1200.12688277 560.46701496 -1125.01620625 571.23646175 -1047.1875 571.25 C-1046.40613049 571.25029457 -1045.62476097 571.25058914 -1044.81971359 571.25089264 C-1021.0990723 571.2523319 -997.55924589 571.03261775 -974 568 C-973.24114502 567.90525391 -972.48229004 567.81050781 -971.70043945 567.71289062 C-886.70392244 557.08506993 -805.6962048 531.08563008 -731.83984375 487.4375 C-727.25926451 484.7306911 -722.65009825 482.08093232 -718.01928711 479.46118164 C-699.35248487 468.8965659 -681.09625489 457.98762528 -664 445 C-663.37834961 444.52997559 -662.75669922 444.05995117 -662.11621094 443.57568359 C-649.35763534 433.88122952 -637.38821333 423.27380038 -625.62109375 412.41015625 C-622.85390289 409.86566034 -620.05640326 407.36654812 -617.2109375 404.91015625 C-615.49750141 403.42982012 -613.79685119 401.93467821 -612.1015625 400.43359375 C-590.5169263 381.45606331 -566.90160475 366.19447179 -542 352 C-540.9157373 351.37899414 -539.83147461 350.75798828 -538.71435547 350.11816406 C-509.23465003 333.28131033 -479.10964359 318.79888852 -446.5 309.0625 C-445.64317627 308.8042041 -444.78635254 308.5459082 -443.90356445 308.27978516 C-424.12359079 302.66309028 -403.58542525 300.54458108 -383.23095703 298.14819336 C-322.17114719 290.91194728 -265.71083417 270.45835954 -211 243 C-209.25033936 242.12311523 -209.25033936 242.12311523 -207.46533203 241.22851562 C-174.89595952 224.81275111 -144.95956072 205.42888738 -117 182 C-116.4848584 181.56977539 -115.9697168 181.13955078 -115.43896484 180.69628906 C-97.0328769 165.30965132 -78.57252356 149.22468239 -64.33349609 129.79101562 C-62.84737041 127.79500354 -61.31307183 125.84255032 -59.76953125 123.890625 C-47.28405137 108.03784904 -38.08857797 90.98447677 -29 73 C-28.44530029 71.90679443 -28.44530029 71.90679443 -27.87939453 70.79150391 C-16.50781766 48.16489635 -7.9820031 23.98892328 0 0 Z " fill="#811760" transform="translate(1279,0)"/>
<path d="M0 0 C0.33 0 0.66 0 1 0 C1.18688881 17.25453813 1.32795752 34.50876042 1.41449738 51.76407909 C1.45574775 59.77608766 1.51198363 67.78746736 1.60351562 75.79907227 C1.68325829 82.78211058 1.73486638 89.76469352 1.75270796 96.74817449 C1.7631378 100.44612044 1.78764027 104.14276368 1.84584045 107.84029198 C1.91029371 111.96857826 1.9119192 116.09460099 1.90820312 120.22338867 C1.93696533 121.44906052 1.96572754 122.67473236 1.99536133 123.93754578 C1.91625837 132.03647122 1.91625837 132.03647122 -0.74494743 134.83497047 C-2.78807485 136.12905895 -4.76619119 137.08490141 -7 138 C-8.75316219 139.10328043 -10.50582608 140.20735341 -12.2578125 141.3125 C-39.17472079 158.25047935 -66.259429 175.12074146 -95.80566406 187.10693359 C-98.75952629 188.3091174 -101.69046971 189.56400447 -104.625 190.8125 C-110.03104439 193.04164032 -115.46962405 195.09999354 -121 197 C-121.62632324 197.22300781 -122.25264648 197.44601562 -122.89794922 197.67578125 C-136.14810297 202.35856651 -149.53090688 205.02968367 -163.36621094 207.37792969 C-167.08418203 208.01441117 -170.79604175 208.67992705 -174.5078125 209.3515625 C-201.42694778 214.18252968 -227.79943326 216.13916188 -255.125 216.23828125 C-256.1019986 216.24235678 -257.07899719 216.2464323 -258.08560181 216.25063133 C-263.27695485 216.27132002 -268.46828297 216.28568375 -273.65966797 216.29516602 C-277.84373984 216.30392788 -282.02746893 216.32459213 -286.21142578 216.35668945 C-312.7704233 216.55587537 -338.83135039 215.57559028 -365.24089909 212.70165825 C-376.18393458 211.52481541 -387.11989025 210.84695137 -398.12890625 210.83203125 C-399.11380539 210.82775116 -400.09870453 210.82347107 -401.1134491 210.81906128 C-404.26318046 210.80917756 -407.41275623 210.80899256 -410.5625 210.8125 C-411.6491394 210.81343658 -412.73577881 210.81437317 -413.85534668 210.81533813 C-431.31147849 210.84787803 -448.62324847 211.18056858 -466 213 C-467.21333008 213.12407227 -468.42666016 213.24814453 -469.67675781 213.37597656 C-505.03562046 217.18856869 -540.06796825 224.44963041 -575 231 C-576.11588501 231.20836487 -577.23177002 231.41672974 -578.38146973 231.63140869 C-619.97148495 239.40945249 -660.19476759 251.59673878 -700.484375 264.37109375 C-720.05489611 270.55426757 -739.79399593 276.0193588 -759.609375 281.35546875 C-761.86647334 281.96400016 -764.12282912 282.57519491 -766.37890625 283.1875 C-791.14294976 289.90316364 -816.05913941 295.97926608 -841 302 C-841 302.66 -841 303.32 -841 304 C-860.7258879 307.01610184 -880.47210159 309.60583356 -900.3125 311.75 C-901.78012787 311.90968765 -901.78012787 311.90968765 -903.27740479 312.07260132 C-906.11814115 312.38030849 -908.95931965 312.68344425 -911.80078125 312.984375 C-912.62374191 313.0727211 -913.44670258 313.1610672 -914.29460144 313.25209045 C-926.2420966 314.49496943 -938.13258412 315.15982163 -950.14453125 315.203125 C-952.11234055 315.21364647 -952.11234055 315.21364647 -954.11990356 315.22438049 C-958.35077385 315.2438359 -962.58158951 315.24881805 -966.8125 315.25 C-967.53615376 315.25044186 -968.25980751 315.25088371 -969.00539017 315.25133896 C-993.45212872 315.25915686 -1017.67220118 314.56643983 -1042 312 C-1042.86524292 311.9104303 -1043.73048584 311.8208606 -1044.62194824 311.72857666 C-1124.50194743 303.43635437 -1200.45400411 279.10342656 -1273 245 C-1269.74007941 243.9133598 -1269.20881746 244.01570435 -1266.11914062 245.05712891 C-1265.33553665 245.31605423 -1264.55193268 245.57497955 -1263.74458313 245.8417511 C-1262.8904332 246.13373886 -1262.03628326 246.42572662 -1261.15625 246.7265625 C-1260.2564592 247.02559982 -1259.3566684 247.32463715 -1258.42961121 247.63273621 C-1256.47632736 248.28223537 -1254.52428087 248.93546472 -1252.57333374 249.59194946 C-1247.34376842 251.34978175 -1242.10374987 253.07577427 -1236.86328125 254.80078125 C-1235.78915482 255.15470444 -1234.71502838 255.50862762 -1233.60835266 255.87327576 C-1218.64518285 260.78359157 -1203.5532277 265.26593663 -1188.46139526 269.76112366 C-1182.93736502 271.40965816 -1177.42781632 273.09990381 -1171.92578125 274.8203125 C-1155.11335729 280.06335857 -1138.29817581 284.60820082 -1121 288 C-1120.20239258 288.16048828 -1119.40478516 288.32097656 -1118.58300781 288.48632812 C-1113.40999225 289.51036938 -1108.22684986 290.30587913 -1103 291 C-1102.02015137 291.13535156 -1101.04030273 291.27070312 -1100.03076172 291.41015625 C-1062.95527223 296.35132909 -1025.54878605 294.35883413 -988.40704346 291.20245361 C-986.12060476 291.01014393 -983.83372346 290.82532388 -981.54638672 290.64404297 C-897.81202451 283.99366041 -816.14094114 264.18584211 -721.8046875 228.62890625 C-701.6448574 220.80636244 -681.34317936 213.3745292 -660.87890625 206.38891602 C-654.28908113 204.13890075 -647.71855086 201.85314208 -641.1875 199.4375 C-640.43879639 199.16067383 -639.69009277 198.88384766 -638.91870117 198.59863281 C-634.90503829 197.10521701 -630.90580884 195.57835813 -626.9140625 194.02734375 C-613.9841642 189.03764496 -600.91873031 184.56161778 -587.75 180.25 C-586.91949127 179.97573181 -586.08898254 179.70146362 -585.23330688 179.41888428 C-574.40563148 175.85152578 -563.54852853 172.75830047 -552.46191406 170.09985352 C-548.26637194 169.08760481 -544.1389314 167.91047161 -540 166.6875 C-505.40683826 156.8669349 -469.34501697 150.62312162 -433.65234375 146.55078125 C-428.99469725 146.01898438 -424.3959994 145.25510579 -419.78062153 144.43761635 C-410.7926381 143.02308062 -401.73158857 142.85107223 -392.65161133 142.84228516 C-391.48057358 142.83720444 -390.30953583 142.83212372 -389.10301208 142.82688904 C-386.57904091 142.81625616 -384.05506073 142.80760874 -381.53107643 142.80076981 C-377.51160998 142.78885373 -373.49224454 142.76963585 -369.4728241 142.74765015 C-358.0503612 142.68628446 -346.62790399 142.63200962 -335.20532227 142.59863281 C-328.87822148 142.580066 -322.55125576 142.55086131 -316.22425479 142.5106281 C-312.89634731 142.48991552 -309.56875509 142.47586314 -306.24076271 142.47182083 C-290.16148272 142.45023413 -274.52765354 141.6020547 -258.60037804 139.3526268 C-255.40117047 138.91879514 -252.19657881 138.57355636 -248.98440266 138.25145912 C-246.12083533 137.8885942 -243.34463668 137.24257283 -240.53662109 136.58447266 C-237.5505138 135.89643215 -234.55329557 135.28045215 -231.55078125 134.66796875 C-202.01477778 128.8259217 -202.01477778 128.8259217 -173.06738281 120.67236328 C-170.77974601 119.92836803 -168.48174164 119.22541825 -166.1796875 118.52734375 C-158.4657932 116.17701068 -150.98070783 113.79985181 -143.7109375 110.265625 C-140.48794047 108.76094051 -137.19810774 107.51793629 -133.875 106.25 C-118.8812363 100.373134 -105.27957444 92.02815294 -92 83 C-91.3905957 82.58637207 -90.78119141 82.17274414 -90.15332031 81.74658203 C-80.97468472 75.46632971 -72.35691253 68.55586207 -63.79101562 61.47070312 C-62.25426363 60.20879009 -60.69916198 58.96928135 -59.140625 57.734375 C-52.27457518 52.28314757 -45.95244488 46.3276101 -39.66040039 40.23120117 C-38.60453735 39.2176355 -38.60453735 39.2176355 -37.52734375 38.18359375 C-36.89562256 37.57056396 -36.26390137 36.95753418 -35.61303711 36.32592773 C-34 35 -34 35 -32 35 C-32 34.34 -32 33.68 -32 33 C-31.34 33 -30.68 33 -30 33 C-29.76796875 32.42894531 -29.5359375 31.85789062 -29.296875 31.26953125 C-27.68153681 28.44268942 -25.72447467 26.79830188 -23.25 24.6875 C-19.60669789 21.49502377 -16.35448893 18.28484403 -13.2890625 14.54296875 C-11.34406948 12.21487104 -9.14429198 10.14429198 -7 8 C-5.13230524 5.87345629 -3.2864905 3.73041601 -1.453125 1.57421875 C-0.73382812 0.79498047 -0.73382812 0.79498047 0 0 Z " fill="#DC3288" transform="translate(1279,306)"/>
</svg>
